<svg width="500" height="500" viewBox="0 0 500 500" fill="none" xmlns="http://www.w3.org/2000/svg">
<path d="M0 365.96V116.96C3.26 116.67 6.52998 116.14 9.78998 116.13C171.03 116.09 332.27 116.09 493.51 116.13C495.67 116.13 497.84 116.04 500 116V365.96C498.17 365.96 496.34 365.82 494.51 365.82C355.81 365.82 217.113 365.82 78.42 365.82C52.28 365.813 26.14 365.86 0 365.96ZM159.07 208.69C159.45 202.05 156.07 201.36 151.52 201.69C148.034 202 144.526 202 141.04 201.69C136.2 201.19 134.87 203.08 134.9 207.82C135.08 241.62 135 275.42 135.02 309.22C134.865 310.374 134.919 311.546 135.18 312.68C135.59 313.68 136.65 315.13 137.46 315.16C144.55 315.35 151.63 315.27 159.17 315.27V278.8C161.56 281.34 163.1 283.21 164.88 284.8C178.43 297.13 205.22 291.67 214.53 274.26C225.1 254.53 224.85 234.26 214.88 214.43C204.33 193.51 172.83 190.71 159.07 208.69ZM130 290.14C129.73 278.22 129.37 266.83 129.23 255.44C129.1 244.95 129.23 234.44 129.23 223.95C129.23 214.04 124.34 206.58 115.01 203.2C100.223 197.704 84.0116 197.369 69.01 202.25C58.28 205.67 51.68 219.69 53.54 228.73C59.32 228.73 65.27 228.63 71.21 228.73C73.91 228.8 75.34 227.93 76.46 225.32C77.5064 222.728 79.1797 220.436 81.33 218.65C85.61 215.42 99.43 215.88 103.26 219.65C105.26 221.57 106.75 225.17 106.45 227.79C106.24 229.66 102.91 232.13 100.59 232.65C92.5 234.46 84.24 235.45 76.06 236.9C66.06 238.66 56.82 241.9 52.06 251.82C43.16 270.58 56.06 291.07 77.19 292.02C88.53 292.53 98.82 290.2 107.09 280.95C107.86 283.68 108.16 285.69 109.02 287.43C109.56 288.54 110.91 289.97 111.95 290.01C118.17 290.26 124.47 290.14 130 290.14ZM450.1 290.14C449.74 280.58 449.24 272.01 449.1 263.42C448.94 250.42 449 237.42 449.1 224.42C449.1 214.09 444.53 206.61 434.94 203.03C420.187 197.338 403.9 197.026 388.94 202.15C378.94 205.54 371.61 217.9 373.51 228.36C378.69 228.36 383.99 228.18 389.27 228.43C393.01 228.6 395.53 227.95 396.68 223.76C397.23 221.76 399.16 219.76 400.97 218.47C405.67 215.11 419.29 215.56 423.36 219.55C425.24 221.4 426.8 224.88 426.43 227.3C426.12 229.3 423.03 231.84 420.73 232.42C414.261 233.938 407.71 235.087 401.11 235.86C392.26 237.08 383.59 238.86 376.86 245.23C368.86 252.9 368.14 262.64 370.86 272.55C373.69 282.81 381.54 288.63 391.48 290.87C404.66 293.87 416.93 291.71 427.02 280.87C427.66 283.23 427.92 285.26 428.78 286.98C429.41 288.22 430.78 289.91 431.92 289.98C438.19 290.28 444.5 290.13 450.08 290.13L450.1 290.14ZM333.1 228.44C333.1 209.61 332.98 190.78 333.19 171.95C333.19 167.73 331.89 166.32 327.78 166.64C323.956 166.935 320.114 166.935 316.29 166.64C312.22 166.33 310.8 167.64 310.87 171.91C311.12 186.08 310.97 200.25 310.97 214.41C310.97 237.91 311.06 261.41 310.88 284.91C310.88 289.08 312.13 290.59 316.26 290.28C320.085 290.005 323.925 290.005 327.75 290.28C331.83 290.57 333.23 289.18 333.18 284.95C332.91 266.1 333 247.27 333 228.43L333.1 228.44ZM274.31 223.08C274.31 217.08 274.03 211.28 274.4 205.5C274.69 201 272.63 200.22 268.81 200.33C260.59 200.55 253.99 203.45 249.61 212.28C249.25 209.9 249.01 208.98 248.99 208.06C248.92 203.48 246.76 201.61 242.1 202.06C237.96 202.41 233.78 202.22 229.61 202.21C226.97 202.21 225.79 203.21 225.8 206.09C225.88 232.91 225.88 259.723 225.8 286.53C225.8 289.36 226.91 290.34 229.65 290.27C234.65 290.14 239.65 290.05 244.65 290.27C248.16 290.44 249.28 289.19 249.22 285.7C249.04 274.55 249.15 263.39 249.16 252.23C249.1 234.01 256 225.81 274.24 223.07L274.31 223.08ZM304.45 246.22C304.45 232.88 304.38 219.55 304.45 206.22C304.45 202.98 303.38 201.74 300.1 201.88C295.28 202.08 290.44 202.05 285.61 201.88C282.61 201.77 281.47 202.83 281.48 205.88C281.553 232.707 281.553 259.54 281.48 286.38C281.48 289.11 282.42 290.29 285.27 290.2C289.93 290.05 294.61 289.93 299.27 290.2C303.17 290.46 304.56 289.2 304.5 285.2C304.26 272.21 304.38 259.21 304.38 246.21L304.45 246.22ZM363.12 246.22H362.98C362.98 233.08 362.89 219.93 362.98 206.78C362.98 203.21 361.98 201.59 358.18 201.83C353.69 202.09 349.19 202.09 344.7 201.83C341.31 201.64 340.48 203.06 340.49 206.2C340.57 232.673 340.57 259.14 340.49 285.6C340.49 288.96 341.36 290.43 344.97 290.19C349.298 289.889 353.642 289.889 357.97 290.19C361.91 290.47 363.24 289.09 363.19 285.19C362.93 272.21 363.05 259.23 363.05 246.24L363.12 246.22ZM282 166.67C282 173.31 281.85 179.25 282.14 185.17C282.14 186.17 284.07 187.79 285.14 187.85C290.612 188.16 296.098 188.16 301.57 187.85C302.72 187.78 304.57 185.85 304.68 184.62C305.065 179.818 305.065 174.992 304.68 170.19C304.58 168.95 302.48 166.94 301.22 166.87C295.08 166.5 288.94 166.69 281.93 166.69L282 166.67ZM339.83 166.67C339.83 173.34 339.69 179.3 339.97 185.25C339.97 186.25 341.82 187.95 342.89 188.01C348.22 188.296 353.562 188.276 358.89 187.95C360.08 187.87 362.03 186.03 362.12 184.89C362.466 179.896 362.466 174.884 362.12 169.89C362.04 168.75 360.12 166.84 359.05 166.78C352.85 166.55 346.7 166.71 339.76 166.71L339.83 166.67ZM461.37 191.36C464.765 191.38 468.028 190.05 470.443 187.664C472.858 185.278 474.225 182.03 474.245 178.635C474.265 175.24 472.935 171.977 470.549 169.562C468.163 167.148 464.915 165.78 461.52 165.76C459.813 165.734 458.118 166.053 456.538 166.699C454.958 167.345 453.525 168.305 452.325 169.519C451.125 170.734 450.184 172.179 449.557 173.767C448.931 175.355 448.633 177.053 448.68 178.76C448.66 180.424 448.973 182.075 449.599 183.616C450.226 185.157 451.155 186.558 452.33 187.735C453.506 188.913 454.905 189.844 456.445 190.473C457.986 191.102 459.636 191.417 461.3 191.4L461.37 191.36Z" fill="black"/>
<path d="M157.9 243.64C158.9 238.78 159.38 233.75 160.99 229.11C163.99 220.39 170.5 216.6 180.05 217.03C187.42 217.36 193.24 222.19 195.64 230.33C198.04 238.47 198.64 246.94 196.09 255.41C193.01 265.75 186.79 271.19 177.94 270.74C167.64 270.21 160.79 263.67 159.22 252.74C158.8 249.74 158.67 246.74 158.4 243.79L157.9 243.64Z" fill="black"/>
<path d="M106.14 246.56C109.06 264.99 102.21 273.02 83.2203 273.73C78.5503 273.91 74.3603 271.79 72.9403 266.64C71.5203 261.49 73.5603 257.77 77.8503 255.22C80.5084 253.538 83.3764 252.213 86.3803 251.28C92.8903 249.46 99.5403 248.11 106.14 246.56Z" fill="black"/>
<path d="M426.71 246.37C426.71 251.05 427.03 255.05 426.59 258.97C426.301 261.41 425.342 263.721 423.82 265.65C417.96 272.65 409.82 274.36 401.3 273.58C399.187 273.483 397.174 272.648 395.613 271.221C394.051 269.795 393.038 267.866 392.75 265.77C391.92 261.28 393.75 257.89 397.42 255.62C400.186 253.811 403.188 252.391 406.34 251.4C412.84 249.51 419.48 248.12 426.71 246.37Z" fill="black"/>
<path d="M461.561 188.96C455.501 189.03 451.081 184.78 451.031 178.85C450.996 177.477 451.236 176.112 451.738 174.834C452.24 173.556 452.992 172.391 453.952 171.409C454.911 170.426 456.057 169.646 457.323 169.114C458.588 168.582 459.948 168.308 461.321 168.31C464.087 168.397 466.712 169.548 468.651 171.522C470.59 173.497 471.693 176.143 471.731 178.91C471.709 181.59 470.627 184.152 468.721 186.035C466.815 187.919 464.24 188.971 461.561 188.96ZM460.971 179.62L467.521 185.62C467.841 181.87 468.441 178.43 468.261 175.03C468.261 173.89 466.261 172.03 465.081 171.93C462.521 171.74 459.241 171.67 457.451 173.08C455.451 174.64 457.281 183.84 459.451 185.84C459.861 184.13 460.231 182.63 461.001 179.59L460.971 179.62Z" fill="black"/>
</svg>
