<svg width="512" height="143" viewBox="0 0 512 143" fill="none" xmlns="http://www.w3.org/2000/svg">
<path d="M142.618 71.0886C142.637 80.4705 140.804 89.7638 137.222 98.4353C133.641 107.107 128.383 114.986 121.749 121.62C115.116 128.255 107.238 133.514 98.5666 137.097C89.8957 140.68 80.6027 142.515 71.2208 142.497C31.9948 142.331 0.13328 112.031 0.000385803 71.6202C-0.132509 28.6067 34.0878 0.111925 71.0214 0.00117979C80.3958 -0.0527901 89.6887 1.74539 98.3663 5.29247C107.044 8.83955 114.936 14.0657 121.588 20.6708C128.241 27.276 133.523 35.1301 137.132 43.7822C140.741 52.4343 142.605 61.714 142.618 71.0886ZM131.787 70.7453C131.787 37.4442 104.544 10.0569 71.3979 10.0347C38.0747 10.0347 10.3662 37.7211 10.488 71.0443C10.6098 104.368 37.975 131.666 71.0989 131.666C79.0844 131.663 86.9907 130.084 94.3645 127.019C101.738 123.953 108.434 119.463 114.068 113.804C119.703 108.145 124.164 101.429 127.197 94.0421C130.23 86.655 131.775 78.7418 131.743 70.7564L131.787 70.7453Z" fill="black"/>
<path d="M497.903 82.4179L512.001 103.459C505.356 107.513 497.139 106.04 493.406 100.558C490.605 96.4492 488.035 92.1635 485.001 88.232C483.672 86.5265 481.579 84.6217 479.608 84.3227C471.136 83.0491 470.537 83.7579 470.537 92.2742V97.8114C470.537 105.564 470.537 105.309 462.785 105.63C457.835 105.829 455.997 104.523 456.141 99.1626C456.473 81.2957 456.473 63.4214 456.141 45.5397C456.052 40.2682 457.912 38.8063 462.885 39.0168C472.265 39.4044 481.712 38.895 491.059 39.5151C502.443 40.2682 508.944 45.7168 511.192 55.1634C513.761 65.9722 510.195 74.4626 500.494 80.6348C499.652 81.0667 498.966 81.6427 497.903 82.4179ZM481.291 52.1844V52.0072C479.635 52.1124 477.974 52.1124 476.318 52.0072C471.601 51.3649 470.094 53.458 470.526 57.9653C470.836 61.2877 470.305 64.61 470.726 67.9324C470.903 69.2945 472.542 71.4762 473.583 71.5205C478.905 71.8499 484.246 71.7016 489.541 71.0775C494.946 70.3244 497.205 66.7252 497.127 61.2766C497.05 55.8279 493.805 53.2697 489.01 52.3505C486.485 51.7857 483.827 52.1844 481.247 52.1844H481.291Z" fill="black"/>
<path d="M313.068 39.1165C317.099 39.1165 320.643 38.6735 323.965 39.3269C325.316 39.5927 327.055 42.1509 327.166 43.7567C327.564 49.449 327.454 55.1856 327.299 60.9C327.21 64.1116 328.162 65.64 331.662 65.5292C337.93 65.3447 344.206 65.3447 350.489 65.5292C353.911 65.64 355.051 64.2113 354.918 60.9665C354.797 55.252 355.051 49.5265 354.83 43.8121C354.697 40.1796 356.092 38.7399 359.658 39.0389C361.486 39.194 363.557 38.5627 365.118 39.2161C366.68 39.8695 368.983 41.6968 368.994 43.0368C369.249 62.5834 369.16 82.1299 369.182 101.676C369.182 104.5 367.853 105.386 365.118 105.564C354.885 106.206 354.885 106.295 354.885 96.3496C354.885 92.1081 354.774 87.8555 354.885 83.625C355.007 80.3026 354.043 78.4753 350.234 78.6193C343.966 78.8408 337.686 78.7633 331.407 78.6193C328.284 78.6193 327.155 79.8818 327.221 82.9273C327.343 88.8189 327.132 94.7217 327.287 100.647C327.387 104.135 326.18 105.907 322.503 105.519C321.765 105.48 321.026 105.48 320.288 105.519C313.001 105.519 312.99 105.519 312.99 98.4205V39.1165H313.068Z" fill="black"/>
<path d="M230.618 105.53C225.745 107.07 223.286 103.77 222.168 98.8857C220.639 92.3074 217.018 89.1844 209.986 90.5576C208.154 90.8772 206.28 90.8772 204.448 90.5576C194.67 89.0847 187.205 90.9009 185.212 102.385C184.669 105.486 172.864 107.025 171.203 104.401C170.682 103.603 171.014 101.953 171.457 100.901C179.335 82.2665 187.257 63.6428 195.223 45.0302C196.995 40.8773 200.152 38.5959 204.648 38.607C209.144 38.6181 212.289 40.9659 214.039 45.0745C221.891 63.5358 229.776 81.9859 237.539 100.447C239.51 105.087 238.857 105.53 230.618 105.53ZM205.445 58.3308H203.363C200.849 64.455 198.346 70.5792 195.545 77.4343H213.352C210.484 70.5238 207.959 64.4329 205.445 58.3308Z" fill="black"/>
<path d="M388.642 72.2071C388.642 63.9234 388.642 55.5953 388.642 47.3337C388.642 40.5118 390.613 38.5627 397.579 38.4741C409.196 38.4741 420.835 38.6734 432.408 38.3634C437.569 38.2305 438.51 40.4786 438.51 45.0081C438.51 49.5376 437.403 51.4313 432.652 51.2652C424.733 50.9883 416.804 51.2652 408.875 51.1433C404.345 51.0437 402.662 52.9042 402.762 57.4226C402.983 67.0021 403.016 76.5927 402.762 86.2164C402.618 91.2221 404.976 92.7061 409.406 92.6507C417.701 92.5511 426.018 92.8279 434.291 92.551C439.296 92.3849 439.429 95.2643 439.429 98.9189C439.429 102.573 439.141 105.342 434.202 105.242C421.677 105.01 409.14 105.242 396.549 105.143C390.679 105.143 388.653 103.016 388.597 97.0916C388.586 88.7968 388.642 80.5019 388.642 72.2071Z" fill="black"/>
<path d="M269.977 39.0832C277.176 39.0832 284.374 39.3933 291.561 38.9835C296.955 38.6735 297.032 41.6525 296.899 45.5175C296.777 49.0614 297.497 52.8046 291.794 52.2287C288.328 51.8743 284.784 52.3394 281.295 52.1179C277.585 51.8854 276.533 53.5134 276.566 57.0129C276.699 71.2215 276.456 85.4301 276.722 99.6277C276.81 104.201 275.47 105.752 270.83 105.619C262.291 105.375 262.28 105.619 262.28 96.8258C262.28 83.5364 262.181 70.2469 262.347 56.9575C262.347 53.4026 261.339 51.8854 257.651 52.0958C253.786 52.3173 249.899 52.0958 246.034 52.1512C240.685 52.2952 242.125 48.3637 242.058 45.5065C241.992 42.6492 240.951 38.8617 246.178 39.0168C254.107 39.205 262.048 39.0943 269.977 39.0832Z" fill="black"/>
<path d="M420.89 66.5037C423.105 66.5037 425.685 65.7618 427.38 66.692C429.495 67.7995 432.286 70.4574 432.175 72.2293C431.931 73.5547 431.369 74.8012 430.538 75.862C429.707 76.9228 428.631 77.7663 427.402 78.3203C423.858 79.4278 419.794 78.9072 415.951 78.7632C412.108 78.6193 409.306 76.6591 409.461 72.2625C409.605 68.1649 412.186 66.5148 415.94 66.3044C417.59 66.2158 419.262 66.3044 420.89 66.3044V66.5037Z" fill="black"/>
<path d="M76.0391 38.3302C77.512 39.5484 81.4767 41.3978 83.1932 44.4876C89.838 56.3816 95.796 68.619 101.787 80.8453C104.634 86.6483 102.54 92.9276 97.3575 95.6298C91.8867 98.476 85.4967 96.5046 82.3958 90.5908C76.0944 78.5417 69.8262 66.4595 63.9014 54.211C60.0474 46.2595 65.2082 38.1751 76.0391 38.3302Z" fill="black"/>
<path d="M39.6244 83.7579C39.5859 80.4198 40.8698 77.202 43.1959 74.8075C45.522 72.4129 48.7012 71.0362 52.039 70.9779C53.7723 70.9185 55.4999 71.2074 57.1196 71.8275C58.7393 72.4476 60.2181 73.3862 61.4686 74.5879C62.7191 75.7897 63.7159 77.23 64.4 78.8238C65.084 80.4175 65.4414 82.1323 65.451 83.8666C65.4607 85.6009 65.1223 87.3195 64.4561 88.9207C63.7898 90.5219 62.809 91.9733 61.5719 93.1888C60.3348 94.4043 58.8665 95.3594 57.2538 95.9974C55.6411 96.6354 53.9168 96.9435 52.183 96.9034C44.9181 96.8591 39.5247 91.2221 39.6244 83.7579Z" fill="black"/>
</svg>
