<svg width="381" height="404" viewBox="0 0 381 404" fill="none" xmlns="http://www.w3.org/2000/svg">
<path d="M366.959 164.047C362.959 176.407 359.249 188.477 355.239 200.457C331.609 271.047 288.719 328.747 234.649 378.617C226.692 385.925 218.026 392.42 208.779 398.007C196.279 405.567 182.529 406.007 170.419 397.617C158.297 389.153 146.825 379.794 136.099 369.617C111.434 346.405 89.4378 320.511 70.5194 292.417C61.2694 278.737 60.3894 271.287 70.9194 253.277C79.7294 238.207 94.2593 228.777 109.129 220.277C141.279 201.957 176.179 190.837 211.919 182.277C259.049 170.937 306.849 164.347 355.389 163.577C358.389 163.527 361.389 163.577 364.389 163.577C365.255 163.679 366.114 163.836 366.959 164.047Z" fill="black"/>
<path d="M20.4296 186.357C14.9596 164.957 9.49958 144.897 4.74958 124.687C0.79958 107.917 -0.990432 90.8774 0.549568 73.5674C1.66957 60.9774 7.33957 51.1674 17.2396 43.5074C30.3596 33.3574 45.3695 26.9773 60.8895 21.7673C125.79 -0.0426559 192.11 -5.58264 259.65 5.68736C292.31 11.1374 323.97 20.0674 353.56 35.5674C370.87 44.6274 379.56 58.3173 380.22 77.9273C380.93 99.6473 377.36 120.747 373.22 141.867C372.47 145.657 370.1 145.497 367.35 145.507C339.69 145.627 312.02 145.367 284.35 146.007C243.22 146.957 202.07 148.007 160.98 150.067C131.999 151.372 103.217 155.526 75.0496 162.467C56.1596 167.227 38.2296 174.087 20.4296 186.357ZM34.5596 119.017C44.1096 119.017 53.0396 119.157 61.9696 119.017C79.2395 118.687 91.5495 108.017 94.5795 91.0173C97.4995 74.6073 90.4396 65.6173 73.8096 65.0173C65.8096 64.7073 57.8096 65.0773 49.8096 64.8573C46.4196 64.7673 45.2396 66.1374 44.6096 69.3174C41.8496 83.1974 38.8196 97.0173 35.9296 110.867C35.4596 113.197 35.1296 115.637 34.5596 119.017ZM126.9 64.9474C120.45 64.9474 114.9 65.0873 109.25 64.8973C106.18 64.7873 104.86 65.8974 104.25 68.9474C102.12 79.7274 99.6695 90.4474 97.3995 101.197C95.4995 110.197 99.2296 116.697 108.12 119.117C116.697 121.517 125.811 121.167 134.18 118.117C142.32 115.177 147.42 109.427 149.25 100.897C151.45 90.6373 153.643 80.374 155.83 70.1073C156.12 68.6973 156.21 67.2374 156.51 64.9474C150.43 64.9474 144.83 65.1374 139.24 64.8774C135.87 64.7174 134.6 66.0774 133.98 69.2274C132.09 78.8674 129.98 88.4674 127.87 98.0674C127.52 99.6774 127.32 101.617 126.3 102.707C125.09 103.997 123.07 104.517 121.4 105.377C120.73 103.717 119.25 101.917 119.52 100.427C121.01 92.0673 122.91 83.7773 124.67 75.4273L126.9 64.9474ZM203.9 119.067C210.15 119.067 214.96 118.847 219.73 119.127C223.45 119.347 225.82 118.127 226.85 114.527C227.77 111.277 229.85 110.077 233.22 110.437C235.215 110.634 237.224 110.634 239.22 110.437C242.5 110.177 244.13 111.237 244.22 114.827C244.22 116.217 245.7 118.727 246.61 118.827C253.03 119.167 259.46 119.007 265.61 119.007C266.05 118.097 266.329 117.787 266.31 117.517C264.59 100.967 262.93 84.4174 260.95 67.9074C260.81 66.7674 258.35 65.1173 256.9 65.0473C250.26 64.7473 243.59 65.0474 236.9 64.8474C233.79 64.7474 232.14 65.9174 230.71 68.6374C224.29 80.8574 217.64 92.9674 211.12 105.137C208.84 109.287 206.72 113.547 203.88 119.067H203.9ZM192.65 84.0674L192.17 85.5274C197.17 85.5274 202.17 85.3773 207.08 85.5773C210.44 85.7173 211.37 84.0673 211.57 81.1173C212.13 73.1173 207.88 66.6873 199.87 64.7973C172.99 58.4373 153.31 76.7973 155.48 103.797C155.658 106.823 156.662 109.741 158.383 112.236C160.103 114.731 162.475 116.706 165.24 117.947C176.24 123.337 193.73 120.277 201.77 111.087C204.54 107.927 206.16 103.747 208.3 100.027L207.01 98.7474C202.55 98.7474 198.1 98.8874 193.65 98.6974C190.1 98.5574 187.39 98.9174 185.74 102.887C185.11 104.407 181.85 105.887 180.16 105.557C178.89 105.297 177.23 101.967 177.46 100.237C178.074 94.6124 179.343 89.0784 181.24 83.7474C182.15 81.3674 185.41 79.4174 188.04 78.4774C188.81 78.2274 191.06 82.0873 192.63 84.0473L192.65 84.0674ZM274.539 119.067C280.859 119.067 286.46 118.937 292.049 119.117C295.15 119.217 296.449 117.997 297.049 114.977C298.909 105.667 301.33 96.4574 302.94 87.0974C303.86 81.7774 305.79 78.8973 311.59 79.9873C312.911 80.2734 314.282 80.2425 315.59 79.8973C316.68 79.5574 318.149 78.6874 318.409 77.7574C319.509 73.8174 320.21 69.7574 321 66.0374C320 65.4474 319.71 65.1374 319.419 65.1374C304.59 65.0574 289.77 64.9673 274.94 65.0473C274.339 65.1466 273.773 65.3918 273.29 65.7615C272.807 66.1312 272.422 66.614 272.169 67.1674C271.12 71.1074 270.45 75.1674 269.45 80.1674H282.61C279.82 93.3474 277.28 105.687 274.52 119.027L274.539 119.067ZM346.049 64.9074C339.789 64.9074 334.16 65.0373 328.53 64.8573C325.53 64.7573 324.469 66.0274 323.909 68.7574C320.789 83.9174 317.53 99.0374 314.36 114.187C314.14 115.809 314.01 117.441 313.97 119.077C319.97 119.077 325.44 118.937 330.89 119.077C333.98 119.177 335.29 117.927 335.89 114.957C339.1 99.6473 342.499 84.3773 345.789 69.0873C345.96 67.6873 346.04 66.2777 346.03 64.8673L346.049 64.9074Z" fill="black"/>
<path d="M58.1797 107.297C60.3397 97.1273 62.0597 88.6673 64.0497 80.2973C64.2797 79.2973 66.2797 77.7873 67.0497 78.0173C68.9397 78.5873 71.3297 79.5973 72.1497 81.1473C74.6897 85.9473 70.2697 101.677 65.7197 104.647C63.8997 105.747 61.5797 106.127 58.1797 107.297Z" fill="black"/>
<path d="M235.609 95.7973C237.763 90.9707 239.906 86.144 242.039 81.3174L243.489 81.6073C243.489 85.9573 244.009 90.4073 243.179 94.6073C242.909 95.9773 239.109 96.6073 236.929 97.6073L235.609 95.7973Z" fill="black"/>
</svg>
