<svg width="512" height="165" viewBox="0 0 512 165" fill="none" xmlns="http://www.w3.org/2000/svg">
<path d="M353.687 89.9346H291.307C291.307 100.049 296.184 107.072 304.545 109.668C313.996 112.612 321.592 110.117 327.222 102.42C327.62 101.869 328.123 101.401 328.701 101.044C329.28 100.688 329.923 100.449 330.594 100.341C338.055 100.15 345.528 100.24 353.62 100.24C348.844 114.848 339.707 124.041 325.11 127.12C306.242 131.098 288.644 129.154 275.833 112.826C260.1 92.7216 263.471 55.5138 286.879 42.4557C312.816 28.0266 351.215 38.1742 353.575 78.3599C353.822 81.8885 353.687 85.4284 353.687 89.9346ZM291.105 72.0556H328.683C328.897 62.5823 322.323 55.0194 313.423 54.0754C301.174 52.6932 293.566 58.6604 291.105 72.0556Z" fill="black"/>
<path d="M232.411 38.7248H255.471V126.524H232.411C232.411 116.523 232.22 106.667 232.501 96.8233C232.636 92.4631 231.377 90.8899 226.882 91.0247C216.252 91.3394 205.61 91.1258 194.293 91.1258V126.457H170.694V38.8035H193.776V71.3926C206.239 71.3926 218.151 71.4937 230.04 71.1903C230.872 71.1903 232.288 68.2011 232.288 66.5716C232.524 57.4467 232.411 48.3218 232.411 38.7248Z" fill="black"/>
<path d="M422.889 83.1921C423.226 65.976 427.889 51.1649 443.543 42.4333C468.873 28.3188 509.576 37.1741 511.868 78.7308C512.846 96.4525 508.576 112.702 492.101 122.344C476.47 131.48 459.849 131.48 443.881 122.951C427.912 114.421 423.361 99.6327 422.889 83.1921ZM488.573 84.4844C487.674 78.5285 487.314 73.8536 486.213 69.3698C485.341 65.4051 483.244 61.815 480.219 59.1084C477.194 56.4017 473.393 54.7156 469.356 54.2889C465.516 53.8407 461.632 54.6162 458.258 56.5049C454.884 58.3936 452.193 61.2991 450.567 64.8073C447.866 70.4769 446.493 76.6873 446.551 82.967C446.61 89.2466 448.098 95.4304 450.904 101.049C454.197 107.892 460.243 111.163 467.761 111.061C475.279 110.96 481.313 107.623 484.111 100.464C486.291 95.0029 487.325 89.1256 488.539 84.4844H488.573Z" fill="black"/>
<path d="M0.477918 24.6328C13.0416 33.9713 24.3129 42.2759 35.4494 50.7491C36.0385 51.2867 36.5148 51.9362 36.8505 52.6597C37.1862 53.3832 37.3746 54.1662 37.4047 54.9632C37.4871 91.0809 37.4871 127.195 37.4047 163.305C37.4047 163.609 37.0564 163.901 36.5395 164.71C29.7969 159.799 23.4813 154.045 16.1768 150.224C3.11873 143.392 -0.58964 133.66 0.0733798 119.085C1.38818 90.1369 0.477929 61.0877 0.489166 32.0834L0.477918 24.6328Z" fill="black"/>
<path d="M388.671 126.614H365.072C365.072 122.557 365.005 118.681 365.072 114.815C365.364 100.06 365.072 85.2486 366.196 70.5498C367.555 52.2886 379.254 40.2082 397.403 37.8483C404.291 36.9381 411.405 37.7022 418.675 37.7022V57.2445C415.709 57.2445 412.787 57.0534 409.899 57.2445C397.74 58.1772 390.177 65.5603 389.671 77.7419C389.064 91.5529 389.019 105.398 388.738 119.22C388.626 121.501 388.671 123.749 388.671 126.614Z" fill="black"/>
<path d="M66.2637 0C78.5127 9.05752 90.2111 17.6431 101.82 26.3634C102.707 27.0265 103.089 28.4986 103.505 29.7347C103.655 30.4747 103.678 31.2347 103.573 31.9823C103.471 38.8934 105.427 46.8384 102.662 52.4347C100.01 57.7613 92.4811 60.7056 87.0083 64.5826C80.3444 69.3136 73.5906 73.9323 66.2637 79.0229V0Z" fill="black"/>
<path d="M66.1055 114.118L103.088 87.395V141.088L66.1055 114.118Z" fill="black"/>
</svg>
