<svg width="463" height="370" viewBox="0 0 463 370" fill="none" xmlns="http://www.w3.org/2000/svg">
<path d="M146.7 58C134.8 49 133.8 36.35 134.44 23.21C134.5 21.86 135.03 19.81 135.98 19.33C146.31 14.1 156.98 9.71004 168.42 7.69004C168.89 14.84 168.78 21.69 169.9 28.36C171.4 37.21 177.45 41.0101 186.27 39.4201C189.381 38.887 192.428 38.029 195.36 36.86C202.36 33.99 206.05 28.76 205.9 20.98C205.78 14.88 205.9 8.77005 205.9 2.26005C217.44 -0.739953 229.39 -0.569967 241.65 2.37003C241.65 9.44003 241.65 16.37 241.65 23.31C241.65 28.46 243.71 32.74 248.24 34.8C253.136 37.1732 258.372 38.769 263.76 39.53C271.22 40.34 275.67 36.66 277 28.94C278.17 22.11 278.21 15.09 278.85 6.76005C287.77 10.08 296.58 13.57 305.54 16.61C310.7 18.36 312.74 21.51 312.54 26.84C312.15 38.72 310.87 50.1501 299.86 57.9501C312.27 72.1301 314.39 89.8 317.12 107.1C320.514 129.362 319.686 152.064 314.68 174.02C312.631 183.082 309.372 191.827 304.99 200.02C296.47 216.02 282.68 225.87 264.71 228.94C237.09 233.67 209.21 234.19 181.82 228.43C154.43 222.67 138.98 203.52 132.82 176.93C127.64 154.68 127.43 132.03 129.82 109.39C130.731 101.46 132.104 93.5903 133.93 85.82C137 72 138.33 69.42 146.7 58ZM223.27 205.33L223.35 203.92C232.18 203.92 241.02 204.28 249.83 203.85C271.46 202.77 282.13 193.66 285.83 172.51C287.621 162.376 288.68 152.126 289 141.84C289.53 124.57 289.79 107.26 286 90.1701C281.72 71.09 274.14 62.25 254.84 60.75C234.274 59.1118 213.612 59.0683 193.04 60.62C172.46 62.21 165.93 69.62 161.28 89.74C157.28 107.3 157.45 125.18 158.37 142.95C159.081 155.383 160.685 167.748 163.17 179.95C165.53 191.95 173.26 200.01 185.62 201.78C197.98 203.55 210.71 204.24 223.27 205.36V205.33Z" fill="black"/>
<path d="M13.8799 291.27V322.54H0.399902V251.9H13.8999V278.68H42.8199V252H56.4199V322.49H43.0699V291.27H13.8799Z" fill="black"/>
<path d="M212.73 337H201.11V318.42C195.87 320.42 191.06 323.42 185.98 323.95C175.42 325.12 167.28 318.27 164.27 306.71C162.19 299.115 162.441 291.07 164.99 283.62C170.49 267.62 187.08 263.15 199.89 274.2C200.404 274.495 200.951 274.726 201.52 274.89C201.75 272.94 201.96 271.23 202.18 269.35H212.73V337ZM201.67 296.67C201.07 293.16 200.83 290.32 200.08 287.67C198.45 281.75 194.6 278.5 189.29 278.15C184.45 277.84 179.91 280.72 177.54 285.89C175.924 289.193 175.093 292.825 175.112 296.503C175.131 300.18 176 303.804 177.65 307.09C180.04 312.02 184.02 314.6 189.74 314.09C195.02 313.61 198.32 310.56 199.91 305.83C201 302.67 201.19 299.3 201.67 296.66V296.67Z" fill="black"/>
<path d="M403.51 283.85C404.65 275.22 408.73 270.06 416.85 269.17C423.177 268.422 429.587 268.784 435.79 270.24C442.99 272.04 445.72 277.07 445.79 284.49C445.79 292.49 445.79 300.49 445.79 308.49V322.71C442.34 321.6 436.86 326.08 433.85 319.03C426.85 324.78 418.85 325.67 410.49 322.9C407.453 321.925 404.81 319.999 402.953 317.405C401.096 314.812 400.124 311.689 400.18 308.5C400.13 301.44 403.35 296.11 410.08 293.97C414.93 292.42 420.17 292.15 425.2 291.08C429.09 290.25 434.15 290.49 433.99 284.44C433.88 280.21 429.86 277.36 423.88 277.99C421.13 278.29 418.59 280.52 415.98 281.94C414.98 282.5 413.98 283.71 412.98 283.79C409.83 284 406.69 283.85 403.51 283.85ZM433.27 297.47C428.08 298.47 423.54 299.11 419.1 300.2C413.31 301.62 410.65 307.2 413.91 310.96C417.17 314.72 421.91 314.69 426.29 313.47C430.37 312.35 433.29 309.77 433.29 305C433.26 302.54 433.27 300.08 433.27 297.47Z" fill="black"/>
<path d="M309.22 323.18C304.98 321.18 299 326.63 296.57 318.75C289.25 324.81 281.28 325.58 272.88 322.75C266.45 320.6 263.13 315.62 263.06 308.75C262.98 300.98 265.67 296.41 272.44 294.01C276.01 292.75 279.86 292.26 283.6 291.54C286.05 291.06 288.55 290.87 290.99 290.39C294.12 289.77 297.5 288.29 296.55 284.76C296.09 283.345 295.331 282.045 294.325 280.948C293.32 279.85 292.09 278.982 290.72 278.4C286.5 277.02 281.67 276.83 279.33 282.4C279.076 282.792 278.736 283.121 278.336 283.362C277.936 283.603 277.486 283.749 277.02 283.79C273.75 283.95 270.47 283.85 267.18 283.85C267.61 274.68 273.32 269.2 283.81 268.27C288.273 267.913 292.764 268.278 297.11 269.35C304.16 271.05 308.24 276.88 308.37 284.52C308.52 292.85 308.37 301.18 308.45 309.52C308.51 313.75 308.91 318 309.22 323.18ZM296 297.34C291 298.34 286.29 299.07 281.69 300.21C275.98 301.62 273.41 307.21 276.69 311.08C279.97 314.95 284.48 314.64 288.69 313.56C292.47 312.56 295.69 310.31 295.98 305.77C296.08 303 296 300.19 296 297.34Z" fill="black"/>
<path d="M96.87 269.41H109V322.55H97.4601C97.1801 321.32 96.8601 319.95 96.4601 318.47C95.9947 318.488 95.5339 318.569 95.0901 318.71C91.2601 320.51 87.5701 323.51 83.5901 323.96C72.1001 325.24 64.73 318.28 64.13 305.83C63.65 295.53 64.0301 285.19 64.0201 274.83V269.5H76.61C76.61 276.64 76.61 283.75 76.61 290.86C76.61 295.52 76.47 300.2 76.8 304.86C77.25 311.12 80.6701 314.4 86.1401 314.39C91.9401 314.39 95.8601 311.02 96.1401 304.87C96.5601 295.07 96.44 285.24 96.57 275.42C96.62 273.51 96.77 271.57 96.87 269.41Z" fill="black"/>
<path d="M395.81 322.56H383.6C383.6 313.98 383.6 305.71 383.6 297.43C383.6 293.93 383.68 290.43 383.34 286.96C382.75 280.87 380.47 278.28 375.94 277.96C370.13 277.54 364.71 280.89 363.94 286.26C363.15 291.99 363.23 297.85 363.09 303.66C362.95 309.47 363.03 315.31 362.99 321.14C362.897 321.597 362.757 322.043 362.57 322.47H351.15V269.47H362.05C362.3 271.37 362.57 273.47 362.92 276.09C363.969 275.231 364.97 274.316 365.92 273.35C371.14 267.43 377.65 266.98 384.61 269.11C391.17 271.11 395.26 276.11 395.56 282.54C396.25 295.77 395.81 309.06 395.81 322.56Z" fill="black"/>
<path d="M114.89 307.27H126.55C130.38 313.74 134.29 315.74 141.44 313.77C143.56 313.19 146.29 310.66 146.55 308.77C146.81 306.88 144.65 303.64 142.77 302.83C138.41 300.97 133.57 300.2 128.92 299.02C121.14 297.02 116.63 292.89 115.92 287.02C114.82 277.8 118.11 272.4 126.98 269.64C134.48 267.3 141.98 267.13 149.21 270.93C151.391 271.968 153.256 273.569 154.613 275.567C155.97 277.566 156.769 279.89 156.93 282.3C151.25 281.71 145.65 284.09 140.76 279.12C139.36 277.7 135.56 277.78 133.18 278.41C131.18 278.95 128.41 281.09 128.18 282.83C127.96 284.41 130.34 287.24 132.18 288.02C136.12 289.67 140.48 290.33 144.66 291.41C154.99 294.06 159.4 298.73 159.35 306.94C159.29 315.45 153.58 321.94 143.85 323.76C137.275 325.205 130.408 324.431 124.32 321.56C118.59 318.69 114.93 314.3 114.89 307.27Z" fill="black"/>
<path d="M242.09 309.15C245.76 295.93 249.44 282.7 253.09 269.35H265.81C259.76 287.23 253.81 304.9 247.81 322.67H234.23L216.17 269.33H229.62C233.36 282.49 237.15 295.8 240.94 309.1L242.09 309.15Z" fill="black"/>
<path d="M316.21 269.36H327L327.93 277.53C332.5 270.9 337.02 265.64 345.65 268.3V278.61C334.65 277.52 329.09 282.17 328.52 293.42C328.13 301.23 328.35 309.07 328.31 316.9C328.31 318.68 328.31 320.47 328.31 322.56H316.23L316.21 269.36Z" fill="black"/>
<path d="M446.75 336.71H226.66L226.28 335.63C226.995 335.018 227.802 334.522 228.67 334.16C229.823 333.999 230.991 333.969 232.15 334.07C301.924 334.07 371.694 334.07 441.46 334.07C443.331 334.186 445.192 334.427 447.03 334.79C446.94 335.45 446.85 336.08 446.75 336.71Z" fill="black"/>
<path d="M247.9 349.43V368.25C244.36 368.57 244.35 368.57 244.31 364.43C244.31 362.21 244.31 359.98 244.31 357.76L243.02 357.56C242.02 360.28 241.18 363.04 240.02 365.67C239.308 366.857 238.444 367.946 237.45 368.91C236.45 367.78 235.14 366.81 234.54 365.5C233.39 362.97 232.65 360.26 231.74 357.63L230.32 357.69C230.32 360.48 230.49 363.29 230.24 366.06C230.15 367.06 229.05 367.93 228.41 368.87C227.75 367.94 226.54 367.04 226.51 366.09C226.33 360.62 226.42 355.09 226.42 349.24L232.54 348.91L237.4 362.47C238.77 358.8 240.18 356.21 240.67 353.47C241.45 349 243.83 348.2 247.9 349.43Z" fill="black"/>
<path d="M261.74 369.13C255.88 369.13 252.04 365.13 251.99 358.98C251.99 352.64 255.99 348.15 261.72 348.08C267.29 348.02 271.79 352.74 271.85 358.71C271.91 364.91 267.79 369.15 261.74 369.13ZM267.36 358.75C267.36 354.34 265.43 351.93 261.91 351.87C258.39 351.81 255.84 354.66 256.01 358.93C256.15 362.54 257.39 365.54 261.57 365.93C265 366.18 267.37 363.16 267.36 358.75Z" fill="black"/>
<path d="M330 369.35C329.25 368.24 328 367.2 327.83 366.01C327.08 360.83 324.12 359.9 319.83 361.2C317.3 363.2 321.61 368.76 315.3 368.95V349C319.22 349 323 348.87 326.76 349C330.52 349.13 332.31 352 331.15 354.75C329.61 358.41 330.5 361.44 331.26 364.75C331.428 365.895 331.504 367.052 331.49 368.21L330 369.35ZM319.21 358.79C321.811 358.09 324.372 357.245 326.88 356.26C327.23 356.11 327.08 353.38 326.67 353.26C324.219 352.543 321.728 351.972 319.21 351.55V358.79Z" fill="black"/>
<path d="M311 358.61C311.06 365.23 307.37 369.17 301.16 369.13C295.22 369.13 291.53 365.13 291.54 358.83C291.55 352.53 295.34 348.27 300.94 348.08C306.84 347.88 310.94 352.18 311 358.61ZM307 358.93C307.06 354.58 304.81 351.84 301.19 351.87C297.57 351.9 294.99 354.87 295.36 358.96C295.67 362.33 296.73 365.59 300.99 365.9C304.4 366.16 306.94 363.15 307 358.93Z" fill="black"/>
<path d="M431.439 362.59C432.729 363.13 434.009 363.7 435.319 364.18C437.024 364.936 438.809 365.496 440.64 365.85C441.39 365.94 443.019 364.63 442.969 364.05C442.908 363.451 442.717 362.872 442.41 362.354C442.103 361.836 441.686 361.391 441.189 361.05C439.619 360.2 437.43 360.36 436.05 359.35C434.22 358.02 431.58 355.82 431.75 354.25C431.96 352.25 434.25 349.7 436.28 348.76C440.78 346.67 445.08 349.01 447.02 354.76L442.63 353.27C441.04 352.621 439.393 352.125 437.709 351.79C437.139 351.71 435.96 352.89 435.87 353.6C435.898 354.053 436.039 354.491 436.28 354.875C436.521 355.26 436.854 355.577 437.25 355.8C439.53 356.72 442.04 357.12 444.25 358.1C447.78 359.64 449.25 364.01 446.4 366.1C443.63 367.991 440.319 368.928 436.969 368.77C434.669 368.65 432.5 366.05 430.27 364.56L431.439 362.59Z" fill="black"/>
<path d="M428.68 365.85C426.19 369.23 421.68 369.71 413.29 368.38V349C417.64 349 421.9 349 426.16 349.06C426.75 349.06 427.32 349.87 427.9 350.31C427.3 350.9 426.75 351.91 426.08 352.01C424.28 352.26 422.42 352.01 420.59 352.15C417.28 352.34 417.29 352.38 417.77 356.82L426.89 357.27C426.97 357.9 427.06 358.53 427.14 359.16C425.44 359.44 423.76 359.8 422.05 360C419.9 360.26 417.05 359.18 417.17 363.09C417.3 366.62 419.91 365.73 421.91 365.83C423.91 365.93 425.81 365.85 428.68 365.85Z" fill="black"/>
<path d="M353.15 355.76C350.93 354.68 349.39 354.2 348.15 353.28C345.23 351.1 342.6 351.28 340.29 354C337.83 356.94 338.42 362.73 341.42 364.83C344.42 366.93 346.92 366.16 348.95 363.05C349.58 362.1 351.01 361.67 352.42 360.78C352.65 365.96 350.42 368.58 346.1 369.1C340.47 369.78 336.01 366.67 335.1 361.42C333.92 354.85 337.01 349.51 342.74 348.25C347.3 347.24 351.35 349.75 353.15 355.76Z" fill="black"/>
<path d="M392.15 360.37C391.68 366.37 388.95 368.56 384.78 369.07C379.51 369.72 375.29 366.85 374.17 362.14C372.74 356.14 375.12 350.77 380.07 348.86C385.02 346.95 389.07 348.61 391.51 355.11C390.08 354.57 388.39 354.34 387.25 353.42C384.39 351.13 381.76 351.17 379.33 353.76C376.9 356.35 377.38 362.55 380.16 364.66C382.94 366.77 385.58 366.41 387.76 363.28C388.48 362.25 390 361.76 392.15 360.37Z" fill="black"/>
<path d="M272.88 349.4H289.52L289.92 350.89L283.84 352.99V368.37L282.31 369.29C281.36 368.29 279.97 367.35 279.58 366.13C279.1 364.63 279.49 362.85 279.45 361.19C279.33 356.95 281.26 351.47 273.73 351.59C273.52 351.59 273.3 350.52 272.88 349.4Z" fill="black"/>
<path d="M354.7 349.39C361.19 347.39 360.46 354.11 363.7 355.8C367.08 354.37 366.2 347.46 372.7 349.45C371.18 351.98 369.44 354.21 368.44 356.73C367.19 359.88 366.63 363.29 365.6 366.53C365.243 367.476 364.573 368.27 363.7 368.78C363.42 368.95 361.7 367.78 361.81 367.3C362.79 360.1 357.45 355.39 354.7 349.39Z" fill="black"/>
<path d="M397.44 348.64C398.34 349.71 399.88 350.69 400.02 351.85C400.37 354.822 400.4 357.822 400.11 360.8C399.77 364.66 401.11 366.44 405.11 365.88C406.762 365.641 408.448 365.892 409.96 366.6C406.05 370.55 401.19 368.14 396.41 369.12V349.56L397.44 348.64Z" fill="black"/>
<path d="M454.72 267.82C450.43 267.96 446.12 263.71 446.08 259.3C446.135 257.134 446.997 255.067 448.498 253.503C449.998 251.94 452.028 250.994 454.19 250.85C456.363 250.803 458.467 251.607 460.055 253.091C461.643 254.574 462.589 256.619 462.69 258.79C462.798 261.036 462.026 263.236 460.538 264.923C459.05 266.609 456.963 267.648 454.72 267.82ZM451.2 253.6C447.43 256.79 446.71 260.19 449.26 263.4C451.81 266.61 454.79 267.08 458.05 264.95C461.48 262.71 462.42 259.41 460.28 255.87C458.14 252.33 454.92 251.13 451.09 253.75L451.2 253.6Z" fill="black"/>
<path d="M242.32 77H267.8V184.73H242.55C242.48 183.03 242.34 181.27 242.33 179.51C242.33 168.18 242.25 156.85 242.33 145.51C242.33 141.72 240.76 139.93 237.04 139.93H210.04C205.7 139.93 204.37 142.33 204.42 146.35C204.53 157.35 204.42 168.35 204.42 179.35V184.83H179.35V77.3H204.51C204.51 86.9133 204.51 96.5333 204.51 106.16C204.51 115.16 205.2 115.89 214.09 115.93C221.25 115.93 228.41 115.93 235.58 115.93C240.19 115.93 242.52 114.07 242.39 109.01C242.14 98.53 242.32 88.06 242.32 77Z" fill="black"/>
<path d="M451.09 253.75C451.63 254.084 452.226 254.318 452.85 254.44C456.56 254.44 459.11 255.18 457.61 259.85C457.27 260.93 457.86 262.32 458.11 264.33L454.26 259.95L452.14 263.85L451.14 263.69C451.14 260.33 451.14 256.98 451.14 253.61L451.09 253.75Z" fill="black"/>
</svg>
