<svg width="471" height="137" viewBox="0 0 471 137" fill="none" xmlns="http://www.w3.org/2000/svg">
<path d="M387.98 134.727C389.58 123.007 391.18 111.257 392.98 98.0371C389.92 100.527 387.98 102.037 386.18 103.567C374.56 113.307 362.99 123.107 351.29 132.757C349.74 134.037 347.58 135.317 345.68 135.337C328.68 135.537 311.68 135.447 294.68 135.417C293.921 135.339 293.168 135.201 292.43 135.007C294.43 123.117 296.43 111.377 298.71 98.0671C296.4 99.8871 295.17 100.757 294.05 101.747C282.05 112.297 270.12 122.947 257.98 133.337C256.001 134.968 253.543 135.906 250.98 136.007C206.48 136.157 161.98 136.087 117.48 136.197C116.105 136.284 114.731 136.02 113.485 135.431C112.24 134.841 111.165 133.945 110.36 132.827C102.07 122.607 93.57 112.557 85.13 102.457C84.13 101.227 83.01 100.067 81.55 98.4571C76.64 110.057 71.83 120.997 67.42 132.097C66.15 135.277 64.61 136.257 61.25 136.237C41.09 136.067 20.93 136.147 0 136.147C1.32 132.867 2.39004 130.017 3.60004 127.227C16.9 96.7471 30.28 66.3071 43.44 35.7671C45.01 32.1271 46.96 31.0571 50.85 31.0971C70.5 31.3171 90.16 31.2071 110.78 31.2071L94.16 69.7571L95.04 70.5571C99.47 67.2671 103.92 63.9871 108.33 60.6771C120.59 51.4771 132.8 42.2171 145.12 33.0971C146.553 32.0205 148.271 31.3909 150.06 31.2871C163.38 31.1371 176.71 31.2071 190.64 32.1471L139.49 72.5071L171.49 110.327C184.1 79.0871 196.33 48.8271 208.94 17.6471H115.69C118.03 11.6471 119.81 6.51708 122.14 1.64708C122.64 0.647084 125.14 0.0870771 126.76 0.0770771C141.76 -0.0329229 156.76 0.00710029 171.76 0.00710029H375.87C374.67 5.5471 373.87 10.5971 372.32 15.4371C371.99 16.5071 369.22 17.3771 367.57 17.4371C340.74 17.5571 313.91 17.5171 287.07 17.5171C275.07 17.5171 275.26 17.5771 271.5 28.6871C265.1 47.5771 258.5 66.3971 251.97 85.2471C251.777 85.7265 251.686 86.2411 251.703 86.7577C251.72 87.2743 251.845 87.7816 252.07 88.2471C256.21 84.4371 260.41 80.6771 264.49 76.7971C279.6 62.4771 294.64 48.0871 309.81 33.7971C311.182 32.4229 312.98 31.5556 314.91 31.3371C332.74 31.1771 350.57 31.2571 368.4 31.2871C369.015 31.3863 369.615 31.5575 370.19 31.7971C367.49 44.3971 364.8 56.9771 361.78 71.0771C370.52 63.8771 378.06 57.6771 385.6 51.4471C392.91 45.4471 400.18 39.2971 407.6 33.3171C408.791 32.2255 410.289 31.5271 411.89 31.3171C431.04 31.1871 450.18 31.2271 470.12 31.2271C468.7 38.1071 467.42 44.5471 466.04 50.9571C460.21 77.9571 454.4 104.957 448.4 131.957C448.09 133.337 446.09 135.367 444.87 135.377C426.54 135.577 408.2 135.497 389.87 135.447C389.211 135.291 388.576 135.049 387.98 134.727Z" fill="black"/>
</svg>
