<svg width="512" height="228" viewBox="0 0 512 228" fill="none" xmlns="http://www.w3.org/2000/svg">
<path d="M199.315 83.2188C211.717 71.5965 234.517 70.1451 249.043 80.0993C257.708 86.0133 266.308 91.9273 274.854 97.9605C277.67 99.9535 279.999 100.452 282.555 96.3249L199.467 38.9936C222.31 28.3895 243.778 16.5506 262.723 0L325.134 43.0121C318.278 51.8615 300.222 56.5623 287.798 52.5763C283.708 51.1921 279.824 49.261 276.251 46.8356C267.51 41.0732 258.921 35.0617 250.461 28.9202C247.32 26.6456 245.338 27.3605 243.042 30.8374L324.484 87.6164C310.165 95.8592 295.867 103.799 281.895 112.269C275.916 115.887 270.673 120.728 264.922 124.758C263.644 125.657 261.022 126.35 260.026 125.668C239.749 111.792 219.646 97.7114 199.532 83.7171C199.412 83.6304 199.391 83.3921 199.315 83.2188Z" fill="black"/>
<path d="M0.285246 202.236C10.6077 202.236 21.0385 202.171 31.4584 202.344C32.1412 202.46 32.7939 202.711 33.3781 203.083C33.9622 203.455 34.4659 203.941 34.8595 204.51C39.8312 211.518 46.7743 212.147 54.1614 210.197C56.2519 209.645 59.0464 206.85 59.1222 204.976C59.1981 203.102 56.566 200.005 54.573 199.463C49.4063 198.066 43.9039 198.012 38.6073 197.015C30.332 195.444 21.9917 194.004 13.9438 191.599C6.26425 189.325 1.49837 183.833 0.880968 175.46C0.187749 166.188 4.00049 158.736 12.2216 155.054C34.0039 145.305 56.0569 146.031 77.5683 156.137C83.6448 158.996 87.1759 164.64 88.0858 172.297C86.5292 172.603 84.9559 172.816 83.3741 172.937C78.1425 173.002 72.9 172.861 67.6684 172.937C61.906 173.077 56.7718 173.067 52.1792 167.943C48.1282 163.437 41.6184 163.416 35.9319 165.235C33.7655 165.918 31.0144 168.42 30.8411 170.304C30.6894 171.918 33.5923 174.984 35.5853 175.428C42.9399 177.074 50.5761 177.518 57.9416 179.132C64.9715 180.574 71.8588 182.64 78.5215 185.306C85.7678 188.339 90.3712 193.971 90.4362 202.442C90.4362 211.248 86.1036 217.747 78.4024 220.671C70.365 223.753 61.9555 225.76 53.3923 226.639C38.9647 227.982 24.5154 226.986 10.9327 221.05C2.72236 217.617 -1.12286 210.706 0.285246 202.236Z" fill="black"/>
<path d="M434.554 187.278L475.281 225.329C462.868 225.329 451.939 225.415 441.021 225.231C439.459 224.975 438.025 224.214 436.937 223.065C429.637 216.36 422.445 209.536 415.209 202.756C413.975 201.597 412.696 200.492 410.238 198.293V224.874H383.094C382.985 223.336 382.78 221.765 382.78 220.195C382.78 199.279 382.877 178.363 382.682 157.437C382.682 152.736 383.614 150.548 388.921 150.938C395.55 151.425 402.233 151.057 409.913 151.057V176.164L411.451 176.728C418.21 170.933 425.304 165.495 431.63 159.256C437.761 153.201 444.26 149.995 453.131 150.905C460.431 151.653 467.872 151.057 476.819 151.057L434.554 187.278Z" fill="black"/>
<path d="M236.532 207.543H247.039C255.877 207.543 264.716 207.641 273.543 207.543C276.717 207.489 278.212 208.464 278.082 211.876C277.909 216.144 278.082 220.433 278.082 225.069H193.802C193.054 217.487 191.776 210.479 199.217 204.272C210.265 195.044 220.317 184.624 230.78 174.691C232.167 173.37 233.445 171.929 236.023 169.275H195.145V151.414H278.006C278.753 159.31 279.338 166.297 272.005 172.341C261.033 181.385 251.014 191.578 240.594 201.326C238.969 202.842 237.496 204.575 235.958 206.168L236.532 207.543Z" fill="black"/>
<path d="M98.2133 151.317H123.83V168.756C123.83 178.125 123.83 187.505 123.83 196.918C123.83 203.72 126.971 208.063 133.578 209.114C138.375 209.878 143.263 209.878 148.06 209.114C154.927 208.031 157.808 203.969 157.808 196.939C157.873 181.981 157.808 167.033 157.808 151.566H183.869C183.978 153.245 184.216 155.14 184.216 156.982C184.216 170.153 184.216 183.313 184.216 196.473C184.216 216.241 178.995 222.946 159.682 226.065C145.778 228.432 131.552 228.149 117.753 225.231C103.542 222.123 98.0833 216.339 97.5634 201.943C96.9785 185.696 97.4009 169.449 97.4226 153.277C97.6 152.592 97.8658 151.933 98.2133 151.317Z" fill="black"/>
<path d="M288.036 151.328H313.371V175.265C313.371 182.479 313.295 189.693 313.371 196.928C313.48 203.622 316.35 207.879 322.762 208.951C327.898 209.796 333.137 209.796 338.273 208.951C344.685 207.868 347.447 203.644 347.469 196.863C347.469 181.905 347.469 166.947 347.469 151.533H372.934C373.151 151.967 373.595 152.443 373.595 152.92C373.486 170.586 373.595 188.252 373.096 205.908C372.869 214.768 367.876 220.541 359.449 223.444C346.548 227.896 333.236 228.167 319.914 226.943C313.3 226.254 306.77 224.919 300.417 222.957C292.975 220.79 288.264 215.147 287.982 207.511C287.31 189.325 287.419 171.117 287.256 152.92C287.321 152.389 287.755 151.869 288.036 151.328Z" fill="black"/>
<path d="M512 151.447V225.036H485.203V151.447H512Z" fill="black"/>
</svg>
