<svg width="512" height="278" viewBox="0 0 512 278" fill="none" xmlns="http://www.w3.org/2000/svg">
<path d="M241.093 0C340.342 0.877905 419.383 24.218 491.038 72.3817C503.586 80.8126 508.93 91.9379 510.277 106.242C512.855 132.592 512.301 159.154 508.627 185.374C507.234 195.061 501.921 202.403 493.702 207.927C454.752 234.081 411.451 253.082 365.831 264.038C325.054 273.967 283.58 279.249 241.547 276.147C158.6 270.092 81.8591 245.874 13.8668 196.666C5.10293 190.324 2.69626 181.424 1.75781 171.857C-0.996994 144.688 -0.830547 117.609 4.54284 90.6664C5.21938 86.4598 6.78425 82.4456 9.13315 78.8909C11.4821 75.3362 14.5611 72.3226 18.1655 70.0508C66.6016 38.5067 119.019 16.6348 176.113 7.25025C201.935 3.07263 228.106 1.40768 241.093 0ZM407.32 55.6713C405.927 60.5452 405.231 62.9216 404.565 65.3131C394.545 101.928 384.57 138.558 374.398 175.127C373.778 177.367 371.643 180.818 370.069 180.894C354.933 181.605 339.797 182.513 324.66 181.696C313.278 181.091 308.237 172.72 311.31 162.019C317.365 141.04 323.676 120.152 329.943 99.2487C332.35 91.1962 337.678 86.3374 346.169 85.626C355.69 84.8389 365.226 84.3848 375.488 83.7339C378.515 72.7299 381.709 61.4382 384.297 49.9952C384.676 48.3756 382.299 45.0002 380.423 44.1677C351.708 31.2047 321.177 22.7158 289.892 18.996C248.903 14.2886 208.444 17.6792 168.469 27.6691C131.859 36.7327 97.7975 54.0224 68.8721 78.2243C61.425 84.4 56.0062 91.5594 55.6127 101.761C54.9618 118.608 53.1758 135.47 53.6601 152.286C53.9629 162.882 54.8257 175.112 60.2293 183.558C70.4615 199.527 87.1265 209.38 104.352 219.219C107.651 206.187 110.694 194.168 113.842 181.666C107.788 180.909 102.777 180.152 97.7976 179.713C81.7834 178.109 76.6067 171.509 80.7995 155.934C86.854 132.866 93.5594 109.935 100.265 87.0337C100.692 85.9965 101.359 85.0755 102.212 84.3465C103.064 83.6176 104.078 83.1016 105.169 82.8409C111.874 82.3414 118.64 82.6441 126.163 82.6441C119.276 107.604 112.54 131.701 105.986 155.722C118.292 160.097 121.123 158.886 124.301 147.67C129.796 128.356 135.018 108.981 140.633 89.7128C141.254 87.5937 143.661 84.5513 145.326 84.4302C153.272 83.8702 161.294 84.1881 170.119 84.1881C156.33 133.775 142.873 182.407 129.16 231.419C130.795 232.191 132.535 233.159 134.382 233.841C172.425 248.049 212.465 256.191 253.035 257.968C273.485 258.906 294.297 256.545 314.64 253.593C362.516 246.676 404.837 225.834 444.116 198.407C448.091 195.676 451.455 192.15 453.995 188.052C456.536 183.953 458.197 179.371 458.874 174.597C462.77 148.899 461.505 122.681 455.15 97.4777C453.729 91.8539 450.592 86.8123 446.174 83.0528C434.171 73.6078 421.26 65.3585 407.32 55.6713ZM339.206 160.52C343.157 160.52 345.73 160.051 348.046 160.611C355.614 162.443 358.384 158.855 359.489 151.953C360.518 145.52 362.35 139.193 363.894 132.851C366.134 123.769 368.434 114.582 370.977 104.259C365.937 104.259 362.138 103.82 358.52 104.425C356.537 104.758 353.677 106.499 353.207 108.179C348.439 125.071 344.08 142.069 339.206 160.52Z" fill="black"/>
<path d="M273.893 162.791H303.227C302.501 169.678 301.88 175.763 301.214 182.105H240.533C242.047 171.782 243.227 162.428 249.615 154.057C260.104 140.223 269.731 125.737 279.691 111.509C281.068 109.541 282.309 107.468 284.822 103.578H251.582C252.566 95.9035 253.353 89.7582 254.201 83.2647H315.972C314.459 94.511 312.264 104.91 305.543 114.4C294.812 129.491 285.14 145.384 273.893 162.791Z" fill="black"/>
<path d="M187.086 162.095H228.726C227.046 169.663 225.699 175.929 224.322 181.984C207.445 181.984 191.022 182.695 174.735 181.772C160.038 180.939 155.255 173.477 159.114 159.143C164.669 138.467 170.845 117.957 176.597 97.3264C179.291 87.6694 185.951 82.9923 195.411 82.9166C206.481 82.7922 217.548 83.2975 228.56 84.4303C237.959 85.4293 243.575 93.7542 241.683 103.033C239.13 115.566 236.234 128.033 232.995 140.435C232.541 142.221 229.286 144.325 227.228 144.431C218.412 144.975 209.57 144.975 200.754 144.431C194.276 143.946 190.961 146.05 189.917 152.392C189.151 155.676 188.207 158.915 187.086 162.095ZM196.955 124.602C211.88 127.19 215.467 123.618 214.271 107.77C200.891 105.349 199.831 106.348 196.955 124.602Z" fill="black"/>
<path d="M386.25 182.468C392.047 159.9 397.587 138.331 403.142 116.776C404.958 109.738 407.168 102.775 408.591 95.6613C409.545 90.9237 411.891 89.6068 416.401 89.8339C421.351 90.1668 426.331 89.9096 432.173 89.9096C427.633 108.694 423.243 126.433 418.869 144.143C416.22 154.89 413.193 165.546 410.937 176.368C409.984 180.909 408.288 182.877 403.52 182.544C398.283 182.135 392.986 182.468 386.25 182.468Z" fill="black"/>
</svg>
