<svg xmlns="http://www.w3.org/2000/svg"  viewBox="0 0 64 64" width="64px" height="64px"><linearGradient id="Q2RM1AeDjdzG8AMFbEaU3a" x1="26" x2="26" y1="15.875" y2="22.062" gradientUnits="userSpaceOnUse" spreadMethod="reflect"><stop offset="0" stop-color="#6dc7ff"/><stop offset="1" stop-color="#e6abff"/></linearGradient><path fill="url(#Q2RM1AeDjdzG8AMFbEaU3a)" d="M14 16H38V22H14z"/><linearGradient id="Q2RM1AeDjdzG8AMFbEaU3b" x1="32" x2="32" y1="7" y2="56.303" gradientUnits="userSpaceOnUse" spreadMethod="reflect"><stop offset="0" stop-color="#1a6dff"/><stop offset="1" stop-color="#c822ff"/></linearGradient><path fill="url(#Q2RM1AeDjdzG8AMFbEaU3b)" d="M53,20h-7v-7c0-2.761-2.239-5-5-5H11c-2.761,0-5,2.239-5,5v38c0,2.761,2.239,5,5,5h30 c2.761,0,5-2.238,5-5v-5h7c2.761,0,5-2.238,5-5V25C58,22.239,55.761,20,53,20z M44,51c0,1.657-1.343,3-3,3h-3.382l-0.448-0.895 C36.832,52.428,36.14,52,35.383,52H16.616c-0.756,0-1.448,0.427-1.786,1.104L14.382,54H11c-1.657,0-3-1.343-3-3V13 c0-1.657,1.343-3,3-3h30c1.657,0,3,1.343,3,3v7h-4v-3c0-1.657-1.343-3-3-3H15c-1.657,0-3,1.343-3,3v4c0,1.657,1.343,3,3,3h17.101 C32.035,24.5,32,24.658,32,25v16c0,2.761,2.239,5,5,5h7V51z M38,17v3h-1c-1.627,0-3.061,1-3.974,2H15c-0.552,0-1-0.448-1-1v-4 c0-0.552,0.448-1,1-1h22C37.552,16,38,16.448,38,17z M56,41c0,1.657-1.343,3-3,3h-7h-2h-7c-1.657,0-3-1.343-3-3V25 c0-1.657,1.343-3,3-3h16c1.657,0,3,1.343,3,3V41z"/><linearGradient id="Q2RM1AeDjdzG8AMFbEaU3c" x1="40" x2="40" y1="7" y2="56.303" gradientUnits="userSpaceOnUse" spreadMethod="reflect"><stop offset="0" stop-color="#1a6dff"/><stop offset="1" stop-color="#c822ff"/></linearGradient><path fill="url(#Q2RM1AeDjdzG8AMFbEaU3c)" d="M41 24L39 24 39 27 36 27 36 29 39 29 39 32 41 32 41 29 44 29 44 27 41 27z"/><linearGradient id="Q2RM1AeDjdzG8AMFbEaU3d" x1="40" x2="40" y1="7" y2="56.303" gradientUnits="userSpaceOnUse" spreadMethod="reflect"><stop offset="0" stop-color="#1a6dff"/><stop offset="1" stop-color="#c822ff"/></linearGradient><path fill="url(#Q2RM1AeDjdzG8AMFbEaU3d)" d="M36 37H44V39H36z"/><linearGradient id="Q2RM1AeDjdzG8AMFbEaU3e" x1="50" x2="50" y1="7" y2="56.303" gradientUnits="userSpaceOnUse" spreadMethod="reflect"><stop offset="0" stop-color="#1a6dff"/><stop offset="1" stop-color="#c822ff"/></linearGradient><path fill="url(#Q2RM1AeDjdzG8AMFbEaU3e)" d="M46 27H54V29H46z"/><linearGradient id="Q2RM1AeDjdzG8AMFbEaU3f" x1="50" x2="50" y1="7" y2="56.303" gradientUnits="userSpaceOnUse" spreadMethod="reflect"><stop offset="0" stop-color="#1a6dff"/><stop offset="1" stop-color="#c822ff"/></linearGradient><path fill="url(#Q2RM1AeDjdzG8AMFbEaU3f)" d="M49 24H51V26H49z"/><linearGradient id="Q2RM1AeDjdzG8AMFbEaU3g" x1="50" x2="50" y1="7" y2="56.303" gradientUnits="userSpaceOnUse" spreadMethod="reflect"><stop offset="0" stop-color="#1a6dff"/><stop offset="1" stop-color="#c822ff"/></linearGradient><path fill="url(#Q2RM1AeDjdzG8AMFbEaU3g)" d="M49 30H51V32H49z"/><linearGradient id="Q2RM1AeDjdzG8AMFbEaU3h" x1="50" x2="50" y1="7" y2="56.303" gradientUnits="userSpaceOnUse" spreadMethod="reflect"><stop offset="0" stop-color="#1a6dff"/><stop offset="1" stop-color="#c822ff"/></linearGradient><path fill="url(#Q2RM1AeDjdzG8AMFbEaU3h)" d="M52.121 34.465L50 36.586 47.879 34.465 46.465 35.879 48.586 38 46.465 40.121 47.879 41.535 50 39.414 52.121 41.535 53.535 40.121 51.414 38 53.535 35.879z"/><linearGradient id="Q2RM1AeDjdzG8AMFbEaU3i" x1="16" x2="16" y1="7" y2="56.303" gradientUnits="userSpaceOnUse" spreadMethod="reflect"><stop offset="0" stop-color="#1a6dff"/><stop offset="1" stop-color="#c822ff"/></linearGradient><path fill="url(#Q2RM1AeDjdzG8AMFbEaU3i)" d="M20,30c0-1.105-0.895-2-2-2h-4c-1.105,0-2,0.895-2,2v4c0,1.105,0.895,2,2,2h4 c1.105,0,2-0.895,2-2V30z M18,34h-4v-4h4V34z"/><linearGradient id="Q2RM1AeDjdzG8AMFbEaU3j" x1="26" x2="26" y1="7" y2="56.303" gradientUnits="userSpaceOnUse" spreadMethod="reflect"><stop offset="0" stop-color="#1a6dff"/><stop offset="1" stop-color="#c822ff"/></linearGradient><path fill="url(#Q2RM1AeDjdzG8AMFbEaU3j)" d="M30,30c0-1.105-0.895-2-2-2h-4c-1.105,0-2,0.895-2,2v4c0,1.105,0.895,2,2,2h4 c1.105,0,2-0.895,2-2V30z M28,34h-4v-4h4V34z"/><linearGradient id="Q2RM1AeDjdzG8AMFbEaU3k" x1="16" x2="16" y1="7" y2="56.303" gradientUnits="userSpaceOnUse" spreadMethod="reflect"><stop offset="0" stop-color="#1a6dff"/><stop offset="1" stop-color="#c822ff"/></linearGradient><path fill="url(#Q2RM1AeDjdzG8AMFbEaU3k)" d="M20,40c0-1.105-0.895-2-2-2h-4c-1.105,0-2,0.895-2,2v4c0,1.105,0.895,2,2,2h4 c1.105,0,2-0.895,2-2V40z M18,44h-4v-4h4V44z"/><linearGradient id="Q2RM1AeDjdzG8AMFbEaU3l" x1="26" x2="26" y1="7" y2="56.303" gradientUnits="userSpaceOnUse" spreadMethod="reflect"><stop offset="0" stop-color="#1a6dff"/><stop offset="1" stop-color="#c822ff"/></linearGradient><path fill="url(#Q2RM1AeDjdzG8AMFbEaU3l)" d="M30,40c0-1.105-0.895-2-2-2h-4c-1.105,0-2,0.895-2,2v4c0,1.105,0.895,2,2,2h4 c1.105,0,2-0.895,2-2V40z M28,44h-4v-4h4V44z"/><linearGradient id="Q2RM1AeDjdzG8AMFbEaU3m" x1="18" x2="18" y1="7" y2="56.303" gradientUnits="userSpaceOnUse" spreadMethod="reflect"><stop offset="0" stop-color="#1a6dff"/><stop offset="1" stop-color="#c822ff"/></linearGradient><path fill="url(#Q2RM1AeDjdzG8AMFbEaU3m)" d="M16 18H20V20H16z"/><linearGradient id="Q2RM1AeDjdzG8AMFbEaU3n" x1="24" x2="24" y1="7" y2="56.303" gradientUnits="userSpaceOnUse" spreadMethod="reflect"><stop offset="0" stop-color="#1a6dff"/><stop offset="1" stop-color="#c822ff"/></linearGradient><path fill="url(#Q2RM1AeDjdzG8AMFbEaU3n)" d="M22 18H26V20H22z"/><linearGradient id="Q2RM1AeDjdzG8AMFbEaU3o" x1="30" x2="30" y1="7" y2="56.303" gradientUnits="userSpaceOnUse" spreadMethod="reflect"><stop offset="0" stop-color="#1a6dff"/><stop offset="1" stop-color="#c822ff"/></linearGradient><path fill="url(#Q2RM1AeDjdzG8AMFbEaU3o)" d="M28 18H32V20H28z"/></svg>