<svg width="32" height="36" viewBox="0 0 32 36" fill="none" xmlns="http://www.w3.org/2000/svg">
<g clip-path="url(#clip0_601_24745)">
<mask id="mask0_601_24745" style="mask-type:alpha" maskUnits="userSpaceOnUse" x="0" y="0" width="32" height="36">
<path d="M32 35.2052H0V0.00518417H32V35.2052Z" fill="black"/>
</mask>
<g mask="url(#mask0_601_24745)">
<path fill-rule="evenodd" clip-rule="evenodd" d="M15.2832 34.788C10.8091 32.7069 6.92314 29.2963 4.34064 25.1857C1.76437 21.0871 0.410447 16.3401 0.0791967 10.2454C-0.0263042 8.30104 -0.0263042 5.87566 0.0786294 2.83202L0.126275 1.44292L1.49722 1.2132C6.32133 0.408333 11.201 -5.72205e-05 16.0002 -5.72205e-05C20.7993 -5.72205e-05 25.6785 0.408333 30.502 1.2132L31.8729 1.44292L31.9212 2.83202C32.0267 5.87622 32.0267 8.30161 31.9206 10.2454C31.5888 16.3401 30.2354 21.0871 27.6592 25.1857C25.0772 29.2963 21.1901 32.7069 16.7166 34.788L16.0002 35.1209L15.2832 34.788Z" fill="black"/>
</g>
<path fill-rule="evenodd" clip-rule="evenodd" d="M16.0001 1.00137C11.162 1.00137 6.14006 1.41303 1.04299 2.28962C0.966894 4.3257 0.880157 7.47287 1.02587 10.1435C1.35038 16.0979 2.66583 20.7195 5.16574 24.6881C7.65814 28.6452 11.518 32.0477 16.0001 34.0685C20.4823 32.0477 24.3417 28.6452 26.8341 24.6881C29.3344 20.7195 30.6494 16.0979 30.9742 10.1435C31.1193 7.47287 31.033 4.3257 30.9569 2.28962C25.8598 1.41303 20.8382 1.00137 16.0001 1.00137ZM16.0001 1.575C20.7693 1.575 25.6118 1.97913 30.3994 2.77675C30.5045 5.79733 30.5044 8.20067 30.4 10.1125C30.0809 15.9654 28.7935 20.5002 26.3475 24.3831C23.9018 28.2657 20.2342 31.4728 16.0001 33.4377C11.7657 31.4728 8.09839 28.2657 5.65274 24.3831C3.20675 20.5002 1.91896 15.9654 1.60024 10.1125C1.49582 8.20067 1.49576 5.79733 1.60087 2.77675C6.38843 1.97913 11.2306 1.575 16.0001 1.575Z" fill="white"/>
<path fill-rule="evenodd" clip-rule="evenodd" d="M5.99393 4.30712C5.94697 4.30597 5.89695 4.30818 5.84406 4.31362C5.13565 4.3875 4.42826 4.46881 3.72156 4.558V6.64512C3.84406 6.62947 3.96693 6.61448 4.08943 6.5995V5.95375C4.67363 5.88226 5.25883 5.81619 5.84406 5.75525C6.26719 5.71133 6.50368 5.53473 6.50368 5.09762V4.86137C6.50368 4.48755 6.32266 4.31518 5.99393 4.30712ZM5.95331 4.639C6.04851 4.62913 6.14406 4.70134 6.14406 4.797V5.21975C6.14406 5.31064 6.04851 5.39754 5.95331 5.40775C5.33157 5.47141 4.71014 5.54155 4.08943 5.61712V4.84875C4.71014 4.77283 5.33157 4.703 5.95331 4.639Z" fill="white"/>
<path fill-rule="evenodd" clip-rule="evenodd" d="M15.3212 3.78952C15.9836 3.78475 16.6459 3.78713 17.3079 3.79599V4.13233C16.6002 4.12313 15.8921 4.12109 15.1841 4.12688C15.0882 4.1279 14.9923 4.21062 14.9923 4.30628V5.35207C14.9923 5.44772 15.0882 5.54236 15.1841 5.54134C15.8191 5.53589 16.4538 5.53692 17.0888 5.54407V4.97998C16.7203 4.9759 16.3518 4.97386 15.9836 4.9742V4.63752C16.4722 4.63752 16.9609 4.64126 17.4495 4.64841V5.88517C16.763 5.87496 16.0764 5.87224 15.3898 5.87632C14.8872 5.87973 14.6316 5.79326 14.6316 5.30645V4.39684C14.6316 3.94237 14.8599 3.79293 15.3212 3.78952V3.78952Z" fill="white"/>
<path fill-rule="evenodd" clip-rule="evenodd" d="M22.4947 4.00775C22.0987 4.00887 21.9207 4.1338 21.9207 4.54338V5.47538C21.9207 5.97137 22.1762 6.06818 22.6778 6.10188C23.1385 6.1332 23.5984 6.16784 24.0588 6.20563C24.5553 6.24648 24.815 6.16202 24.815 5.69325V4.76125C24.815 4.28364 24.5143 4.15595 24.0588 4.1185C23.5984 4.08037 23.1385 4.04604 22.6778 4.01438C22.6122 4.00995 22.5512 4.00759 22.4947 4.00775ZM22.4728 4.33738C23.0703 4.37653 23.6671 4.42149 24.2639 4.47188C24.3595 4.48005 24.455 4.57019 24.455 4.67913V5.71175C24.455 5.80707 24.3595 5.89455 24.2639 5.88638C23.6671 5.83599 23.0703 5.79099 22.4728 5.7515C22.3632 5.74401 22.2809 5.64366 22.2809 5.548V4.51575C22.2809 4.40648 22.3632 4.32989 22.4728 4.33738Z" fill="white"/>
<path fill-rule="evenodd" clip-rule="evenodd" d="M13.7277 3.81348V5.32326C13.7277 5.80088 13.4763 5.90573 12.9695 5.92139C12.5283 5.935 12.0871 5.95135 11.6459 5.97109C11.1756 5.9922 10.8883 5.90301 10.8883 5.43016V3.92037L11.2487 3.90199V5.47543C11.2487 5.57109 11.3309 5.64905 11.4401 5.64394C12.0185 5.61705 12.5965 5.59526 13.1749 5.57858C13.2848 5.57552 13.3578 5.49178 13.3578 5.39612V3.82267C13.481 3.81927 13.6042 3.81621 13.7277 3.81348V3.81348Z" fill="white"/>
<path fill-rule="evenodd" clip-rule="evenodd" d="M18.3516 3.81532C19.2401 3.83643 20.1284 3.86979 21.0166 3.91541V4.25175C20.2488 4.2126 19.4807 4.1823 18.7123 4.16119V4.6749C19.3958 4.69396 20.0789 4.71983 20.7617 4.75285V5.08953C20.0789 5.05651 19.3958 5.0303 18.7123 5.01157V5.57532C19.4807 5.59642 20.2488 5.62672 21.0166 5.66621V6.00255C20.1284 5.95727 19.2401 5.92391 18.3516 5.90247V3.81532Z" fill="white"/>
<path fill-rule="evenodd" clip-rule="evenodd" d="M9.98434 3.97161V4.30795C9.21689 4.35527 8.44979 4.41144 7.68337 4.47646V4.9905C8.36516 4.93229 9.0473 4.88157 9.72978 4.83799V5.17467C9.0473 5.21825 8.36516 5.26897 7.68337 5.32684V5.89092C8.44979 5.82556 9.21689 5.76939 9.98434 5.72241V6.05875C9.09678 6.11322 8.2099 6.17994 7.32336 6.25858V4.1711C8.2099 4.09246 9.09678 4.02608 9.98434 3.97161Z" fill="white"/>
<path fill-rule="evenodd" clip-rule="evenodd" d="M25.4828 4.24593C26.4157 4.33648 27.348 4.44065 28.2786 4.55775V4.89443C27.8762 4.84371 27.4732 4.79537 27.0699 4.74975V6.50056C26.9474 6.4866 26.8249 6.47298 26.7017 6.45937V4.70856C26.296 4.66397 25.8892 4.62209 25.4828 4.58261V4.24593Z" fill="white"/>
<path fill-rule="evenodd" clip-rule="evenodd" d="M13.1389 8.24003C14.8519 8.0899 17.1699 8.04905 19.3842 8.2162C19.5101 8.22573 19.6326 8.25535 19.749 8.30437C20.4745 8.60871 21.7616 9.27458 23.1928 10.0913C23.2559 10.1273 23.3153 10.1696 23.3699 10.2176C23.749 10.5508 24.7096 11.5313 24.7096 11.5313L24.41 11.472C24.368 11.4638 24.3287 11.4475 24.2933 11.4237C23.6872 11.0176 22.8024 10.4889 22.0609 10.1161C21.9728 10.0722 21.8776 10.0439 21.7797 10.0337C21.419 9.99526 20.9314 9.96155 20.6123 9.94862C20.455 9.94215 20.3479 9.91594 20.194 9.83798C19.8998 9.68921 19.1873 9.36683 18.8324 9.23168C18.6806 9.17381 18.6031 9.1602 18.4543 9.16258C17.8445 9.17143 16.4554 9.21568 15.7459 9.2596C15.7213 9.26096 15.6978 9.25992 15.6739 9.25619L15.3358 9.20342C16.2946 9.03866 18.6649 8.82793 19.6459 8.77653L19.2467 8.64342C19.1696 8.61789 19.0894 8.60427 19.0078 8.60223C18.7948 8.59717 18.3212 8.58773 17.7065 8.5869L17.4965 8.58696C16.5653 8.58877 15.3672 8.61156 14.2622 8.69448C14.1656 8.70163 14.0715 8.72478 13.9827 8.76393C13.5364 8.95951 12.448 9.54821 11.3564 10.1529L11.1141 10.2874C10.8319 10.4442 10.5526 10.6003 10.2875 10.7489C10.2875 10.7489 10.4236 10.5743 10.4499 10.5403C10.4731 10.5107 10.4803 10.5052 10.5117 10.4848C10.5555 10.4561 10.7053 10.3577 10.8563 10.2578L10.9681 10.1837C11.0587 10.1235 11.1397 10.0695 11.1853 10.0381C11.2078 10.0228 11.2221 10.0119 11.2504 9.99082C11.5791 9.74367 12.0977 9.30793 12.4069 9.03797C12.4769 8.97704 12.5362 8.90623 12.585 8.82725C12.685 8.66589 12.7942 8.49091 12.8614 8.39389C12.9188 8.30981 13.0167 8.25091 13.1389 8.24002V8.24003Z" fill="white"/>
<path fill-rule="evenodd" clip-rule="evenodd" d="M13.9687 9.8913C14.008 9.89098 14.0325 9.93317 14.0131 9.96687L13.1852 11.3888C13.1392 11.4726 13.062 11.5349 12.9706 11.5624L11.4183 12.0469C11.2381 12.1013 11.0859 12.1306 10.8982 12.1449C10.5539 12.1708 9.53125 12.2028 9.53125 12.2028L9.55377 12.1544C9.56435 12.1316 9.58312 12.1136 9.60632 12.1037L10.0902 11.8988C10.1264 11.8835 10.1581 11.86 10.1823 11.8297L10.9296 10.9119C10.9696 10.8629 11.0218 10.8159 11.0774 10.7866C11.5712 10.5276 12.4492 10.1384 13.0641 9.93351C13.1221 9.91411 13.2002 9.90185 13.2613 9.90117L13.9687 9.8913Z" fill="white"/>
<path fill-rule="evenodd" clip-rule="evenodd" d="M10.1053 12.4461C10.1378 12.4434 10.1685 12.4615 10.1811 12.4911C10.2238 12.5901 10.2121 12.7008 10.1709 12.7954C10.1548 12.8339 10.1053 12.8713 10.0647 12.8802L9.7252 12.9554C9.70473 12.9598 9.68596 12.9435 9.68733 12.9227L9.71906 12.5251C9.72145 12.4982 9.7426 12.4768 9.76956 12.4747L10.1053 12.4461Z" fill="white"/>
<path fill-rule="evenodd" clip-rule="evenodd" d="M17.6349 10.7671C17.6857 10.7583 17.7379 10.7654 17.7847 10.7875L18.1392 10.9567C18.174 10.9734 18.1996 11.0051 18.2088 11.0432C18.2569 11.2454 18.316 11.5133 18.3556 11.7411C18.3716 11.8357 18.3538 11.9324 18.3057 12.0158C18.159 12.2701 17.8577 12.7276 17.6891 12.9734C17.6516 13.0286 17.6471 13.0953 17.6587 13.161C17.7352 13.5824 18.0539 15.0541 18.0539 15.0541L17.8533 14.872C17.8133 14.8352 17.7871 14.7964 17.77 14.7457C17.6274 14.3293 17.3605 13.4595 17.2377 13.0364C17.2179 12.9666 17.2329 12.8921 17.2789 12.8366C17.4881 12.5833 17.7929 12.1782 17.971 11.9215C18.0208 11.8493 18.0372 11.7697 18.0078 11.7101C17.9669 11.6264 17.898 11.499 17.8318 11.3836C17.814 11.3516 17.7843 11.3278 17.7492 11.3162L17.5086 11.2393C17.4666 11.226 17.4216 11.2267 17.38 11.2417C16.8558 11.4313 16.1508 11.7047 15.7195 11.883C15.6564 11.9092 15.6304 11.9113 15.554 11.8997C15.4291 11.8813 15.0653 11.8163 14.8869 11.783C14.8548 11.7768 14.8388 11.7407 14.8551 11.7125L15.0667 11.3469C15.0954 11.2975 15.1428 11.2624 15.1988 11.2498C15.8792 11.0953 16.779 10.9176 17.6349 10.7671V10.7671Z" fill="white"/>
<path fill-rule="evenodd" clip-rule="evenodd" d="M10.2368 11.1503L10.0976 11.3212C10.0897 11.3287 10.0822 11.3358 10.0744 11.3436C9.95185 11.4338 9.43624 11.8277 9.29667 11.938C9.25709 11.9693 9.24139 11.9966 9.23218 12.0459C9.20079 12.2202 9.14858 12.5515 9.13322 12.7349C9.12879 12.7887 9.10558 12.8153 9.05064 12.8374C8.81143 12.9344 8.52787 13.0366 8.29855 13.1281C8.24942 13.1475 8.23577 13.155 8.20676 13.1772C8.1839 13.1949 7.87917 13.4662 7.87917 13.4662C7.87917 13.4662 8.54152 13.3035 8.78448 13.2486C8.84249 13.2357 8.8674 13.2391 8.92097 13.2643C8.97113 13.2875 9.05474 13.3205 9.09876 13.3365C9.16632 13.3613 9.20215 13.3603 9.27688 13.344C9.55056 13.283 10.0109 13.1741 10.2559 13.1104C10.3832 13.0774 10.4528 13.043 10.5606 12.9678C10.678 12.8864 10.9752 12.6641 10.9752 12.6641C10.9752 12.6641 10.9698 12.7033 10.9657 12.7251C10.9626 12.7438 10.9558 12.7544 10.9435 12.769C10.8831 12.8415 10.7773 12.9596 10.7248 13.0138C10.6043 13.138 10.5323 13.1823 10.3811 13.2452C9.685 13.5346 8.49545 13.984 7.60311 14.2921C7.54476 14.3125 7.51951 14.3292 7.47617 14.3734C7.42908 14.4211 7.36629 14.4905 7.36629 14.4905C7.36629 14.4905 8.09381 14.5433 8.31596 14.5688C8.38796 14.577 8.43949 14.6005 8.49443 14.6478C8.67699 14.8044 9.28132 15.425 9.46218 15.6405C9.46218 15.6405 7.74404 15.9254 6.94793 16.1225C6.84966 16.1467 6.80052 16.209 6.77834 16.2876C6.71248 16.5184 6.55722 17.2606 6.55722 17.2606C6.55722 17.2606 6.50194 17.2428 6.42482 17.1986C6.37192 17.1683 6.34497 17.1431 6.28696 17.0818C6.09859 16.8834 5.78909 16.5034 5.64031 16.2832C5.59663 16.2182 5.5782 16.1354 5.6328 16.0691C5.79421 15.8709 6.11839 15.5094 6.29719 15.3235C6.31631 15.3035 6.34053 15.2684 6.36613 15.218C6.42629 15.0988 6.5056 14.7969 6.53323 14.6878L6.54205 14.6526L6.54322 14.6478C6.54322 14.6478 6.54151 14.6488 6.53843 14.6508L6.50577 14.6713C6.46151 14.699 6.39 14.7439 6.35929 14.7632C6.31322 14.7925 6.3006 14.8051 6.28149 14.8452C6.25249 14.9058 6.20164 15.0015 6.16308 15.0679C6.15045 15.0897 6.11667 15.1234 6.09859 15.1373C5.8703 15.3113 5.61812 15.4982 5.43863 15.6241C5.42635 15.6326 5.41065 15.6289 5.40007 15.6187C5.37721 15.5959 5.28132 15.4873 5.26426 15.4617C5.24993 15.4403 5.24342 15.4202 5.24342 15.3943C5.2431 15.3491 5.24754 15.2694 5.25197 15.2102C5.25743 15.14 5.27757 15.1067 5.36322 15.0182C5.45911 14.9191 5.56352 14.8149 5.6734 14.708C5.94264 14.482 6.62239 13.9319 7.83617 13.0679C7.85903 13.0515 7.87985 13.0325 7.89657 13.0097C8.02419 12.8381 8.38624 12.3697 8.47565 12.2584C8.48828 12.2427 8.50227 12.2281 8.5183 12.2155C8.66128 12.1028 8.73192 12.0541 8.87695 11.9629C9.21511 11.7504 9.86995 11.363 10.2368 11.1503L10.2368 11.1503Z" fill="white"/>
<path fill-rule="evenodd" clip-rule="evenodd" d="M7.49252 16.9881L7.34272 18.0192L6.83325 17.4228C6.92607 17.2223 7.19735 17.033 7.49252 16.9881Z" fill="white"/>
<path fill-rule="evenodd" clip-rule="evenodd" d="M10.848 17.5352C10.5941 17.9518 10.2908 18.3944 10.0614 18.6708C10.0314 18.7069 9.99149 18.7348 9.94611 18.7518C9.6953 18.8455 9.27728 18.9864 8.96948 19.08L10.848 17.5352Z" fill="white"/>
<path fill-rule="evenodd" clip-rule="evenodd" d="M21.679 10.8406C21.8134 10.7912 21.9608 10.7946 22.0929 10.8501C23.1173 11.279 24.8398 12.288 25.7974 12.9988C25.8898 13.0676 25.9267 13.1149 25.9509 13.2259C26.1758 14.2458 26.2611 15.8223 26.1195 17.1496C26.1093 17.245 26.0901 17.3021 26.0403 17.4039C25.4336 18.6414 24.7508 19.806 24.0321 20.7043L24.0336 20.6897C24.0429 20.594 24.0945 20.0546 24.0973 19.7627C24.0976 19.7297 24.113 19.6994 24.1393 19.6793C24.2727 19.5758 24.4559 19.4288 24.5597 19.3392C24.6102 19.2957 24.6382 19.263 24.6644 19.2208C24.9572 18.7489 25.4807 17.761 25.6916 17.1667C25.7431 17.0216 25.7636 16.8681 25.7509 16.7146C25.6834 15.8863 25.553 14.7387 25.3589 13.9898C25.3258 13.8622 25.2411 13.7542 25.1234 13.694C24.9559 13.6082 24.6272 13.4588 23.8789 13.1595C23.7752 13.118 23.6783 13.0605 23.5929 12.989C23.1022 12.5777 22.3351 11.9612 21.8577 11.6065C21.7182 11.5027 21.5401 11.4649 21.3701 11.5034C21.0224 11.582 20.5798 11.6916 20.3307 11.759C20.2461 11.7818 20.2126 11.7839 20.1253 11.7737C20.0798 11.7684 20.021 11.7626 19.9592 11.757L19.8656 11.7488C19.7569 11.7396 19.6548 11.7317 19.6148 11.7287L19.597 11.7274C20.4089 11.3471 21.1899 11.0189 21.6789 10.8406L21.679 10.8406Z" fill="white"/>
<path fill-rule="evenodd" clip-rule="evenodd" d="M9.59199 16.0727C9.67252 16.0469 9.75817 16.0438 9.84007 16.0635C10.2093 16.1521 10.9907 16.343 11.5814 16.4938C11.6643 16.5149 11.7677 16.5922 11.8117 16.6654L11.9404 16.8789C11.9854 16.9538 11.9885 17.0457 11.9486 17.1233C11.8412 17.3309 11.6881 17.612 11.5262 17.9019L11.4037 18.12C11.1782 18.519 10.9537 18.904 10.8262 19.1066C10.7423 19.2404 10.6955 19.2996 10.5461 19.3524C9.96496 19.5563 9.24324 19.8 8.8143 19.9386C8.72661 19.9668 8.69692 20.02 8.71398 20.117C8.74469 20.2937 8.84365 20.8935 8.88153 21.0685C8.89552 21.1331 8.94739 21.1845 9.04362 21.1662C9.29716 21.1182 9.97213 20.9534 9.97213 20.9534C9.97213 20.9534 9.77318 21.1369 9.65409 21.2451C9.63225 21.2656 9.607 21.2805 9.57868 21.2897C9.39475 21.351 8.94568 21.4766 8.80577 21.5073C8.69658 21.5308 8.62697 21.4879 8.59898 21.3646C8.59898 21.3646 8.40755 20.5517 8.33828 20.2753C8.32736 20.2331 8.31644 20.1966 8.30313 20.1551C8.25126 19.9951 8.12671 19.6806 8.05641 19.5158C8.04822 19.4967 8.04413 19.4763 8.04445 19.4552C8.04651 19.2669 8.08132 18.8469 8.08132 18.8469C8.08132 18.8469 8.49456 19.2332 8.69453 19.3728C8.73957 19.4045 8.76653 19.4109 8.82181 19.397C9.09651 19.3265 9.72814 19.1182 10.0748 18.9888C10.154 18.9592 10.2233 18.9095 10.2772 18.8445C10.6358 18.4125 11.0856 17.7405 11.3453 17.2336C11.3811 17.1638 11.3879 17.0838 11.3654 17.0089L11.3094 16.8251C11.2931 16.7713 11.2361 16.7107 11.1835 16.6906C10.5724 16.4588 10.0905 16.2865 9.52442 16.0942L9.59199 16.0727Z" fill="white"/>
<path fill-rule="evenodd" clip-rule="evenodd" d="M20.5432 13.9934L20.7544 14.085C20.8168 14.1119 20.8738 14.1514 20.9209 14.2004C22.2159 15.5485 23.2516 16.9463 23.459 17.3146C23.499 17.3854 23.5263 17.4562 23.5362 17.5372C23.7689 19.5032 23.5689 21.5859 23.0936 23.3976C23.0506 23.561 23.0025 23.6448 22.8448 23.7629C22.3373 24.1436 21.5798 24.7507 20.8264 25.3697L20.5889 25.5653C19.6814 26.3147 18.8193 27.0485 18.4534 27.386C18.3616 27.4712 18.2814 27.5672 18.2159 27.6737C18.0443 27.9518 17.7824 28.4305 17.6538 28.6681L17.6179 28.7345C17.5921 28.7824 17.5771 28.8104 17.5771 28.8104C17.4065 28.439 17.0345 27.5328 16.9069 27.1665C16.8653 27.047 16.8578 26.9843 16.9018 26.8243C17.11 26.0649 18.0937 23.8569 18.2852 23.4575L18.2855 23.621C18.2855 23.6448 18.2818 23.6683 18.2742 23.6907C18.1879 23.9518 17.659 25.6921 17.5515 26.4468C17.5276 26.6146 17.5297 26.6599 17.5515 26.8247C17.5986 27.177 17.8098 27.8232 17.8098 27.8232C17.8098 27.8232 17.935 27.5624 18.0518 27.386C18.1091 27.2996 18.1435 27.258 18.237 27.1655C18.71 26.6989 19.5169 25.9777 20.3573 25.2524L20.6548 24.9967C21.3004 24.444 21.9449 23.9062 22.4541 23.4953C22.5865 23.3884 22.6359 23.317 22.6653 23.1141C22.8113 22.1146 22.8537 20.3205 22.7656 19.015C22.7489 18.7685 22.6687 18.5302 22.5295 18.3257C22.2101 17.8548 21.8282 17.4092 21.2492 16.837C21.1666 16.7549 21.1103 16.6501 21.0891 16.5357C20.9202 15.637 20.5431 13.9934 20.5431 13.9934H20.5432Z" fill="white"/>
<path fill-rule="evenodd" clip-rule="evenodd" d="M13.7251 14.6477C13.7251 14.6477 13.8428 15.0279 13.9563 15.4408L13.996 15.5873C14.0677 15.8563 14.1316 16.1219 14.1548 16.2899C14.1769 16.4516 14.1732 16.4952 14.1155 16.6501C13.9757 17.0211 13.7183 17.6179 13.4438 18.228L13.3254 18.4897C12.9886 19.2299 12.6476 19.945 12.482 20.2545C12.4005 20.407 12.3237 20.5064 12.1701 20.662C11.8197 21.0177 11.1488 21.6901 10.7335 22.0662C10.5827 22.2031 10.5421 22.3199 10.5114 22.4969C10.4619 22.7811 10.4127 23.2662 10.3991 23.5168C10.3872 23.737 10.423 23.8402 10.5462 24.0584C11.2781 25.3605 13.7217 28.3563 14.4179 28.9854C14.4684 29.031 14.5052 29.0616 14.6117 29.1321C14.7141 29.2002 15.0478 29.416 15.0478 29.416C15.0611 29.4252 15.0724 29.4374 15.0809 29.4514L15.2017 29.6635C15.2017 29.6635 15.1904 29.6579 15.17 29.6478L15.1179 29.622C15.0759 29.6011 15.0204 29.5736 14.9567 29.5418L14.8016 29.4644C14.5638 29.3454 14.2803 29.2022 14.1312 29.1222C14.0698 29.0892 14.0121 29.0504 13.9586 29.0058C13.1433 28.3304 10.6451 25.4147 9.91044 24.1973C9.7272 23.8933 9.70843 23.7949 9.733 23.5073C9.77907 22.9718 9.85039 22.2984 9.91283 22.0033C9.95071 21.8252 9.98995 21.7207 10.1268 21.5634C10.5866 21.0355 11.1475 20.3386 11.694 19.6234L11.8862 19.3705C12.7144 18.2735 13.4774 17.1754 13.7623 16.616C13.8275 16.4887 13.833 16.4445 13.8343 16.3243C13.8381 15.9757 13.7265 15.2969 13.6972 15.1253C13.6927 15.0984 13.6914 15.0712 13.6937 15.044L13.7251 14.6477Z" fill="white"/>
<path fill-rule="evenodd" clip-rule="evenodd" d="M15.9585 18.9626C15.9585 18.9626 16.0527 19.5199 16.0813 19.6816C16.0974 19.7731 16.1008 19.7976 16.0776 19.8875C16.0023 20.1765 15.6546 21.6997 15.3763 23.259L15.3329 23.5054C15.2192 24.1621 15.121 24.814 15.0638 25.3718C15.0313 25.6887 15.0419 25.7646 15.1259 26.0458C15.3637 26.8403 16.2434 28.9163 16.4123 29.2948C16.4311 29.3367 16.4424 29.3806 16.4478 29.4259L16.5113 29.9154C16.2294 29.4909 14.698 26.6834 14.0964 25.1287C14.0254 24.9455 14.0117 24.8553 14.0902 24.5187C14.5086 22.7324 15.6405 19.6972 15.9585 18.9626H15.9585Z" fill="white"/>
</g>
<defs>
<clipPath id="clip0_601_24745">
<rect width="32" height="35.1209" fill="white"/>
</clipPath>
</defs>
</svg>
