<svg width="33" height="17" viewBox="0 0 33 17" fill="none" xmlns="http://www.w3.org/2000/svg">
<path fill-rule="evenodd" clip-rule="evenodd" d="M19.9109 10.4551C20.1546 11.7142 19.4947 12.7601 18.9463 13.7752C18.3372 14.7197 17.332 15.5315 16.1237 15.41C13.4123 15.3694 10.7624 14.9531 8.30487 14.2116C8.19329 14.1813 8.08171 14.11 8.02063 14.0086C7.96979 13.8663 8.0411 13.7343 8.14245 13.6432C10.3867 11.8254 13.0571 10.983 15.6972 10.0992C16.6819 9.81495 17.7281 9.51024 18.8347 9.65253C19.2913 9.71361 19.7482 10.0286 19.9109 10.4551ZM29.1612 5.07364C30.4203 6.10925 31.5576 7.5209 31.1717 9.22668C30.5421 11.7449 27.8007 13.0853 25.6176 13.938C24.4294 14.3341 23.2314 14.7405 21.9317 14.8624C21.8505 14.8521 21.7184 14.8722 21.6979 14.7504L21.7283 14.6085C23.5764 12.5267 24.9774 10.1917 26.2065 7.82561C26.775 6.75929 27.3032 5.66293 27.7905 4.58637C27.8615 4.50516 27.9328 4.46455 28.014 4.43418C28.4706 4.47445 28.7958 4.83 29.1612 5.07364ZM11.4421 2.39298L11.4015 2.54516C8.73106 5.58104 6.97443 9.10452 5.30926 12.6075C4.98441 12.9123 4.66946 12.5059 4.37498 12.3738C2.89236 11.3993 1.55203 9.82519 1.93796 7.95699C2.55728 5.5203 5.06528 4.22057 7.15733 3.33749C8.39598 2.87035 9.68581 2.49466 11.0463 2.28139C11.1886 2.28105 11.3711 2.26092 11.4421 2.39298ZM24.6936 2.88024C24.8457 2.96146 25.0286 2.99182 25.1201 3.14401C25.2013 3.31667 25.0389 3.42825 24.9474 3.54017C22.8455 5.18488 20.4392 6.09902 17.9817 6.90124C16.7324 7.20595 15.4733 7.7543 14.0825 7.44958C13.7573 7.36837 13.4632 7.15511 13.2803 6.84016C12.9349 5.88575 13.4021 4.89074 13.8081 4.05815C14.3463 3.0123 15.301 1.78355 16.6209 1.76342C19.4639 1.74294 22.1446 2.16947 24.6936 2.88024ZM28.2068 2.96146C30.3596 4.13936 32.7966 6.2106 32.5427 8.97247C32.2483 11.5313 29.8621 13.3183 27.7298 14.3949C21.5051 17.37 12.7626 17.4611 6.33498 14.862C4.16172 13.9584 1.72469 12.4049 0.81055 10.0692C0.110015 8.15012 0.962736 6.14986 2.39486 4.81977C5.39013 2.0985 9.20809 1.16457 13.138 0.626113C17.4029 0.108134 21.8907 0.565034 25.7087 1.875C26.5618 2.18995 27.4046 2.53527 28.2068 2.96146Z" fill="#003984"/>
</svg>
