<svg width="33" height="18" viewBox="0 0 33 18" fill="none" xmlns="http://www.w3.org/2000/svg">
<g clip-path="url(#clip0_601_1147)">
<path d="M19.0695 9.49909L17.6745 12.2384H17.6455L17.575 9.49909H16.4082L16.3627 9.59765L16.4627 9.65869C16.5593 9.72674 16.5863 9.79579 16.5988 9.98591L16.7569 13.3101H18.0568L20.1547 9.49909H19.0695ZM14.9172 11.4719C14.7866 11.8467 14.684 12.0878 14.5324 12.2469C14.4133 12.372 14.2562 12.4616 13.8945 12.4616C13.6108 12.4616 13.4527 12.3455 13.4527 12.1259C13.4507 11.9843 13.4892 11.7691 13.6408 11.3503C13.7719 10.9761 13.8745 10.7349 14.0266 10.5758C14.1442 10.4507 14.3018 10.3607 14.664 10.3607C14.9477 10.3607 15.1053 10.4767 15.1048 10.6954C15.1078 10.839 15.0693 11.0541 14.9172 11.4719ZM14.8566 9.45205H14.7356C14.0176 9.45205 13.6073 9.64569 13.2706 10.0034C12.8518 10.4462 12.4585 11.6435 12.466 12.277C12.474 12.9229 12.8918 13.3707 13.7699 13.3707H13.8985C14.6185 13.3707 15.0288 13.1771 15.3655 12.8193C15.7838 12.3755 16.169 11.1787 16.1615 10.5458C16.153 9.90036 15.7352 9.45205 14.8566 9.45205ZM11.3313 10.8825C11.2657 11.0451 11.1937 11.0842 11.0991 11.1227C11.0356 11.1477 10.901 11.1567 10.7714 11.1567H10.2696L10.5427 10.3692H11.1491C11.3308 10.3692 11.4048 10.4637 11.4073 10.5713C11.4083 10.6399 11.3768 10.7654 11.3313 10.8825ZM11.2412 9.49909H9.59561L9.56258 9.59765L9.62913 9.6632C9.69917 9.73224 9.69667 9.8143 9.63513 9.99042L8.48536 13.3101H9.53607L9.98537 11.9923L10.3411 11.9928L10.7364 13.3101H11.7921L11.2957 11.9617C11.5839 11.9152 11.7285 11.8327 11.8731 11.7041C12.0713 11.5229 12.2084 11.2688 12.3219 10.8945C12.488 10.3517 12.3875 10.0415 12.2809 9.88234C12.1343 9.6632 11.8256 9.49909 11.2412 9.49909ZM22.2646 11.7816L22.5558 10.9846H21.2164L21.4241 10.3762H22.875L23.1937 9.49659H20.4544L20.4164 9.60866L20.4819 9.6732C20.5525 9.74175 20.5495 9.8233 20.4884 10.0004L19.3477 13.3086H21.9074L22.2166 12.4231H20.7226L20.9427 11.7816H22.2646ZM25.3382 10.8825C25.2726 11.0451 25.1996 11.0842 25.1065 11.1227C25.0415 11.1477 24.9089 11.1567 24.7793 11.1567H24.278L24.5487 10.3692H25.1561C25.3367 10.3692 25.4117 10.4637 25.4132 10.5713C25.4152 10.6399 25.3827 10.7654 25.3382 10.8825ZM25.2466 9.49909H23.6015L23.5695 9.59765L23.6355 9.6632C23.7061 9.73224 23.7026 9.8143 23.642 9.99042L22.4913 13.3101H23.5435L23.9923 11.9928H24.3475L24.7433 13.3101H25.798L25.3027 11.9617C25.5904 11.9152 25.7349 11.8327 25.879 11.7041C26.0777 11.5229 26.2153 11.2688 26.3288 10.8945C26.495 10.3517 26.3944 10.0415 26.2883 9.88234C26.1417 9.6632 25.8325 9.49909 25.2466 9.49909ZM27.4041 14.6135C24.5176 16.105 20.6675 16.9266 16.5613 16.9266C12.4555 16.9266 8.60594 16.105 5.719 14.6135C2.94264 13.1786 1.41261 11.3098 1.41261 9.35249C1.41261 7.39367 2.94264 5.52492 5.719 4.09095C8.60594 2.59995 12.4555 1.7774 16.5613 1.7774C20.6675 1.7774 24.5176 2.59995 27.4041 4.09095C30.1809 5.52492 31.7095 7.39367 31.7095 9.35249C31.7095 11.3098 30.1809 13.1786 27.4041 14.6135ZM27.7948 3.33444C24.7888 1.7814 20.7996 0.926327 16.5613 0.926327C12.3229 0.926327 8.33326 1.7814 5.32824 3.33444C3.54804 4.25456 0.561035 6.25991 0.561035 9.35249C0.561035 12.4436 3.54804 14.4494 5.32824 15.3695C8.33276 16.9226 12.3219 17.7776 16.5613 17.7776C20.8001 17.7776 24.7893 16.9226 27.7948 15.3695C29.575 14.4494 32.561 12.4441 32.561 9.35249C32.561 6.25941 29.575 4.25456 27.7948 3.33444ZM26.9998 13.8315C23.8942 15.4356 20.0311 16.0455 16.5613 16.0455C13.091 16.0455 9.22886 15.4356 6.12227 13.8315C4.47867 12.9814 2.2937 11.4154 2.2937 9.35249C2.2937 7.2876 4.47817 5.72305 6.12227 4.87348C9.22886 3.2694 13.091 2.65949 16.5613 2.65949C20.0311 2.65949 23.8942 3.2684 26.9998 4.87348C28.6449 5.72305 30.8289 7.2876 30.8289 9.35249C30.8289 11.4164 28.6444 12.9814 26.9998 13.8315ZM27.1609 4.56077C24.0078 2.93017 20.0817 2.30625 16.5613 2.30625C13.0404 2.30625 9.11528 2.93067 5.96066 4.56077C4.18947 5.47538 1.94146 7.12649 1.94146 9.35249C1.94146 11.5765 4.18947 13.2286 5.96066 14.1442C9.11528 15.7733 13.0414 16.3977 16.5613 16.3977C20.0817 16.3977 24.0078 15.7743 27.1609 14.1442C28.9331 13.2286 31.1811 11.5765 31.1811 9.35249C31.1811 7.12649 28.9336 5.47538 27.1609 4.56077ZM8.60794 9.99042L5.73251 10.9361L5.38127 11.8997H7.91698L8.2472 10.9916H6.48952L8.48486 10.3161L8.60794 9.99042ZM20.0496 5.76808H20.4664C20.7501 5.76808 20.9067 5.86314 20.9102 6.08279C20.9127 6.22439 20.8747 6.41852 20.7276 6.8363C20.5975 7.21005 20.4934 7.42669 20.3458 7.5853C20.2272 7.71038 20.0696 7.76592 19.7079 7.76592H19.3597L20.0496 5.76808ZM19.136 5.3553L17.9983 8.67503H19.6769C20.3964 8.67503 20.8071 8.51543 21.1404 8.15819C21.5586 7.71589 21.9409 6.56512 21.9284 5.93169C21.9159 5.28526 21.4986 4.86447 20.6205 4.86447H19.0955L19.0635 4.96254L19.1295 5.02708C19.1996 5.09663 19.1971 5.17868 19.136 5.3553ZM25.4703 6.23089H22.9346L22.6043 7.138H24.3615L22.3657 7.81546L22.2426 8.14017L25.118 7.19454L25.4703 6.23089ZM14.1372 8.67303H15.0928L15.9264 6.20788L16.4137 8.67303H17.3703L18.6742 4.86297L17.6745 4.86447L16.9781 6.93536L16.5803 4.86447H15.2329L15.1999 4.96254L15.2659 5.02708C15.337 5.09663 15.3335 5.17868 15.2729 5.3553L14.1372 8.67303ZM7.28555 8.67503L9.8858 8.67403L10.2 7.76592H8.6885L9.68717 4.86447H8.38329L8.35077 4.96254L8.41581 5.02708C8.48686 5.09663 8.48386 5.17868 8.42282 5.3553L7.28555 8.67503ZM12.8178 5.91768H12.8518L12.8698 7.06845H12.1683L12.8178 5.91768ZM10.1555 8.67303H11.2617L11.741 7.83097H12.8863L12.8978 8.67303H13.9015L13.6849 4.86447H12.1823L12.1488 4.96254L12.1974 5.01107C12.2764 5.08862 12.2439 5.2002 11.9512 5.66451L10.1555 8.67303Z" fill="black"/>
</g>
<defs>
<clipPath id="clip0_601_1147">
<rect width="32" height="16.8513" fill="white" transform="translate(0.561035 0.926331)"/>
</clipPath>
</defs>
</svg>
