<svg width="20" height="33" viewBox="0 0 20 33" fill="none" xmlns="http://www.w3.org/2000/svg">
<g clip-path="url(#clip0_601_24395)">
<path d="M1.16113 3.31521C1.16113 2.31173 1.97876 1.49365 2.98278 1.49365H17.015C18.0336 1.49365 18.8512 2.31173 18.8512 3.31521V29.7424C18.8512 30.7463 18.0336 31.5639 17.015 31.5639H2.98278C1.97885 31.5639 1.16113 30.7463 1.16113 29.7424V3.31521Z" fill="white"/>
<path d="M1.91711 6.4333V3.3152C1.91711 2.72898 2.39648 2.25061 2.98279 2.25061H17.015C17.6168 2.25061 18.0953 2.72898 18.0953 3.3152V6.4333H1.91711Z" fill="#004990"/>
<path d="M18.0943 7.19019H1.91711V25.869H18.0943V7.19019Z" fill="#004990"/>
<path d="M14.6836 4.9059C14.7454 4.99811 14.8847 5.1064 14.9767 5.1525C15.2395 5.29171 15.4719 5.33772 15.7179 5.33772C16.1041 5.33772 16.3355 5.1676 16.3355 4.92118C16.3355 4.62694 16.0414 4.58084 15.5944 4.52019C15.0238 4.44272 14.715 4.17985 14.715 3.7172C14.7296 3.25393 15.1631 2.89795 15.7953 2.89795C16.2266 2.89795 16.5208 2.99115 16.7061 3.08335V3.68584C16.6443 3.5779 16.505 3.50043 16.3669 3.43924C16.1805 3.37686 15.9953 3.34604 15.7953 3.34604C15.4865 3.34604 15.3011 3.46961 15.3011 3.625C15.3011 3.88624 15.5482 3.91761 16.0885 4.02599C16.6286 4.13375 16.9531 4.36579 16.9374 4.84362C16.9218 5.39901 16.4893 5.76999 15.7179 5.76999C15.3776 5.76999 14.9463 5.7078 14.6836 5.5695V4.9059Z" fill="white"/>
<path d="M5.09742 3.79412C5.09742 4.07209 4.8661 4.17984 4.51121 4.17984H3.86316V3.39214H4.51121C4.8661 3.39214 5.09742 3.50043 5.09742 3.79412ZM5.49833 5.02893C5.36011 4.76678 5.25227 4.56628 5.05132 4.47308C5.48368 4.38088 5.69937 4.13383 5.69937 3.7633C5.69937 3.40841 5.54443 3.13089 5.25236 3.0226C5.06714 2.94513 4.83455 2.94513 4.47975 2.94513H3.06018C3.19939 3.03733 3.27586 3.31521 3.27586 3.5628V5.12158C3.27586 5.3529 3.1993 5.64651 3.06018 5.72407H4.07767C3.93955 5.64651 3.86316 5.3529 3.86316 5.12158V4.62685H4.29444C4.51121 4.62685 4.6346 4.70432 4.7268 4.87498C4.88066 5.12158 4.98967 5.4612 5.17489 5.72407H5.99243C5.74646 5.55439 5.6219 5.29162 5.49833 5.02893Z" fill="white"/>
<path d="M7.66013 5.80096C8.04531 5.80096 8.37091 5.69248 8.61697 5.4759C8.91112 5.22984 9.11098 4.85868 9.11098 4.3342C9.11098 3.82546 8.91112 3.4392 8.61697 3.1916C8.37091 2.99111 8.04531 2.88281 7.66013 2.88281C7.27378 2.88281 6.95026 2.99111 6.70221 3.1916C6.41015 3.4392 6.20911 3.82546 6.20911 4.3342C6.20911 4.85868 6.41015 5.22984 6.70221 5.4759C6.95026 5.69248 7.28951 5.80096 7.66013 5.80096ZM7.07383 5.07545C6.90434 4.92105 6.82687 4.67445 6.82687 4.3342C6.82687 4.00968 6.90434 3.76326 7.07383 3.59359C7.21204 3.45429 7.41308 3.36227 7.66013 3.36227C7.9071 3.36227 8.10813 3.45429 8.24635 3.59359C8.41702 3.76317 8.50904 4.00968 8.50904 4.3342C8.50904 4.67454 8.41693 4.92105 8.24635 5.07545C8.10804 5.21465 7.9071 5.30677 7.66013 5.30677C7.41308 5.30677 7.21204 5.21465 7.07383 5.07545Z" fill="white"/>
<path d="M11.6739 5.01311C11.5189 5.2146 11.1954 5.27598 10.8405 5.27598H10.3002V3.5628C10.3002 3.33094 10.3768 3.03724 10.5003 2.94513H9.49744C9.63547 3.03733 9.71402 3.33103 9.71402 3.5628V5.12158C9.71402 5.36908 9.63547 5.63087 9.49744 5.72407H11.5806L11.6739 5.01311Z" fill="white"/>
<path d="M14.1894 5.01311C14.0346 5.2146 13.7111 5.29162 13.3562 5.27598H12.8003V3.5628C12.8003 3.33094 12.8768 3.03724 13.0169 2.94513H12.0131C12.1512 3.03733 12.2296 3.33103 12.2296 3.5628V5.12158C12.2296 5.36908 12.1512 5.64651 12.0131 5.73862H14.0807L14.1894 5.01311Z" fill="white"/>
<path d="M19.7777 3.31519C19.7777 1.78723 18.5423 0.552429 17.015 0.552429H2.98275C1.45434 0.552429 0.218994 1.78723 0.218994 3.31519V29.7424C0.218994 31.2719 1.45434 32.5061 2.98275 32.5061H17.0149C18.5422 32.5061 19.7777 31.2719 19.7777 29.7424V3.31519ZM1.1611 3.31519C1.1611 2.31171 1.97872 1.49363 2.98275 1.49363H17.0149C18.0336 1.49363 18.8511 2.31171 18.8511 3.31519V29.7424C18.8511 30.7462 18.0336 31.5639 17.0149 31.5639H2.98275C1.97881 31.5639 1.1611 30.7462 1.1611 29.7424V3.31519Z" fill="#004990"/>
<path d="M1.91711 26.6248V29.7423C1.91711 30.3306 2.39648 30.808 2.98279 30.808H17.015C17.6168 30.808 18.0953 30.3306 18.0953 29.7423V26.6248H1.91711Z" fill="#004990"/>
<path d="M8.84832 22.8895V18.7367C9.24931 18.7219 9.63557 18.7062 10.0219 18.6748C9.88262 18.3502 9.74342 18.0268 9.57383 17.718C9.34242 17.7483 9.09655 17.7483 8.84832 17.7641V16.9004C8.30803 17.0238 7.7219 17.116 7.11996 17.1778V22.8895C7.11996 24.1541 6.53266 24.4943 6.17786 24.7257H9.78952C9.45144 24.4943 8.84832 24.1541 8.84832 22.8895Z" fill="white"/>
<path d="M17.2462 24.7111C16.9532 24.4326 16.5815 24.0003 16.3973 23.1523C16.058 21.5924 15.3472 19.3541 13.8503 17.6865C15.3169 16.8846 16.2119 15.6179 16.2119 14.0602C16.2266 12.9479 15.656 11.7754 14.6374 11.0808C14.2052 10.8017 13.6962 10.6012 13.0934 10.4777C13.31 10.941 13.4483 11.4351 13.4796 11.9298C14.1119 12.4229 14.4522 13.1798 14.4522 14.0904C14.4522 15.2483 13.8659 16.6061 11.8131 17.3012C11.9815 17.6247 12.1511 17.9649 12.2904 18.2885C12.3992 18.2582 12.507 18.2276 12.6159 18.1963C13.5727 19.308 14.3433 21.0522 14.5746 22.6727C14.7454 23.8462 14.3286 24.4326 14.0513 24.7111H17.2462Z" fill="white"/>
<path d="M5.71499 15.8965V9.41362H8.16886C9.06486 9.4288 9.72873 9.61411 10.2533 9.98365C10.9473 10.4777 11.319 11.2651 11.319 12.2072C11.319 13.7964 10.2218 15.819 5.71499 15.8965ZM13.6493 22.8424C13.3403 22.565 12.9709 22.1324 12.8002 21.2836C12.4609 19.7248 11.7814 17.5327 10.4238 15.9728C10.4845 15.9425 10.5316 15.9267 10.5923 15.8964C12.1365 15.109 13.0786 13.7964 13.0786 12.191C13.0933 11.0645 12.5218 9.90672 11.5041 9.21203C10.7011 8.67192 9.62089 8.45624 8.24633 8.45624H3.04443C3.39933 8.68756 3.98563 9.02681 3.98563 10.2924V21.0062C3.98563 22.2865 3.39933 22.6111 3.04443 22.8424H6.65619C6.31693 22.611 5.71499 22.2865 5.71499 21.0062V16.8533C6.98071 16.8533 8.16886 16.6984 9.1718 16.4366C10.0836 17.5328 10.763 19.2307 10.9787 20.7895C11.1326 21.9641 10.7317 22.5651 10.4542 22.8425H13.6493V22.8424Z" fill="white"/>
<path d="M8.84829 14.971V11.3122H10.7934C10.6554 10.9102 10.4072 10.5862 10.069 10.3386H6.17773C6.53263 10.5703 7.11984 10.8949 7.11984 12.1758V15.4022C7.76797 15.3101 8.3541 15.172 8.84829 14.971Z" fill="white"/>
<path d="M12.3836 28.7247C12.3836 29.2482 12.6925 29.6502 13.2327 29.6502C13.6189 29.6502 13.9738 29.5424 14.1278 29.3571L14.0346 29.9601C13.8964 30.0208 13.6494 30.0983 13.2485 30.0983C12.3837 30.0983 11.7816 29.5884 11.7816 28.7247C11.7816 28.2621 11.967 27.9061 12.2444 27.6748C12.4915 27.4581 12.8307 27.3345 13.2484 27.3345C13.6494 27.3345 13.8963 27.4119 14.0345 27.4894V28.061C13.866 27.8758 13.6188 27.7826 13.2326 27.7826C12.6925 27.7826 12.3836 28.1846 12.3836 28.7247Z" fill="white"/>
<path d="M5.00426 28.1992C5.00426 28.4619 4.78867 28.5698 4.44941 28.5698H3.83183V27.8297H4.44941C4.78867 27.8297 5.00426 27.9217 5.00426 28.1992ZM5.39061 29.3727C5.26704 29.1257 5.15911 28.9246 4.97389 28.8483C5.37588 28.7708 5.57583 28.5237 5.59156 28.1846C5.59156 27.8297 5.43753 27.5668 5.15911 27.458C4.98962 27.3962 4.75812 27.3962 4.41796 27.3962H3.07495C3.19943 27.4737 3.27599 27.7365 3.27599 27.9824V29.4658C3.27599 29.6814 3.19943 29.9599 3.07495 30.0521H4.03179C3.9093 29.9599 3.83183 29.6813 3.83183 29.4658V28.9864H4.23283C4.44941 28.9864 4.5719 29.0786 4.66618 29.2333C4.80431 29.4658 4.91224 29.7883 5.08173 30.0362L5.86998 30.0521C5.62193 29.8679 5.51509 29.6344 5.39061 29.3727Z" fill="white"/>
<path d="M7.44447 30.114C7.81401 30.114 8.1228 30.0062 8.35412 29.805C8.63154 29.5737 8.83367 29.2178 8.83367 28.7247C8.83367 28.2307 8.63163 27.8758 8.35412 27.6276C8.1228 27.4433 7.81401 27.3345 7.44447 27.3345C7.08849 27.3345 6.7797 27.4433 6.54838 27.6276C6.27086 27.8758 6.06982 28.2307 6.06982 28.7247C6.06982 29.2178 6.27086 29.5738 6.54838 29.805C6.77979 30.0062 7.08858 30.114 7.44447 30.114ZM6.88754 29.4199C6.73369 29.2795 6.65622 29.0482 6.65622 28.7247C6.65622 28.4002 6.73369 28.1699 6.88754 28.0139C7.02684 27.8759 7.21206 27.7984 7.4592 27.7984C7.69053 27.7984 7.87575 27.8758 8.01505 28.0139C8.1689 28.17 8.24646 28.4002 8.24646 28.7247C8.24646 29.0482 8.16899 29.2796 8.01505 29.4199C7.87575 29.558 7.69053 29.6502 7.4592 29.6502C7.21206 29.6502 7.02684 29.5581 6.88754 29.4199Z" fill="white"/>
<path d="M10.9012 27.3963C10.9641 27.4433 10.9944 27.4893 10.9787 27.5501C10.9787 27.6129 10.9472 27.7051 10.8865 27.7983L10.361 28.5541L9.83651 27.7825C9.77477 27.6903 9.71412 27.5983 9.72876 27.5198C9.7434 27.4737 9.76022 27.4276 9.82096 27.3963H8.7561C8.94042 27.4737 9.03353 27.6129 9.17183 27.8139L10.0375 29.0325V29.4659C10.0375 29.6815 9.96008 29.96 9.83651 30.0364H10.7933C10.6698 29.96 10.5923 29.6815 10.5923 29.4659V29.0325L11.3806 27.9216C11.5041 27.7678 11.6738 27.4893 11.859 27.3962H10.9012" fill="white"/>
<path d="M16.0267 29.6198H15.3472V28.8944H16.3669L16.4276 28.4924H15.3472V27.8298H15.9492C16.2894 27.8298 16.5669 27.8443 16.7061 27.9825V27.3964H14.5913C14.7149 27.4894 14.7914 27.7679 14.7914 27.9825V29.466C14.7914 29.6963 14.7149 29.9601 14.5913 30.0522H16.7217L16.8138 29.403C16.659 29.6041 16.367 29.6198 16.0267 29.6198Z" fill="white"/>
</g>
<defs>
<clipPath id="clip0_601_24395">
<rect width="19.6158" height="32" fill="white" transform="translate(0.175537 0.506958)"/>
</clipPath>
</defs>
</svg>
