<svg width="33" height="22" viewBox="0 0 33 22" fill="none" xmlns="http://www.w3.org/2000/svg">
<g clip-path="url(#clip0_601_1268)">
<path d="M23.6042 10.3975C23.6042 10.3975 22.2855 10.7785 19.7347 12.346C17.4479 13.7537 16.5511 14.6995 16.5511 14.6995L9.49609 9.82375C9.49609 9.82375 12.4641 7.64112 14.9441 9.31282L18.2709 11.5949L18.6767 11.328L9.49752 4.89713C9.49752 4.89713 10.8167 4.5156 13.3661 2.94903C15.6544 1.54088 16.5511 0.594666 16.5511 0.594666L23.6056 5.47038C23.6056 5.47038 20.6381 7.65301 18.1576 5.98131L14.8309 3.69878L14.4251 3.96519L23.6042 10.3975Z" fill="#E20A17"/>
<path d="M18.1403 17.0488H12.7708V18.2429H15.3644L12.6794 20.7495V21.7499H18.1303V20.5511H15.4182L18.1403 18.0507V17.0488Z" fill="#003399"/>
<path d="M9.6095 21.8702C11.7569 21.8702 12.3069 21.3217 12.3069 20.1124V17.0487H10.6057V19.9292C10.6057 20.413 10.1918 20.7013 9.6095 20.7013C9.0039 20.7013 8.61428 20.4116 8.61428 19.9216V17.0487H6.91309V20.1124C6.91309 21.3217 7.46303 21.8702 9.6095 21.8702Z" fill="#003399"/>
<path d="M21.2577 21.8702C23.4051 21.8702 23.955 21.3217 23.955 20.1124V17.0487H22.2534V19.9292C22.2534 20.413 21.839 20.7013 21.2577 20.7013C20.6521 20.7013 20.261 20.4116 20.261 19.9216V17.0487H18.5603V20.1124C18.5603 21.3217 19.1102 21.8702 21.2577 21.8702Z" fill="#003399"/>
<path d="M32.4476 17.0488H30.6736V21.7499H32.4476V17.0488Z" fill="#003399"/>
<path d="M30.4033 17.0488H28.0693L26.1807 18.671V17.0488H24.4062V21.7499H26.1807V20.0825L27.9347 21.7499H30.3181L27.724 19.338L30.4033 17.0488Z" fill="#003399"/>
<path d="M2.71974 18.3478C2.71974 17.9843 3.25826 17.9724 3.43999 17.9724C3.62219 17.9724 4.03274 18.0452 4.31199 18.5033H6.31813C6.31813 17.6175 5.47847 16.913 3.44617 16.913C1.18885 16.913 0.804467 17.9034 0.804467 18.4724C0.804467 19.5214 1.61701 19.8287 3.38385 20.0171C3.53513 20.0328 4.45424 19.9895 4.45424 20.4314C4.45424 20.7587 3.9376 20.7806 3.74731 20.7806C3.55844 20.7806 3.20498 20.7497 2.91288 20.2297H0.703613C0.703613 21.2621 1.3996 21.8586 3.74398 21.8586C5.9033 21.8586 6.47655 20.9771 6.47655 20.3068C6.47655 19.656 6.02984 18.9938 4.18878 18.7583C3.42096 18.6589 2.71974 18.617 2.71974 18.3478Z" fill="#003399"/>
</g>
<defs>
<clipPath id="clip0_601_1268">
<rect width="32" height="21.5315" fill="white" transform="translate(0.575684 0.466667)"/>
</clipPath>
</defs>
</svg>
