<svg width="517" height="512" viewBox="0 0 517 512" fill="none" xmlns="http://www.w3.org/2000/svg">
<path d="M294.687 177.633C298.907 179.832 301.549 181.425 304.338 182.635C348.785 201.819 393.306 220.767 437.664 240.098C443.247 242.587 448.382 245.977 452.864 250.133C458.545 255.356 458.678 260.935 453.218 266.247C448.898 270.57 443.86 274.11 438.328 276.709C415.234 287.039 391.889 296.764 368.633 306.725C330.457 323.06 292.34 339.484 254.061 355.569C250.579 357.045 245.635 357.606 242.256 356.307C221.862 348.457 201.69 340.075 181.517 331.604C161.345 323.134 141.246 314.605 121.133 306.061C119.759 305.323 118.433 304.5 117.163 303.596C129.972 298.077 141.822 292.927 153.716 287.865C183.554 275.145 213.397 262.454 243.245 249.793C244.366 249.321 245.827 249.114 246.565 248.318C249.664 244.85 254.047 241.515 254.903 237.471C255.345 235.391 249.811 231.082 246.211 229.296C237.209 224.869 227.617 221.505 218.586 217.078C212.684 214.126 207.74 214.436 201.823 217.078C157.051 236.719 112.146 256.08 67.2709 275.499C65.0869 276.444 62.8439 277.167 59.745 278.318C59.5531 275.145 59.2875 272.799 59.2875 270.438C59.2875 252.007 59.5679 233.546 59.0661 215.115C58.8891 208.755 61.4125 205.833 66.784 203.619C83.1196 196.861 99.3519 189.837 115.584 182.857C118.418 181.647 121.118 180.097 125.914 177.707C120.011 174.918 116.071 172.852 111.954 171.14C96.5335 164.691 80.9651 158.538 65.6919 151.838C63.0652 150.687 59.6269 147.411 59.5827 145.05C59.1105 123.21 59.3023 101.341 59.3023 78.1431C64.4229 80.0172 68.7171 81.36 72.8342 83.1308C115.865 101.823 158.871 120.583 201.852 139.413C207.43 141.863 212.418 142.217 217.996 139.546C228.193 134.676 238.759 130.559 248.808 125.424C251.759 123.948 255.08 120.082 255.271 117.13C255.434 114.622 251.877 110.608 249.044 109.354C223.22 97.8876 197.204 86.879 171.232 75.7377C155.226 68.8512 139.215 61.9648 123.199 55.0783C121.472 54.3405 119.893 53.2632 117.296 51.8171L162.732 32.0431C183.923 22.8792 205.29 14.1137 226.186 4.41851C240.293 -2.13347 253.235 -0.997216 267.21 5.18585C312.808 25.3583 358.701 44.8077 404.447 64.5669C416.385 69.7318 428.353 74.8966 440.158 80.3123C443.94 82.0765 447.457 84.3613 450.606 87.1004C458.914 94.3017 459.017 101.001 450.34 107.878C445.406 111.505 440.025 114.481 434.329 116.732C391.535 135.237 348.519 153.52 305.636 171.937C302.478 173.412 299.438 175.183 294.687 177.633Z" fill="black"/>
<path d="M86.9419 465.89C89.7309 467.809 91.2508 468.842 92.8446 469.904C107.601 479.408 106.937 498.075 91.3689 506.117C86.8135 508.582 81.7803 510.037 76.6122 510.382C60.3798 510.913 44.2802 510.574 28.1806 510.574C30.4827 497.603 34.1719 494.341 47.2316 494.341C53.6213 494.341 60.0257 494.519 66.4153 494.341C73.5723 494.076 77.837 489.782 77.7779 483.436C77.7189 477.091 73.5723 472.59 66.5186 472.457C53.7835 472.221 41.0337 472.457 28.1511 472.457C31.0139 458.97 34.1571 456.225 46.3314 456.225C53.2228 456.225 60.1142 456.402 66.9908 456.122C72.5393 455.915 77.6746 454.129 77.5861 447.415C77.4828 441.04 72.864 438.561 67.0941 438.428C54.5509 438.222 42.0077 438.428 29.4645 438.236C24.0192 438.236 22.9863 441.188 23.0158 445.792C23.1191 464.474 23.0158 483.156 23.0158 501.867V511.681C16.1392 511.681 10.0741 511.99 4.09767 511.459C2.622 511.326 0.201954 508.508 0.187197 506.87C-0.0636673 479.113 0.0101234 451.355 0.0101234 424.011C0.954553 423.288 1.33819 422.727 1.72186 422.727C27.4871 422.993 53.2671 423.081 79.0323 423.775C83.9442 424.164 88.7005 425.679 92.9331 428.202C106.701 435.787 107.026 453.185 93.8628 461.832C92.0477 462.806 90.1736 463.869 86.9419 465.89Z" fill="black"/>
<path d="M227.131 511.636C218.557 511.636 211.326 512.477 204.479 511.267C201.395 510.707 197.957 506.471 196.628 503.122C194.135 496.88 190.578 494.592 183.864 494.946C173.15 495.507 162.408 495.094 151.517 495.094C154.646 480.647 158.128 477.696 171.217 477.696H184.189L166.097 441.203C163.677 445.231 162.201 447.386 161.05 449.658C152.196 467.986 143.165 486.299 134.488 504.76C132.083 509.88 129.013 512.227 123.169 511.666C117.606 511.135 111.954 511.548 104.974 511.548C106.184 508.478 106.834 506.28 107.926 504.273C120.617 479.599 133.499 455.029 145.998 430.253C148.95 424.35 152.432 420.705 159.501 422.019C161.45 422.392 163.453 422.392 165.403 422.019C177.887 419.436 184.085 425.428 189.221 436.407C199.55 458.409 211.356 479.718 222.423 501.336C223.81 504.155 225.065 507.047 227.131 511.636Z" fill="black"/>
<path d="M433.415 511.636C429.974 511.453 426.526 511.453 423.085 511.636C412.667 512.92 404.359 511.253 400.95 499.3C400.389 497.263 395.682 495.301 392.819 495.183C381.117 494.725 369.385 494.991 357.801 494.991C360 474.745 375.185 477.519 390.694 477.607L373.502 442.855L371.068 442.988C365.858 453.318 360.605 463.78 355.425 474.213C350.083 484.986 345.096 495.95 339.311 506.501C338.431 507.793 337.291 508.888 335.965 509.716C334.639 510.544 333.155 511.088 331.608 511.312C325.086 512.02 318.445 511.548 310.506 511.548C316.409 499.875 321.618 489.162 327.093 478.567C335.784 461.773 344.801 445.098 353.3 428.261C355.573 423.834 358.229 421.517 363.527 421.945C371.555 422.594 381.235 419.894 387.226 423.583C393.217 427.272 395.475 436.997 399.209 444.154C409.42 463.771 419.583 483.402 429.696 503.048C430.95 505.409 431.836 507.903 433.415 511.636Z" fill="black"/>
<path d="M231.012 494.312H268.523C284.756 494.312 287.117 491.847 287.146 475.438C287.146 460.194 287.323 444.936 287.146 429.692C287.146 424.188 288.504 421.856 294.524 421.93C309.812 422.122 309.812 421.827 309.812 437.13C309.812 452.86 309.945 468.606 309.812 484.351C309.606 502.576 300.708 511.341 282.365 511.607C272.773 511.74 263.181 511.607 253.589 511.607C238.523 511.636 236.9 510.456 231.012 494.312Z" fill="black"/>
<path d="M437.576 494.312H472.092C475.043 494.312 477.995 494.415 480.946 494.312C489.682 493.884 493.917 489.664 493.991 480.839C494.153 463.647 494.227 446.441 493.991 429.191C493.991 423.834 495.467 421.487 501.089 421.974C505.693 422.373 510.341 421.974 515.462 421.974C515.868 423.991 516.144 426.032 516.288 428.084C516.288 446.751 516.48 465.418 516.288 484.071C516.052 502.192 506.815 511.282 488.826 511.503C478.496 511.621 468.167 511.503 457.837 511.503C444.63 511.636 441.236 508.818 437.576 494.312Z" fill="black"/>
</svg>
