<svg width="512" height="513" viewBox="0 0 512 513" fill="none" xmlns="http://www.w3.org/2000/svg">
<path d="M190.593 427.905C197.462 428.162 199.491 426.536 199.931 420.437C199.918 420.234 199.918 420.03 199.931 419.826C202.167 409.608 199.454 402.262 188.686 398.742C184.482 397.374 179.984 395.65 178.529 390.321C178.273 389.38 175.779 388.683 174.264 388.525C167.859 387.889 161.895 384.858 154.879 387.461C149.293 389.539 140.786 378.771 142.559 372.941C143.977 368.309 148.878 366.439 154.671 368.052C159.02 369.415 163.471 370.429 167.981 371.083C172.577 371.596 177.283 371.193 181.842 371.193C183.064 364.96 182.599 364.874 177.49 365.522C176.188 365.64 174.875 365.484 173.637 365.063C172.399 364.642 171.264 363.965 170.304 363.077C166.693 358.987 163.595 354.472 161.076 349.633C160.049 347.653 160.086 343.522 161.43 342.153C169.925 333.328 177.454 323.208 189.371 318.466C191.379 317.549 193.632 317.313 195.787 317.793C208.829 322.23 220.831 327.694 229.778 339.427C238.932 351.442 251.693 358.555 267.667 358.054C279.743 357.675 290.694 361.794 301.56 366.756C305.153 368.394 311.338 369.201 313.868 367.233C318.085 363.957 315.09 358.677 312.768 354.522C310.568 350.635 307.879 346.993 305.936 342.996C302.122 335.137 304.371 327.327 310.825 324.662C318.073 321.741 327.936 326.007 330.637 333.353C332.483 338.241 334.389 343.13 335.893 348.215C336.993 351.882 334.609 353.397 331.603 352.138C327.227 350.305 323.206 347.616 318.024 344.719C321.861 349.718 325.528 353.862 328.486 358.457C335.587 369.458 330.124 381.912 317.205 384.626C315.653 384.956 314.1 385.261 311.766 385.726C315.274 395.589 314.821 406.663 325.993 412.297C327.912 413.263 328.951 417.455 329.048 420.193C329.195 424.324 330.112 425.387 334.438 424.764C339.73 424.09 345.104 424.506 350.23 425.986C344.717 425.986 339.229 426.108 333.693 425.986C329.415 425.852 326.97 426.952 328.144 431.902C329.134 436.119 328.889 441.044 324.538 442.389C319.373 443.85 313.953 444.179 308.649 443.354C305.153 442.865 305.557 435.593 309.162 432.623C310.385 431.608 312.829 431.156 313.135 430.056C313.77 427.355 314.552 422.723 313.306 421.892C306.657 417.687 299.421 414.412 292.369 410.892C291.383 410.555 290.368 410.309 289.338 410.158C289.463 411.563 289.696 412.956 290.034 414.326C290.56 415.854 291.635 417.21 292.014 418.751C293.347 424.275 280.366 440.629 274.671 440.751C273.858 440.83 273.039 440.83 272.226 440.751C268.963 440.164 265.712 439.529 262.448 438.856C263.353 435.789 264.245 432.745 265.296 429.078H247.427C256.362 425.338 266.372 430.472 275.221 425.241C267.142 420.352 263.548 413.189 261.324 405.196C260.371 401.786 258.427 401.138 255.506 401.529C248.906 402.519 242.281 404.56 235.742 404.328C226.832 404.01 220.342 405.343 218.765 415.56C218.142 419.618 216.199 423.481 215.673 427.526C214.964 432.977 208.621 439.15 202.84 439.211C201.825 439.211 200.823 439.419 199.808 439.516C190.483 440.384 188.894 438.661 190.678 429.738C190.727 429.136 190.727 428.532 190.678 427.93L190.593 427.905ZM271.53 436.693L272.886 438.062C275.074 436.082 277.335 434.175 279.425 432.085C281.723 429.775 283.764 427.196 286.074 424.886C288.384 422.576 289.741 420.572 287.688 417.003C283.838 410.39 285.598 404.487 290.719 398.877C294.605 394.611 298.431 389.673 300.313 384.344C302.196 379.015 302.428 377.805 307.928 379.773C317.413 383.159 325.821 377.329 324.318 367.551C323.463 361.929 320.285 356.661 318.097 351.258C316.068 346.235 313.721 341.322 312.059 336.176C311.582 334.721 313 332.656 313.55 330.871C314.772 332.094 315.995 333.316 317.217 334.624L330.295 348.337L331.517 347.274C329.549 342.275 327.912 337.117 325.54 332.326C324.404 330.13 322.507 328.423 320.204 327.524C317.901 326.624 315.349 326.593 313.025 327.437C308.551 329.295 306.229 334.367 308.429 339.659C310.495 344.658 313.672 349.205 316.374 353.935C320.04 360.23 320.187 365.962 316.435 369.824C311.998 374.359 306.84 373.32 301.768 370.924C288.749 364.572 274.453 361.269 259.967 361.268C256.526 361.119 253.148 360.288 250.03 358.824C244.029 356.306 236.305 354.791 232.748 350.195C223.19 337.838 213.522 327.584 197.181 323.672C190.226 322.01 186.486 325.885 181.768 327.144C177.05 328.402 173.518 334.673 169.546 338.804C163.007 345.563 163.129 347.909 170.242 355.072C170.444 355.108 170.652 355.108 170.854 355.072L176.965 352.542C175.743 354.131 174.41 355.671 173.298 357.333C172.687 358.237 171.734 359.851 172.076 360.278C172.461 360.823 172.958 361.279 173.533 361.616C174.109 361.953 174.749 362.164 175.413 362.234C179.079 361.819 182.612 360.877 186.193 360.144C186.596 367.636 186.963 374.603 187.317 381.277C184.799 379.101 182.563 375.508 179.984 375.227C170.585 374.2 160.892 376.021 151.872 371.413C150.797 370.863 148.205 372.55 146.849 373.772C146.458 374.114 147.631 376.693 148.536 377.903C150.308 380.262 152.398 382.389 154.366 384.601C158.106 380.934 159.255 380.812 164.29 382.511C167.138 383.464 170.181 383.733 173.078 384.626C176.818 385.713 180.485 387.07 184.384 388.353C184.152 388.903 184.384 388.28 184.812 387.339L188.674 395.76C189.554 392.619 189.896 391.226 190.654 388.732L191.302 394.159L199.21 399.292L203.732 397.545V427.05L194.076 433.161L207.313 436.485C207.765 434.566 207.643 432.904 208.401 432.207C213.974 427.123 211.786 420.156 212.899 414.045C214.06 407.665 214.317 401.114 215.074 394.66C215.351 393.453 215.761 392.281 216.297 391.165L217.348 392.619C217.152 396.286 216.944 400.014 216.749 403.717L219.352 404.059C220.073 401.224 220.073 397.813 221.797 395.723C223.52 393.633 226.686 393.071 229.24 391.825L230.853 389.576L222.628 385.97L224.473 383.99C226.184 385.359 228.653 386.373 229.46 388.146C233.53 397.056 238.786 399.879 249.309 397.496C257.119 395.736 265.614 397.814 270.857 388.72C268.853 395.149 262.864 399.476 266.433 407.408C269.476 414.143 272.324 419.631 280.256 420.559C278.716 424.226 277.812 430.032 275.856 430.447C270.918 431.352 272.434 434.383 271.53 436.693ZM314.944 437.707C317.229 437.365 318.867 436.595 319.686 437.109C323.181 439.309 324.074 437.28 324.343 434.469C324.898 429.648 325.192 424.801 325.223 419.948C325.207 418.954 324.988 417.973 324.578 417.067C324.168 416.161 323.576 415.348 322.839 414.68C313.587 408.166 308.563 399.402 307.867 386.227C303.357 391.116 299.543 394.648 296.72 398.816C295.754 400.246 296.439 404.291 297.82 405.526C302.628 409.686 307.712 413.516 313.037 416.99C317.853 420.278 320.37 426.121 318.525 431.413C317.816 433.417 316.422 435.153 314.944 437.707Z" fill="black"/>
<path d="M130.09 247.001C141.543 252.489 145.979 259.651 144.036 268.83C141.494 280.54 133.732 286.761 121.437 286.822C109.434 286.822 97.4197 286.822 85.4173 286.822C83.4838 286.778 81.5695 286.427 79.7461 285.783C88.094 280.711 85.3562 272.876 85.4906 266.031C85.784 251.597 85.8573 237.138 85.3195 222.715C85.1973 219.55 82.1783 216.482 80.2594 212.937C81.3552 212.558 82.4914 212.308 83.645 212.192C96.063 212.192 108.469 212.045 120.887 212.192C133.5 212.363 142.594 220.271 142.496 230.672C142.398 237.981 139.281 242.173 130.09 247.001ZM107.894 263.746H107.992V269.857C107.992 272.864 107.271 276.922 111.659 276.641C114.886 276.433 120.092 274.795 120.716 272.705C122.159 267.489 122.389 262.012 121.388 256.694C120.471 251.866 115.68 250.729 111.048 251.523C106.415 252.318 108.078 256.082 107.87 258.857C107.76 260.482 107.87 262.12 107.87 263.746H107.894ZM121.535 232.725C121.571 231.113 121.453 229.5 121.18 227.91C119.958 223.29 117.037 220.637 111.891 221.175C106.745 221.713 107.748 225.673 107.674 228.973C107.674 231.198 107.674 233.422 107.674 235.634C107.833 242.454 109.63 243.628 116.23 241.746C121.009 240.303 121.828 236.918 121.535 232.725Z" fill="black"/>
<path d="M237.367 286.186H206.529C213.985 281.297 211.528 274.098 211.736 267.767C211.92 262.475 211.516 257.17 211.736 251.878C211.956 247.209 212.164 242.821 206.004 240.034L232.197 227.176C232.685 230.269 233.003 232.383 233.492 235.463C235.704 234.241 237.525 233.251 239.383 232.285C253.781 224.793 268.302 233.3 268.558 249.397C268.668 256.119 268.448 262.841 268.558 269.552C268.632 275.211 267.055 281.371 274.828 286.003H242.842C249.503 282.19 247.646 276.225 247.731 270.969C247.731 264.051 247.829 257.121 247.731 250.191C247.658 245.461 245.715 242.418 240.398 242.601C235.301 242.772 233.064 245.657 232.954 250.387C232.844 259.541 232.649 268.72 233.125 277.863C233.174 280.454 235.546 282.849 237.367 286.186Z" fill="black"/>
<path d="M170.5 265.628C176.306 276.445 185.888 278.107 196.167 271.03C198.893 269.148 201.704 264.198 205.322 268.195C208.94 272.192 204.1 275.247 201.814 277.838C189.592 291.699 168.557 292.762 156.811 280.381C144.662 267.596 146.141 246.048 159.94 234.705C174.607 222.617 197.194 228.814 203.831 246.647C205.42 250.912 204.76 253.345 200.164 254.909C190.325 258.185 180.694 261.9 170.5 265.628ZM168.251 254.127C173.238 252.428 177.565 250.851 181.977 249.495C187.086 247.918 187.025 245.009 184.311 241.306C181.073 236.893 175.169 236.417 171.013 240.377C167.261 243.97 166.662 248.333 168.251 254.127Z" fill="black"/>
<path d="M295.718 265.64C300.179 275.259 307.94 277.789 317.559 272.974C319.893 271.752 321.8 269.747 324.171 268.684C325.956 267.877 328.156 268.012 330.16 267.73C330.05 269.747 330.6 272.143 329.696 273.695C322.081 286.883 304.396 292.469 290.315 286.382C277.372 280.784 270.759 265.2 274.964 250.35C278.521 237.883 287.345 230.024 299.335 228.655C311.093 227.311 321.336 232.762 327.178 243.408C331.04 250.521 330.307 252.611 322.925 255.398C313.872 258.828 304.803 262.243 295.718 265.64ZM291.599 252.636L293.64 254.005C298.003 252.514 302.403 251.12 306.73 249.531C311.521 247.771 312.23 244.862 309.003 240.878C305.557 236.637 298.48 236.417 295.339 241.22C293.224 244.459 292.784 248.786 291.599 252.636Z" fill="black"/>
<path d="M366.399 285.917C371.374 282.336 371.129 277.777 371.056 273.01C370.885 259.786 371.056 246.561 370.995 233.336C370.995 229.132 372.217 224.316 364.725 223.669C364.957 223.009 365.201 222.349 365.434 221.676L392.445 208.354C392.653 211.849 392.873 213.964 392.885 216.066C392.885 235.402 392.775 254.726 393.056 274.062C393.056 277.814 394.792 281.542 395.88 285.917H366.399Z" fill="black"/>
<path d="M357.696 208.342V236.453C357.696 248.456 357.818 260.47 357.696 272.485C357.622 277.374 356.999 282.263 362.267 285.991H330.806C338.946 279.611 335.426 271.128 335.793 263.501C336.27 253.723 335.793 243.946 335.891 234.168C335.891 229.486 336.465 224.781 329.107 222.385L357.696 208.342Z" fill="black"/>
<path d="M448.496 148.171C439.244 137.256 426.325 130.375 418.747 117.395C413.039 107.617 403.836 99.8434 396.026 91.3366C394.49 90.0251 392.545 89.2903 390.526 89.2588L435.027 143.979L433.573 144.846C438.609 149.21 447.397 149.344 448.24 158.731C435.565 154.404 425.017 148.293 417.219 137.354C412.805 131.294 407.643 125.816 401.856 121.049C395.857 116.132 391.605 109.411 389.731 101.885C388.509 97.3989 387.287 92.9499 386.064 88.4399C397.492 83.4287 404.117 86.3498 410.962 96.6656C418.772 108.436 427.804 119.436 436.861 130.314C441.444 135.838 446.565 140.85 448.496 148.171Z" fill="black"/>
<path d="M401.234 245.547L427.329 232.884C427.659 235.647 428.026 237.37 428.038 239.093C428.038 250.093 428.038 261.008 428.038 271.972C428.038 276.86 426.474 282.336 433.77 284.878L432.426 286.101H401.43C410.401 275.516 404.681 263.306 405.977 252.012C406.197 250.228 403.214 248.101 401.234 245.547Z" fill="black"/>
<path d="M43.5448 242.296C51.9905 218.046 60.4484 193.809 69.4074 168.106L60.3262 183.885L58.3829 178.58C57.0017 206.692 42.7015 229.548 34.6836 254.493C34.928 252.183 34.7814 249.739 35.4658 247.563C39.2426 235.573 43.4348 223.717 47.0404 211.678C48.8982 205.506 48.9838 198.71 51.3794 192.807C54.7375 184.609 58.8712 176.751 63.7241 169.34C65.973 165.881 70.4586 163.889 75.1153 160.32C76.5209 172.004 75.6287 181.917 71.9131 191.047C68.1975 200.177 62.8929 208.244 58.2851 216.812C57.5395 218.193 56.1339 219.721 56.305 221.016C57.6739 231.491 49.326 236.099 43.5448 242.296Z" fill="black"/>
<path d="M487.415 242.381C489.786 250.24 492.487 257.048 493.722 264.076C494.553 268.879 493.648 274.086 492.952 279.036C492.144 284.661 490.997 290.233 489.517 295.72C486.364 307.453 482.917 319.113 479.226 332.106C475.388 324.112 479.923 303.787 489.26 282.654L486.559 283.705V251.927L485.093 251.67L483.553 262.805C481.438 278.071 479.434 293.361 477.111 308.614C476.757 310.912 474.972 313.014 473.212 314.86C470.633 321.546 477.454 330.321 469.863 336.261L467.822 335.919C468.629 325.322 467.822 314.261 470.646 304.239C474.239 291.466 476.989 278.865 477.661 265.604C477.913 256.92 481.39 248.64 487.415 242.381Z" fill="black"/>
<path d="M30.2096 258.49C24.6729 255.606 23.6706 251.756 24.4895 246.512C25.6017 239.313 25.8707 231.992 26.5307 224.72C26.6978 222.287 26.9874 219.864 27.3984 217.46C29.1951 208.134 31.5296 198.882 32.8496 189.483C34.8786 175.085 43.3487 164.805 53.9455 154.038C54.2755 164.365 55.1678 173.483 51.5011 182.394C49.9977 186.146 48.861 190.057 47.7365 193.944C43.6909 207.853 39.7308 221.786 35.7341 235.72L33.6074 235.402C34.3041 230.195 34.0719 224.634 35.893 219.855C40.3442 208.741 42.9214 196.966 43.5198 185.009C43.7153 179.925 45.9643 174.913 47.431 169.597C43.4954 170.526 42.0042 172.542 41.7598 176.93C41.2762 184.998 40.1895 193.017 38.5086 200.923C37.5919 205.347 34.0474 209.332 33.5341 213.732C32.0918 226.162 31.6151 238.714 30.7473 251.23C30.6496 253.577 30.4296 255.899 30.2096 258.49Z" fill="black"/>
<path d="M277.506 135.997C271.92 132.123 266.029 128.664 260.871 124.251C256.715 120.719 253.538 121.343 249.871 124.374C246.204 127.405 242.012 130.155 237.991 132.929C236.364 133.945 234.683 134.871 232.955 135.704L231.623 134.738C233.554 128.725 234.959 122.516 237.563 116.747C240.166 110.978 238.308 107.935 233.554 104.928C228.152 101.506 223.092 97.5944 217.885 93.8177L218.398 91.3121H231.684C245.935 91.3121 245.923 91.3121 250.433 77.7452C251.655 73.9807 253.012 70.2407 254.955 64.6061C256.752 67.7717 257.877 69.2385 258.463 70.8885C260.345 76.2541 262.252 81.632 263.694 87.1198C264.599 90.5666 266.347 91.581 269.732 91.4465C275.611 91.2265 281.527 91.361 287.418 91.4465C289.129 91.4465 290.828 91.7643 292.527 91.9354C292.784 92.5343 293.028 93.1577 293.273 93.7321C288.298 97.2889 283.568 101.298 278.263 104.268C272.152 107.715 270.93 111.662 273.9 118.03C276.345 123.237 277.567 129.03 279.278 134.555L277.506 135.997ZM255.505 73.663C253.33 79.9942 251.313 84.602 250.201 89.4054C249.162 93.891 246.889 95.2722 242.488 94.9544C237.6 94.5877 232.711 94.8688 227.822 94.8688L227.553 96.3233L243.711 108.155C241.535 115.024 239.567 121.184 237.6 127.356C242.318 125.464 246.708 122.836 250.604 119.57C254.271 116.368 257.119 116.857 260.614 119.778C264.342 122.895 268.534 125.474 272.519 128.334C272.105 123.287 270.896 118.337 268.938 113.667C267.141 109.511 267.874 106.981 271.749 104.647C275.868 102.202 279.632 99.0856 283.556 96.2744C279.138 94.9297 274.49 94.5136 269.903 95.0522C263.914 95.9322 261.507 93.0721 260.125 87.9021C259.038 83.6609 257.461 79.5419 255.542 73.6996L255.505 73.663Z" fill="black"/>
<path d="M136.202 186.525C138.39 179.863 140.358 173.08 142.839 166.578C144.22 162.911 143.915 160.809 140.395 158.548C134.283 154.6 128.465 149.992 122.525 145.702L123.222 143.6C129.981 143.6 136.764 143.27 143.499 143.71C148.914 144.064 151.468 142.182 152.813 136.841C154.401 130.497 157.054 124.423 159.254 118.226L161.234 118.091C162.847 122.724 164.595 127.332 166.062 132.013C169.643 143.416 169.594 143.441 181.425 143.502C186.608 143.502 191.802 143.502 196.997 143.502L197.644 145.054C196.568 146.265 195.421 147.412 194.21 148.489C192.303 150.016 190.262 151.349 188.27 152.766C175.644 161.799 175.668 161.799 180.851 176.698C182.073 180.035 182.965 183.457 184.004 186.83L182.611 188.053C178.418 185.18 174.202 182.332 170.022 179.497C160.073 172.603 160.073 172.579 150.075 179.582C146.041 182.418 142.032 185.302 138.011 188.138L136.202 186.525ZM160.256 126.146C158.105 132.355 156.039 136.731 155.135 141.326C154.145 146.374 151.358 147.315 146.921 147.071C142.032 146.802 137.143 147.01 132.254 147.01C136.703 151.593 141.446 154.698 145.699 158.303C146.353 159.019 146.835 159.874 147.108 160.804C147.381 161.733 147.439 162.713 147.276 163.669C145.944 169.059 144 174.302 141.727 181.342C147.092 177.566 151.04 175.097 154.621 172.176C158.203 169.254 161.344 168.509 165.267 171.87C169.052 174.852 172.985 177.642 177.05 180.23C176.786 175.543 175.702 170.939 173.847 166.627C171.928 162.178 172.32 159.171 176.854 156.555C180.924 154.196 184.493 150.982 189.798 147.01C183.234 147.01 178.614 146.777 174.031 147.083C169.447 147.389 166.514 145.971 165.377 140.972C164.387 136.572 162.432 132.343 160.244 126.195L160.256 126.146Z" fill="black"/>
<path d="M351.892 118.287C354.214 125.119 356.781 131.891 358.773 138.821C359.861 142.634 361.67 143.905 365.618 143.71C372.951 143.38 380.285 143.612 387.716 143.612L388.278 145.641C382.338 150.029 376.545 154.649 370.409 158.719C367.292 160.797 366.596 162.544 367.965 166.125C370.519 172.848 372.414 179.827 374.589 186.696L372.988 188.138C368.649 185.144 364.273 182.198 359.983 179.13C350.927 172.652 350.951 172.64 341.65 179.02C337.47 181.892 333.229 184.667 328.975 187.441C328.743 187.588 328.23 187.307 326.812 187.014C328.621 181.281 329.928 175.414 332.312 170.012C335.074 163.718 334.145 159.745 327.875 156.286C322.558 153.365 317.951 149.161 313.037 145.519L313.722 143.538C320.505 143.538 327.325 143.086 334.047 143.685C339.706 144.186 342.016 141.95 343.361 136.804C345.023 130.46 347.431 124.3 349.472 118.055L351.892 118.287ZM332.74 179.46L333.852 180.193C338.166 177.211 342.628 174.424 346.734 171.173C349.655 168.863 351.904 168.937 354.777 171.173C358.896 174.388 363.332 177.285 367.598 180.242C366.964 175.004 365.67 169.866 363.748 164.952C362.526 161.689 362.917 159.33 366.192 157.301C370.568 154.6 374.614 151.361 378.806 148.354C373.625 147.002 368.252 146.539 362.917 146.985C358.896 147.279 357.062 145.763 356.023 141.998C354.642 137.012 352.76 132.22 350.609 125.853C348.458 132.22 346.673 137.134 345.145 142.133C344.131 145.482 342.456 147.205 338.655 147.022C333.363 146.716 328.058 146.949 322.766 146.949C325.849 150.772 329.616 153.988 333.876 156.433C338.374 158.963 338.912 161.945 337.005 166.419C335.245 170.636 334.206 175.085 332.74 179.46Z" fill="black"/>
<path d="M57.564 347.567C55.9506 342.678 54.2762 337.789 52.7362 332.815C48.3605 318.735 44.1804 304.581 39.6337 290.574C37.6302 284.561 37.725 278.046 39.9026 272.094C41.4916 267.4 42.8116 262.609 44.7916 256.205C47.8594 262.829 50.6706 268.256 52.8951 273.903C54.5329 278.022 55.1317 282.532 56.6473 286.7C60.6522 298.023 62.4447 310.01 61.9274 322.01C61.7196 329.612 63.6263 337.276 64.6285 344.903C65.0554 346.463 65.0554 348.109 64.6285 349.669C57.7596 326.667 52.2839 303.359 49.5705 279.452L43.8749 274.563C49.0206 299.46 53.9461 323.318 58.8718 347.188L57.564 347.567Z" fill="black"/>
<path d="M121.095 94.9544C123.796 107.348 118.528 114.755 109.814 121.844C98.7281 130.949 89.0969 141.803 78.7323 151.801C74.2589 156.128 69.541 160.21 64.9332 164.402L63.7109 163.278C72.1322 153.182 80.1623 142.707 89.0847 133.064C98.007 123.42 108.005 114.4 117.196 105.368L111.232 108.643L112.295 103.755L85.1246 131.622C85.1246 141.974 72.1933 145.959 66.3266 155.248C66.6932 147.352 71.2155 141.803 75.9333 136.144C85.1735 125.144 94.7314 114.254 103.177 102.618C108.09 95.9566 114.092 95.1133 121.095 94.9544Z" fill="black"/>
<path d="M4.64044 277.838C7.30493 285.441 10.165 292.97 12.4873 300.682C13.1229 302.809 12.1206 305.437 11.8639 307.844L10.2872 307.698C14.125 314.102 17.9262 320.531 21.8374 326.887C25.7486 333.243 29.782 339.586 34.5365 347.152C24.7586 344.805 18.2562 339.549 14.8584 332.301C10.2872 322.523 7.74492 311.792 4.09042 301.562C0.519139 291.796 -0.552275 281.292 0.973722 271.006C8.83273 276.653 15.4817 282.74 18.7573 291.442C24.6852 307.148 30.1486 323.049 35.7587 338.877C36.4532 340.666 36.631 342.614 36.272 344.499C35.0498 342.422 33.7298 340.393 32.6053 338.254C30.7109 334.673 29.3786 330.688 27.0197 327.461C20.4807 318.551 17.4374 308.627 15.384 297.822C13.9784 290.489 9.27278 283.742 6.13162 276.726L4.64044 277.838Z" fill="black"/>
<path d="M89.3533 100.968L96.3568 91.1899L94.7434 90.0654C81.6288 101.066 76.5931 118.018 65.0185 130.399C66.2408 126.17 66.7174 121.501 68.8441 117.786C74.8783 106.924 81.5216 96.4126 88.7422 86.3009C91.26 82.8787 96.919 81.7786 101.649 79.3464C104.387 89.7721 103.482 98.34 97.0534 105.979C88.4366 116.209 79.9421 126.562 71.2641 136.706C66.3752 142.402 62.7818 148.513 61.7918 156.128C61.2191 159.016 60.0447 161.752 58.3451 164.158C56.8417 150.077 65.0063 139.444 71.6308 128.59C78.2554 117.737 83.1077 105.05 96.809 99.7822L95.5868 98.3644L89.3533 100.968Z" fill="black"/>
<path d="M54.6908 353.654C52.7719 350.708 50.3885 347.958 49.0318 344.768C46.5314 338.984 44.4084 333.044 42.6761 326.985C39.7428 316.522 37.4694 305.864 34.4993 295.414C33.106 290.525 30.7104 285.954 28.7793 281.236L26.4692 282.018C33.0204 304.532 39.5716 327.034 46.1962 349.828C44.974 348.851 41.9306 347.775 41.3072 345.868C35.0127 327.718 28.5348 309.58 23.3525 291.1C20.7614 281.896 23.4625 268.916 27.3493 260.91L56.1941 352.334L54.6908 353.654Z" fill="black"/>
<path d="M466.745 254.97C475.594 264.577 474.739 276.396 471.634 286.443C466.574 302.589 465.12 318.906 463.861 335.443C463.704 337.002 463.003 338.456 461.881 339.549C464.325 322.255 459.07 303.896 469.324 287.482L466.513 289.719C467.328 281.261 468.102 272.803 468.835 264.345L466.305 264.088C463.604 283.094 460.891 302.1 458.251 320.629L457.505 319.847V345.172H456.112C455.708 332.949 455.354 320.727 454.89 308.504C454.621 301.611 454.205 294.717 453.753 287.836C452.836 274.991 456.014 263.709 466.745 254.97Z" fill="black"/>
<path d="M481.131 200.935L475.998 201.962C473.945 193.993 472.209 184.63 469.056 175.781C465.686 166.806 461.341 158.227 456.1 150.2C466.241 180.667 474.844 211.625 481.877 242.956C480.711 241.303 479.712 239.538 478.895 237.688C477.501 233.447 476.291 229.132 475.313 224.781C473.688 217.508 472.71 210.187 468.224 203.709C466.049 200.568 465.425 196.144 464.778 192.196C463.24 182.967 459.816 174.154 454.719 166.309C450.111 159.098 451.626 151.275 451.993 142.218C462.235 149.772 470.522 157.032 476.242 166.859C476.669 167.55 476.956 168.318 477.086 169.12C478.418 179.766 479.701 190.399 480.997 201.045L481.131 200.935Z" fill="black"/>
<path d="M296.879 478.983C306.657 475.23 313 467.604 319.27 459.806C321.698 457.108 324.312 454.584 327.093 452.252C330.466 449.086 334.047 446.141 337.225 442.755C344.363 435.214 352.613 429.665 362.978 427.208C364.029 439.431 359.849 448.561 349.337 454.941C341.54 459.683 334.389 465.452 326.604 470.207C322.045 472.981 316.826 474.656 311.937 476.831L310.922 475.071C317.584 470.182 324.037 465.086 330.943 460.637C340.036 454.77 349.117 449.074 353.334 438.392C353.607 437.498 353.823 436.588 353.982 435.666C352.894 436.363 352.185 436.559 352.014 436.974C347.602 447.388 337.347 451.323 329.28 457.667C321.666 463.619 314.711 470.415 307.109 476.404C304.469 478.481 300.766 479.215 297.551 480.571C297.294 480.046 297.087 479.508 296.879 478.983Z" fill="black"/>
<path d="M382.312 481.476C352.978 493.527 323.241 497.548 292.221 485.24C303.918 481.818 315.125 479.41 327.25 480.107C334.84 480.535 342.589 476.77 350.375 475.682C357.552 474.601 364.819 474.224 372.07 474.558C375.736 474.766 379.257 477.504 382.85 479.105C382.667 479.863 382.495 480.681 382.312 481.476ZM376.274 482.063C373.903 481.146 372.901 480.413 371.911 480.425C363.428 480.535 354.604 479.313 346.561 481.305C334.547 484.263 322.923 486.805 310.615 483.81C308.342 483.26 305.824 483.737 303.416 483.737V486.084L345.779 489.274L346.219 487.819L342.553 485.619L342.687 483.798L376.274 482.063Z" fill="black"/>
<path d="M190.58 54.5227C188.135 63.6161 184.933 71.3529 174.91 73.3818C173.915 73.5931 172.974 74.0094 172.148 74.6041C157.359 85.3353 139.637 82.6953 123.087 85.3965C122.586 85.482 122 85.0909 121.107 84.0276C143.108 78.4786 165.291 73.2596 183.075 57.676L163.091 67.2462L164.864 60.9394C160.17 65.4006 157.139 69.6418 153.02 71.8296C148.901 74.0174 143.389 74.4085 139.893 75.2519C146.774 69.6173 153.961 62.5894 162.236 57.2727C170.779 51.8093 180.692 52.6893 190.58 54.5227Z" fill="black"/>
<path d="M400.548 419.227C402.638 413.898 404.862 408.374 406.952 402.8C408.957 397.459 410.815 392.045 412.734 386.667L411.426 385.933C409.544 389.82 407.197 393.56 405.84 397.63C399.851 415.695 383.583 435.899 365.689 445.065C368.012 441.081 370.065 436.901 372.717 433.149C381.701 420.388 390.66 407.591 400.12 395.186C404.153 389.893 409.397 385.518 414.787 380.018C419.761 398.694 413.785 413.409 400.548 419.227Z" fill="black"/>
<path d="M507.091 259.676C513.936 278.119 514.29 296.233 503.864 313.833C497.753 324.088 492.155 334.611 486.289 344.976C486.108 345.207 485.881 345.397 485.622 345.534C485.363 345.671 485.078 345.752 484.785 345.77C493.206 330.456 491.569 310.325 507.384 298.103L502.08 301.024L507.678 272.986L505.343 272.497C501.933 285.514 498.523 298.531 494.905 312.306C488.953 305.547 495.761 274.379 507.091 259.676Z" fill="black"/>
<path d="M337.224 38.2424L401.428 80.373C395.671 82.0964 392.762 80.7275 386.871 76.2663C380.259 71.2674 373.426 66.4884 366.362 62.2228C361.288 59.304 356.025 56.7275 350.607 54.5104C341.795 50.6481 337.334 43.1069 332.982 34.6368C336.551 33.5889 340.301 33.3084 343.985 33.814C347.67 34.3196 351.205 35.5998 354.359 37.5702C369.393 47.0548 384.598 56.5149 395.781 70.8273L394.632 72.0496L383.632 61.795L382.813 63.2861L339.094 35.5046L337.224 38.2424Z" fill="black"/>
<path d="M161.478 20.5932C160.683 30.3712 156.479 36.6657 150.795 42.0924C148.83 43.8618 146.711 45.4529 144.464 46.847C138.536 50.7582 132.071 54.0215 126.693 58.5805C121.51 62.9928 117.416 68.7007 112.625 73.6385C121.779 53.6671 140.736 42.9236 156.515 29.2711L155.11 27.7556C150.343 31.239 145.601 34.759 140.797 38.1691C134.161 42.8869 126.204 45.5025 121.669 53.386C117.379 60.8661 111.39 67.3684 105.426 75.2519C105.866 66.1217 107.87 58.1405 113.823 52.4082C120.362 46.1992 128.049 41.1513 135.493 35.969C141.812 31.5812 148.498 27.6822 155.049 23.6611C156.711 22.6466 158.557 21.9744 161.478 20.5932Z" fill="black"/>
<path d="M43.9353 384.332C52.6987 392.607 62.0488 400.356 70.0178 409.339C75.1146 415.072 81.2258 418.09 87.7526 421.085C89.7469 422.015 91.4591 423.458 92.7149 425.265C82.5825 425.986 74.748 421.598 69.0768 414.082C63.2344 406.345 57.0254 399.622 48.0175 395.32C39.6818 391.348 34.744 383.856 31.3828 374.848C42.3039 375.696 52.5394 380.503 60.1666 388.366C67.6711 395.797 75.7135 402.69 83.3892 409.902C85.4547 411.845 87.2392 414.094 89.1459 416.208L87.7893 417.98C84.2326 416.025 80.0158 414.729 77.2536 411.979C71.7046 406.455 67.4756 399.586 61.7066 394.33C56.6465 389.698 50.2542 386.52 44.4608 382.694L43.9353 384.332Z" fill="black"/>
<path d="M384.979 452.472C389.77 449.197 394.157 444.833 399.438 442.89C408.766 439.364 417.327 434.073 424.652 427.306C434.125 418.751 445.321 418.971 457.054 419.533C440.823 437.39 420.974 448.732 396.761 452.362L444.514 426.316L443.145 423.872L386.042 453.804L384.979 452.472Z" fill="black"/>
<path d="M29.4874 182.455L29.7563 178.605L28.9251 178.409L24.6473 186.158L23.0462 185.804L26.1996 171.552L24.5617 170.843C23.1684 173.85 21.5428 176.771 20.455 179.888C19.8654 182.046 19.529 184.265 19.4528 186.5C18.0227 199.798 16.5194 213.084 15.2972 226.394C14.6983 232.823 14.6616 239.313 14.3194 246.879C4.43148 236.233 4.4559 224.879 7.64595 213.096C10.176 203.734 14.4905 194.763 15.9083 185.241C17.3261 175.72 21.445 168.13 27.1773 160.797C32.0663 167.262 32.9952 176.93 29.4018 182.345L29.4874 182.455Z" fill="black"/>
<path d="M379.783 450.174C386.481 439.48 401.344 440.396 405.732 427.538L390.881 438.184L389.842 437.451L391.407 432.562C384.073 437.903 380.981 446.923 371.154 448.524C380.126 436.901 420.301 407.481 430.726 404.793C429.504 417.43 422.635 426.304 412.564 432.77C403.055 438.881 393.142 444.381 383.377 450.089C382.814 450.455 381.873 450.174 379.783 450.174ZM423.21 414.595C415.717 415.927 408.922 421.928 408.066 426.915L418.638 422.747L415.962 420.523C418.541 418.396 420.875 416.489 423.21 414.595Z" fill="black"/>
<path d="M45.7578 354.118C52.8468 353.018 57.9802 356.233 61.427 361C69.7137 372.403 77.3161 384.308 84.894 396.298C72.2682 387.253 66.2426 372.244 54.0446 362.601L60.9136 372.085L55.8168 370.13C68.7115 385.408 81.5817 400.784 99.3531 411.026C92.3985 411.515 87.5096 409.229 81.9851 404.047C73.1116 395.736 63.8836 387.755 55.4379 379.028C52.2357 375.715 50.4023 370.851 48.6545 366.426C47.2245 362.735 46.7967 358.628 45.7578 354.118Z" fill="black"/>
<path d="M259.648 3.18855C270.759 -0.747062 281.368 -1.98153 291.72 5.02192C295.876 7.83307 300.386 10.1187 304.639 12.7832C306.257 13.8044 307.553 15.2619 308.379 16.9877C298.956 12.4898 286.122 16.0954 279.534 4.49636V8.16308L270.037 6.45195L269.573 8.15085L315.028 24.5289L314.38 26.13C294.409 27.5356 272.543 20.7155 259.648 3.18855Z" fill="black"/>
<path d="M471.095 340.417C464.593 350.329 458.091 360.242 450.855 371.242C450.684 358.702 464.373 340.246 476.106 336.188C477.769 341.749 478.551 347.274 475.703 352.542C473.047 357.57 469.955 362.355 466.463 366.842C459.276 375.667 451.979 384.467 443.998 392.509C439.5 397.056 433.548 400.172 428.243 403.925L426.887 402.177C427.718 401.224 428.366 399.879 429.417 399.378C438.62 394.954 442.214 385.542 448.459 378.502C452.933 373.454 458.237 369.115 463.126 364.52L461.195 364.239L473.026 341.517L471.095 340.417Z" fill="black"/>
<path d="M69.8227 348.777C83.9763 362.699 98.5576 376.241 101.601 397.325C93.2775 388.109 83.2674 379.773 84.7219 365.131L82.6929 364.471L81.6663 367.392L75.2983 358.237C78.9651 380.592 96.8465 394.025 106.246 412.945C104.681 412.945 104.192 413.079 104.07 412.945C94.3654 400.417 84.3063 388.133 75.1639 375.214C72.4621 371.432 70.5897 367.122 69.6692 362.566C68.7488 358.01 68.8011 353.311 69.8227 348.777Z" fill="black"/>
<path d="M471.903 383.306C458.092 380.861 453.827 391.641 446.077 396.555C454.23 379.028 474.104 364.129 488.282 365.864C485.055 371.022 482.965 376.754 478.956 380.311C465.915 391.898 452.201 402.715 438.622 413.739C436.563 415.416 434.111 416.54 431.496 417.003C444.66 405.929 452.152 388.806 471.903 383.306Z" fill="black"/>
<path d="M464.984 224.414C463.236 221.97 460.926 219.757 459.851 217.081C454.864 204.651 447.714 193.577 440.637 182.271C436.274 175.305 435.748 165.905 433.377 156.946C454.045 161.359 462.1 181.978 462.417 205.714C454.51 201.228 458.054 191.89 453.348 185.571C448.459 178.959 446.125 170.22 439.036 164.549C448.195 184.243 457.345 203.929 466.487 223.608L464.984 224.414Z" fill="black"/>
<path d="M432.512 385.004H427.476C431.143 377.781 434.589 370.949 438.244 364.226C441.764 357.81 445.577 351.539 449.244 345.208L447.044 343.986C441.935 352.334 436.301 360.413 431.852 369.091C427.403 377.769 424.262 386.972 419.764 395.528C420.24 372.098 433.367 355.402 448.865 338.4C453.974 348.178 451.848 356.538 448.205 364.067C444.783 371.144 439.65 377.365 435.078 383.88C434.626 384.54 433.343 384.638 432.438 385.004H432.512Z" fill="black"/>
<path d="M229.093 4.85076L194.125 23.1844L193.318 21.6321C200.028 9.80085 209.623 2.93187 223.752 2.69964C231.501 2.57742 239.214 1.23295 247.378 0.401825C241.805 15.7776 213.73 25.1644 201.886 22.2677L235.266 9.87419L235.07 8.96975L223.923 10.192L229.827 5.84081L229.093 4.85076Z" fill="black"/>
<path d="M361.217 65.9262L328.094 54.6693L327.312 56.9794C336.902 60.4424 346.489 63.8932 356.071 67.3318C365.018 70.5096 373.977 73.6263 382.961 76.7675L382.521 78.6253C378.475 78.6253 374.185 79.493 370.408 78.4664C357.917 75.0441 345.45 71.4018 333.313 66.9284C326.909 64.5695 321.201 60.3039 314.246 56.356C329.915 48.8392 343.335 53.0193 361.217 65.9262Z" fill="black"/>
<path d="M225.427 488.932C212.446 494.554 199.625 497.328 185.667 493.564C177.392 491.327 168.385 492.036 159.792 490.814C155.795 490.239 152.007 488.223 148.12 486.854L148.01 484.189C152.789 482.71 157.69 479.704 162.334 480.046C174.117 480.926 185.777 483.37 197.498 485.082C205.687 486.304 213.901 487.294 222.114 488.394C223.202 488.54 224.314 488.748 225.427 488.932ZM155.954 485.534C159.927 486.035 162.921 486.34 165.879 486.817C177.454 488.724 188.979 491.07 200.615 492.415C205.235 492.953 210.112 491.339 214.879 490.704L214.707 489.103C213.792 488.856 212.842 488.761 211.896 488.822C196.789 492.488 182.795 485.522 168.25 483.933C164.033 483.529 160.562 482.087 155.942 485.534H155.954Z" fill="black"/>
<path d="M123.637 76.1319C132.792 68.3951 141.287 60.6705 154.083 60.1572L153.313 58.3238L150.307 57.3705L161.136 48.7048L159.779 46.7003C151.81 52.0782 143.731 57.2849 135.921 62.895C127.866 68.6762 120.105 74.8363 111.867 80.4709C120.044 70.5951 127.842 60.3772 139.355 53.8504C143.292 51.7466 147.031 49.2922 150.527 46.517C155.342 42.4098 161.55 40.3057 167.87 40.638C163.091 56.0749 142.863 72.4285 123.637 76.1319Z" fill="black"/>
<path d="M328.975 473.629C349.007 454.073 369.492 448.952 380.492 453.181C369.651 470.195 351.672 472.444 334.524 476.404L333.705 474.595L372.963 458.021C357.447 460.401 342.521 465.697 328.975 473.629Z" fill="black"/>
<path d="M72.2051 429.848C84.6353 432.916 96.0143 434.493 106.428 438.612C116.841 442.731 125.813 449.307 134.979 455.98C130.469 453.939 125.984 451.8 121.425 449.869C116.866 447.938 112.221 446.202 107.638 444.369C103.054 442.535 98.8988 440.36 94.3521 439.003C91.1376 438.05 87.5809 438.233 84.183 437.903L83.6452 439.626L127.059 455.027L126.631 456.53C120.398 456.64 114.409 457.398 108.396 453.352C103.641 450.162 97.6643 448.695 92.1031 446.801C87.8124 445.468 83.8368 443.278 80.4166 440.364C76.9965 437.45 74.203 433.873 72.2051 429.848Z" fill="black"/>
<path d="M143.816 454.195C141.971 453.829 140.687 453.902 139.795 453.34C126.082 444.784 112.221 436.522 98.9233 427.404C95.6111 425.131 94.2055 420.071 91.9199 416.404L93.0566 414.473C99.9623 416.819 107.833 417.809 113.566 421.806C123.344 428.638 131.716 437.377 140.663 445.346C141.281 446.032 141.818 446.787 142.264 447.595L141.115 448.976C135.224 444.589 129.32 440.225 123.454 435.813C117.587 431.401 112.209 427.086 106.342 423.016C104.888 422.002 102.676 422.124 100.561 421.696C104.729 430.924 114.067 432.855 121.193 437.744C128.685 442.865 135.835 448.39 143.816 454.195Z" fill="black"/>
<path d="M488.342 153.781C490.787 160.075 493.659 166.248 495.578 172.713C498.622 182.919 501.139 193.284 503.657 203.648C505.686 211.972 503.413 219.061 495.493 224.5C496.018 216.641 496.544 208.77 497.106 200.556L493.439 206.667L491.667 206.875C495.651 188.627 489.565 171.748 485.055 154.649L488.342 153.781Z" fill="black"/>
<path d="M124.764 405.721L119.875 410.928L115.23 406.577L113.641 408.031C126.181 422.344 140.225 435.336 152.178 450.59C149.832 448.854 147.289 447.265 145.138 445.346C133.731 435.365 122.356 425.326 111.013 415.23C110.109 414.424 108.801 413.617 108.569 412.615C107.066 406.223 105.807 399.781 104.291 392.509C113.702 394.061 118.713 400.674 124.69 405.77L124.764 405.721Z" fill="black"/>
<path d="M54.8755 97.9122C54.2766 103.632 54.7166 109.719 52.8222 115.024C50.0966 122.602 45.122 129.336 42.152 136.853C39.4141 143.746 38.033 151.178 36.1141 158.389C35.4907 160.735 35.063 163.131 34.513 165.722C28.4018 154.074 30.4796 136.498 38.9375 123.75C44.5231 115.354 49.6565 106.639 54.9855 98.0834L54.8755 97.9122Z" fill="black"/>
<path d="M416.609 232.738C410.498 232.628 405.181 226.895 405.279 220.625C405.376 214.355 411.035 208.757 417.086 208.965C420.17 209.129 423.07 210.483 425.176 212.742C427.283 215.001 428.431 217.989 428.379 221.077C428.147 227.543 422.793 232.86 416.609 232.738Z" fill="black"/>
<path d="M54.9848 98.0222C59.0589 93.0844 63.1045 88.1302 67.1216 83.1598C71.155 94.6122 65.6182 104.182 61.3893 114.095C55.5959 127.674 50.108 141.387 44.4613 155.04C43.0583 158.715 41.2678 162.231 39.1201 165.527C38.7901 151.116 44.9624 138.882 50.5603 126.183C56.0115 113.801 65.0927 102.813 66.7427 88.8432L65.2027 88.2076C63.2715 93.3288 61.3526 98.45 59.4704 103.425L54.8992 97.9245L54.9848 98.0222Z" fill="black"/>
<path d="M437.497 78.1119C439.844 85.2987 441.799 92.6444 444.696 99.5989C446.774 104.586 450.38 108.912 452.861 113.765C455.342 118.617 462.089 121.611 458.361 128.688C458.153 129.079 459.95 130.363 460.573 131.377C465.181 138.711 472.893 144.467 471.744 155.04C469.703 152.229 467.613 149.454 465.633 146.606C462.211 141.607 458.52 136.828 455.562 131.499C450.93 123.249 447.263 114.388 442.362 106.358C438.035 99.22 437.021 91.6055 436.629 83.6731C436.532 81.8153 436.629 80.0064 436.629 78.0875L437.497 78.1119Z" fill="black"/>
<path d="M163.361 474.436L138.916 460.991C146.653 453.438 161.809 453.34 170.89 460.111C177.502 465 184.102 469.999 191.509 475.548C182.355 470.292 171.648 472.517 163.532 465.208C159.657 461.724 154.402 458.608 147.46 460.624L165.928 469.461L163.349 474.497L163.361 474.436Z" fill="black"/>
<path d="M111.756 461.957C129.943 454.697 142.398 467.713 156.539 474.766L155.732 476.856L126.57 463.778L130.579 468.41L118.894 465.196L118.295 466.772L151.1 478.298C146.981 483.101 142.3 483.077 138.401 480.926C128.929 475.707 119.872 469.742 110.656 464.083L111.756 461.957Z" fill="black"/>
<path d="M279.939 477.54C275.147 462.397 262.558 471.6 253.514 467.542L257.034 460.294C264.441 459.696 271.261 459.463 277.971 458.498C282.725 457.813 286.979 458.4 288.873 462.849C290.902 467.628 289.142 472.04 284.583 474.949C283.226 475.805 281.784 476.514 279.939 477.54Z" fill="black"/>
<path d="M475.009 146.802C462.786 127.246 462.676 127.173 462.346 115.94L459.071 118.006C455.16 108.986 445.883 102.398 447.912 90.7132L445.92 91.7399L441.189 82.7198L443.096 81.6686C456.883 101.237 473.065 119.57 475.009 146.802Z" fill="black"/>
<path d="M370.408 468.691C383.022 455.247 398.324 454.024 414.947 456.029C408.836 468.422 384.256 477.614 375.383 470.549H384.965C386.578 468.374 387.202 466.589 388.302 466.21C393.46 464.438 398.764 463.081 404.008 461.492C406.452 460.771 408.738 459.879 411.109 459.048L410.449 457.019L370.408 468.691Z" fill="black"/>
<path d="M409.557 80.7153L450.318 135.851C443.193 136.645 410.473 97.2033 407.943 81.7542L409.557 80.7153Z" fill="black"/>
<path d="M15.8477 341.517C27.1167 348.728 41.9914 352.212 44.7047 368.284L43.2136 369.677C39.2413 364.96 35.3424 360.156 31.2479 355.548C29.3587 353.625 27.3633 351.809 25.2711 350.109L23.4255 351.979L39.4247 371.535C28.3023 371.78 17.4243 357.736 15.8477 341.517Z" fill="black"/>
<path d="M11.4365 274.098C0.0574662 268.146 -3.56032 250.692 3.91979 238.482C14.3333 251.585 17.9511 266.838 19.8089 282.703L17.3644 283.375C15.2622 274.453 13.1599 265.53 10.9721 256.217L8.52759 257.292C7.52535 254.689 6.54757 252.098 5.55755 249.507L3.22311 250.399C5.91204 258.234 8.6376 266.08 11.4365 274.098Z" fill="black"/>
<path d="M168.043 448.084L162.982 440.433C184.738 443.366 197.951 459.83 214.903 470.06C207.668 466.393 197.254 468.655 192.756 458.999L193.196 462.189L192.17 463.411C188.185 459.219 184.103 455.1 180.265 450.773C178.468 448.744 170.34 446.813 167.908 448.231L168.043 448.084Z" fill="black"/>
<path d="M254.759 458.73C246.35 467.64 251.202 476.135 255.761 485.754C251.605 484.959 248.427 484.422 245.213 483.688C244.284 483.468 242.903 482.845 242.768 482.16C241.436 476.77 239.419 471.307 239.432 465.88C239.444 459.439 244.675 457.214 254.759 458.73Z" fill="black"/>
<path d="M29.3664 182.32C28.8531 193.797 28.633 205.323 23.7563 216.078C23.4263 216.812 22.7419 217.521 22.7174 218.254C22.2285 231.308 21.7396 244.361 21.4952 257.366C21.4219 260.483 22.1063 263.611 21.7029 266.838C18.3907 260.861 16.594 254.616 17.6573 247.735C18.5862 241.746 19.2951 235.72 19.9062 229.694C21.1285 217.606 21.8251 205.457 23.5729 193.467C24.1596 189.58 27.4597 186.134 29.5008 182.467L29.3664 182.32Z" fill="black"/>
<path d="M481.619 145.983C484.723 163.742 487.473 179.485 490.37 196.095C480.14 192.978 482.108 185.29 480.995 179.203C480.103 174.315 479.676 169.279 478.918 164.341C478.013 158.413 477.207 152.595 481.619 145.983Z" fill="black"/>
<path d="M167.908 448.158C172.259 451.274 176.464 454.648 180.974 457.471C187.359 461.639 193.996 465.406 200.848 468.752C206.751 471.466 213.51 472.419 217.641 478.176C199.98 474.912 183.577 469.131 171.612 454.807C170.01 452.9 169.167 450.309 168.043 448.035L167.908 448.158Z" fill="black"/>
<path d="M308.6 9.11643C324.489 8.51753 333.154 20.1166 343.519 28.5867L312.059 11.8176L311.105 13.1498C315.249 16.181 319.184 19.5666 323.584 22.1455C327.984 24.7244 332.922 26.4967 338.593 29.0756C325.65 31.9356 313.427 23.6 308.6 9.11643Z" fill="black"/>
<path d="M434.893 104.965C426.814 96.5433 418.686 87.9754 410.448 79.5419C407.307 76.3397 400.805 76.0219 402.149 67.7228C409.092 73.0151 415.521 77.8675 421.876 82.842C423.441 84.0642 424.455 86.3743 426.154 86.9976C435.37 90.3588 434.6 98.0344 434.893 104.965Z" fill="black"/>
<path d="M285.035 36.4091C275.134 42.1903 266.395 46.2481 256.422 40.6136C264.892 29.5523 284.411 24.1989 294.947 30.8356L263.315 37.1057C271.113 40.8825 277.53 36.5802 285.035 36.4091Z" fill="black"/>
<path d="M382.703 82.7686L379.036 88.5376L365.482 85.2131L364.932 86.9365L384.695 95.0277C384.414 95.7 384.145 96.3722 383.876 97.0444C373.023 97.9733 363.599 94.2822 354.408 87.1076C364.137 82.1942 373.524 80.4464 382.703 82.7686Z" fill="black"/>
<path d="M233.872 30.8234L246.535 36.1891L246.266 38.5235C224.925 39.7458 203.646 39.2324 182.514 34.8568L182.587 33.0968L235.608 36.1891L232.98 32.7912L233.872 30.8234Z" fill="black"/>
<path d="M395.232 60.4505C388.118 52.7626 381.616 44.3536 373.696 37.5824C366.093 31.0801 357.024 26.2889 349.043 20.1043C372.021 24.5777 384.207 41.8969 396.71 58.8249L395.232 60.4505Z" fill="black"/>
<path d="M474.765 259.651C468.336 247.539 452.838 240.633 453.852 224.096C465.537 227.042 471.844 234.534 477.185 251.963L458.704 226.296L456.578 227.812L463.117 236.16L458.093 235.708C465.476 243.334 473.359 249.348 474.765 259.651Z" fill="black"/>
<path d="M320.638 35.3457L299.86 49.7437L301.082 51.7115L315.565 43.1558C311.618 52.2371 303.441 56.136 291.512 55.3783C298.919 40.2958 305.494 35.9079 320.638 35.3457Z" fill="black"/>
<path d="M182.134 24.5044C183.559 22.464 185.093 20.5015 186.729 18.6254C188.477 16.7921 190.543 15.2643 191.997 12.942C181.315 16.2788 173.517 24.0522 164.949 31.0068C164.032 21.0822 183.674 7.6986 196.984 8.67639C196.458 14.3231 187.719 23.6122 182.134 24.4678V24.5044Z" fill="black"/>
<path d="M175.082 38.1568C193.904 35.2968 203.866 50.0248 216.638 59.6072C211.187 61.795 204.416 60.2428 203.193 55.6349C200.749 46.9448 194.014 45.9792 186.962 44.5614C182.611 43.6814 178.406 42.1169 174.141 40.7969L175.082 38.1568Z" fill="black"/>
<path d="M500.429 227.054C506.222 239.9 508.141 251.499 500.514 263.795V234.192L498.265 234.045C497.605 241.574 496.945 249.116 496.249 257.036C489.428 246.036 495.442 237.297 500.429 227.054Z" fill="black"/>
<path d="M500.174 331.042C501.787 339.268 499.184 345.856 494.612 351.894C493.39 353.507 491.789 354.986 491.105 356.783C489.283 361.611 486.02 362.515 481.412 361.085L500.174 331.042Z" fill="black"/>
<path d="M484.541 195.814C492.681 205.958 495.37 231.075 489.797 238.861C488.024 224.769 486.362 211.128 484.541 195.814Z" fill="black"/>
<path d="M107.981 50.7459L101.662 66.8062L100.158 66.2317L99.0341 63.225C92.8617 68.8351 94.6339 79.7986 85.3082 82.9887C84.6971 77.6719 100.501 54.2171 107.981 50.7459Z" fill="black"/>
<path d="M110.34 91.8377C124.53 86.1176 139.894 89.6254 155.172 85.1031C150.283 93.4755 142.949 95.7 127.952 94.001L143.328 91.6177L143.169 89.601L110.34 91.8377Z" fill="black"/>
<path d="M124.676 405.77C129.565 411.882 134.552 417.993 139.343 424.104C141.745 427.055 143.461 430.504 144.367 434.2C137.314 425.827 124.579 421.977 124.139 408.606C124.23 407.618 124.443 406.645 124.774 405.709L124.676 405.77Z" fill="black"/>
<path d="M185.252 27.89C192.585 27.6945 199.919 27.0589 207.252 27.4378C214.665 27.9622 222.023 29.0904 229.253 30.8112C214.586 33.9768 199.919 29.1367 185.252 30.6523V27.89Z" fill="black"/>
<path d="M161.283 446.324C154.194 437.989 144.771 431.217 142.082 418.445C152.642 425.729 158.265 435.092 161.283 446.324Z" fill="black"/>
<path d="M57.9791 230.415C59.9958 242.039 55.0334 253.406 46.5633 255.312C48.7038 252.731 50.707 250.038 52.5645 247.246C54.0673 244.714 54.9664 241.87 55.1923 238.934L45.5244 251.829L43.1777 250.081C46.0011 242.344 54.4712 238.531 57.9791 230.415Z" fill="black"/>
<path d="M279.326 48.0692L294.164 41.6769C294.445 42.3858 294.739 43.1069 295.032 43.8158L272.738 53.1171C278.666 40.7358 290.864 34.3679 299.518 37.4846L278.397 45.7592L279.326 48.0692Z" fill="black"/>
<path d="M448.9 415.084L464.79 402.079L464.081 400.857L454.926 406.1L454.181 404.634L468.847 397.202L470.143 399.256C465.718 407.665 459.717 414.228 448.9 415.084Z" fill="black"/>
<path d="M90.2089 143.978C93.8756 154.306 89.7811 161.444 79.7465 164.097L77.9742 162.385L91.0767 153.524L88.9011 151.263L79.2454 159.342L77.8887 158.205L90.2089 143.978Z" fill="black"/>
<path d="M278.057 487.282C283.032 488.333 288.251 488.773 292.908 490.643C295.914 491.865 299.471 494.884 296.122 498.991C295.205 500.115 292.455 499.687 290.487 499.981C289.522 492.391 283.288 491.071 277.189 489.567L278.057 487.282Z" fill="black"/>
<path d="M480.996 201.045C482.646 212.326 484.308 223.608 485.884 234.901C485.946 235.353 485.518 235.891 485.017 237.162C478.356 225.148 477.182 213.341 481.093 200.935L480.996 201.045Z" fill="black"/>
<path d="M463.152 205.995C470.669 210.346 470.388 217.802 472.063 224.488C473.737 231.173 475.729 237.932 476.499 245.082L463.152 205.995Z" fill="black"/>
<path d="M406.146 53.496C415.851 55.6838 424.382 65.7184 421.363 73.5163L406.318 53.3004L406.146 53.496Z" fill="black"/>
<path d="M406.318 53.3004C401.331 53.8504 404.704 56.6127 405.511 57.7127C409.068 62.6017 412.979 67.3195 416.695 71.9885C406.917 70.0329 401.026 61.4528 400.5 46.957C402.944 49.6704 404.546 51.5526 406.196 53.4471L406.318 53.3004Z" fill="black"/>
<path d="M352.367 30.0779C367.034 35.1746 372.167 39.1102 378.169 50.0248L352.367 30.0779Z" fill="black"/>
<path d="M205.869 42.398L221.196 47.6537L222.088 45.2092L213.031 41.628C218.874 39.1835 224.423 41.628 229.788 49.1815C220.536 51.0026 212.873 48.0814 205.869 42.398Z" fill="black"/>
<path d="M314.367 51.4915C321.701 41.3591 328.716 37.9124 331.967 42.8258L319.904 46.6759C325.551 48.0203 331.124 43.2292 335.671 48.0081L314.367 51.4915Z" fill="black"/>
<path d="M427.855 154.844C416.537 152.937 413.444 149.307 412.662 137.794C418.223 144.052 423.039 149.454 427.855 154.844Z" fill="black"/>
<path d="M491.739 313.21L482.731 342.788L480.689 342.25C483.354 332.285 486.01 322.32 488.659 312.354L491.739 313.21Z" fill="black"/>
<path d="M208.768 510.504C210.627 508.771 212.626 507.193 214.744 505.786C217.401 504.353 220.194 503.187 223.08 502.303C224.119 501.961 225.451 502.523 226.661 502.67C226.05 503.892 225.769 505.908 224.791 506.336C219.902 508.524 214.891 510.309 209.916 512.24L208.768 510.504Z" fill="black"/>
<path d="M302.635 502.107C311.74 500.335 320.125 504.283 320.968 510.516L302.635 502.107Z" fill="black"/>
<path d="M182.135 24.4678C180.265 30.4445 172.785 35.6269 164.693 34.6002C169.362 31.8542 174.039 29.1042 178.725 26.35C179.837 25.69 180.998 25.1278 182.135 24.5044V24.4678Z" fill="black"/>
<path d="M443.84 312.024C444.745 310.46 445.637 308.895 446.578 307.233C450.428 312.428 451.198 321.167 447.8 330.211C447.8 327.278 447.727 324.332 447.8 321.399C447.91 317.561 448.754 313.491 443.73 311.878L443.84 312.024Z" fill="black"/>
<path d="M432.412 384.943C432.315 386.447 432.767 388.353 432.021 389.392C427.78 395.247 423.258 400.894 418.821 406.614L416.621 404.951C421.934 398.327 427.23 391.686 432.51 385.029L432.412 384.943Z" fill="black"/>
<path d="M61.0718 414.02C68.5275 415.805 71.0697 419.777 67.2563 426.353C64.4085 422.307 61.964 418.812 59.5195 415.353L61.0718 414.02Z" fill="black"/>
<path d="M200.015 53.5938L178.846 48.4848L179.457 46.187C185.861 48.6681 193.879 45.2581 200.015 53.5938Z" fill="black"/>
<path d="M69.1754 319.749V342.03C64.4087 335.638 64.3598 330.994 69.1754 319.749Z" fill="black"/>
<path d="M61.3405 131.744C63.1494 141.106 54.9726 143.807 51.7214 149.784L49.998 148.623L61.3405 131.744Z" fill="black"/>
<path d="M443.705 311.878C444.17 320.042 444.647 328.219 445.123 336.457C440.638 332.79 440.051 320.458 443.901 312.012L443.705 311.878Z" fill="black"/>
<path d="M163.312 474.448C172.748 472.004 181.451 474.693 189.896 479.105C181.072 477.54 172.239 475.976 163.398 474.411L163.312 474.448Z" fill="black"/>
<path d="M300.753 474.265L282.053 481.843C288.653 474.008 292.271 472.321 300.154 472.737L300.753 474.265Z" fill="black"/>
<path d="M68.3571 110.122C66.8537 114.486 65.5337 118.935 63.7859 123.213C62.6348 125.988 60.842 128.451 58.5547 130.399C61.2925 123.384 61.537 115.195 68.4671 110.208L68.3571 110.122Z" fill="black"/>
<path d="M68.465 110.208C68.9219 102.512 72.3643 95.2982 78.0596 90.1021L79.6852 90.9821C75.8881 97.354 72.0992 103.722 68.3184 110.086L68.465 110.208Z" fill="black"/>
<path d="M229.094 483.725L250.3 488.822C239.458 490.777 235.205 489.64 229.094 483.725Z" fill="black"/>
<path d="M446.016 127.405L436.678 108.045L438.609 107.116C441.616 113.634 444.63 120.128 447.653 126.598L446.016 127.405Z" fill="black"/>
<path d="M41.649 254.029C40.5164 258.486 39.3838 262.968 38.2511 267.474L35.3789 266.667L39.1923 253.222L41.649 254.029Z" fill="black"/>
<path d="M190.691 427.807C186.18 428.137 181.67 428.638 177.16 428.761C171.159 428.999 165.149 428.729 159.193 427.954C169.648 427.954 180.106 427.954 190.568 427.954L190.691 427.807Z" fill="black"/>
<path d="M242.317 506.471C235.485 512.313 233.591 508.732 231.488 502.621L242.317 506.471Z" fill="black"/>
<path d="M277.789 497.988L270.455 498.294C270.455 496.73 270.455 495.165 270.455 493.588L277.984 494.811L277.789 497.988Z" fill="black"/>
<path d="M423.208 414.595C420.873 416.489 418.551 418.396 415.96 420.523L418.637 422.747L408.064 426.915C408.92 421.953 415.716 415.927 423.208 414.595Z" fill="white"/>
</svg>
