<svg width="512" height="389" viewBox="0 0 512 389" fill="none" xmlns="http://www.w3.org/2000/svg">
<path d="M256 0H257.6C258.582 1.17274 259.652 2.2692 260.8 3.27998C295.552 29.168 335.008 43.28 377.504 49.552C393.216 51.84 409.12 52.944 425.504 54.656V101.6C410.032 105.728 404.528 111.28 404.144 123.2H512V257.6H411.2C411.296 265.76 415.52 270.4 421.488 273.248C427.024 275.856 433.088 277.312 439.68 279.536C386.288 324.336 333.552 368.688 265.52 388.8H243.2C224.32 380.464 204.704 373.44 186.704 363.52C145.936 341.12 109.632 312.224 74.88 281.44C73.9617 280.439 73.1219 279.37 72.368 278.24C85.168 275.792 97.664 273.984 101.632 257.616H0V123.2H108.48C108.016 111.36 102.672 105.712 87.952 101.024V53.184C89.888 52.992 91.424 52.896 92.96 52.688C115.872 49.488 139.072 47.664 161.632 42.848C196 35.488 228.032 21.968 256 0ZM10.992 247.12H501.104V136.496H10.992V247.12ZM110.192 74.24C120.016 72.944 129.536 71.92 138.992 70.416C179.264 64.016 218.016 53.264 252.736 30.752C254.576 29.552 258.752 30.096 260.864 31.408C291.679 50.6254 326.066 63.4047 361.952 68.976C375.504 71.184 389.152 72.864 402.464 74.736C404.288 82.464 402.144 87.68 395.632 92.544C386.032 99.712 381.392 110.144 381.632 122.752H392.832C393.696 109.648 400.512 101.152 411.344 95.28C412.179 94.7564 412.887 94.0544 413.418 93.2245C413.95 92.3946 414.29 91.4573 414.416 90.48C414.72 81.728 414.56 72.96 414.56 63.488C357.936 58.896 303.52 48.848 256.704 14.256C209.312 47.68 155.328 59.744 97.936 63.216C97.936 72.816 97.856 81.76 98.032 90.768C98.0884 91.5038 98.3087 92.2177 98.677 92.8573C99.0452 93.4968 99.5519 94.0458 100.16 94.464C112 100.208 117.904 109.952 119.12 122.816H130.08C130.407 117.028 129.281 111.249 126.806 106.007C124.33 100.765 120.582 96.2245 115.904 92.8C109.216 87.648 108.32 82.064 110.24 74.24H110.192ZM393.104 284.96L395.344 284.544C394.464 285.759 393.484 286.899 392.416 287.952C364.069 311.82 333.478 332.889 301.072 350.864C270.672 367.808 240.688 368.976 211.152 350.272C184.192 333.216 157.904 315.072 131.472 297.168C126.08 293.52 121.424 288.8 116.288 284.464C123.872 276.864 129.008 269.168 127.488 258.32H115.536C113.936 269.648 107.664 277.696 96.784 283.152C136.208 318.768 178.096 348.512 225.84 369.712C246.896 379.072 267.44 378.864 288.336 369.28C334.134 348.131 376.289 319.854 413.232 285.504C413.981 284.566 414.63 283.553 415.168 282.48C403.968 278.048 397.872 269.84 396.288 258.608H382.448C386.448 268.336 389.808 276.64 393.152 284.96H393.104ZM233.424 88.624H233.056C233.056 81.152 233.136 73.696 233.056 66.224C232.944 59.968 229.408 56 223.456 57.76C214.562 60.4691 205.921 63.949 197.632 68.16C195.488 69.216 193.92 73.456 193.824 76.288C193.408 88.272 193.552 100.288 193.664 112.272C193.664 118.96 197.488 122.688 203.968 123.2C209.008 123.6 214.096 123.328 219.152 123.296C229.024 123.296 233.088 119.44 233.456 109.424C233.6 102.496 233.424 95.552 233.424 88.624ZM281.664 88.416H281.504C281.504 95.616 281.328 102.816 281.504 110.016C281.776 119.168 285.84 123.088 294.768 123.2C299.84 123.2 304.912 123.408 309.968 123.2C316.832 122.848 321.008 119.12 321.168 112.16C321.424 100.16 321.584 88.16 320.96 76.176C320.786 74.3916 320.227 72.6664 319.32 71.1194C318.414 69.5724 317.183 68.2406 315.712 67.216C308.384 63.426 300.739 60.2834 292.864 57.824C286.176 55.664 281.92 59.056 281.664 66.08C281.472 73.488 281.6 80.96 281.6 88.416H281.664ZM173.84 104L174.704 122.784H185.456V71.584C168.832 71.072 172.656 88.368 164.144 95.184C161.504 90.16 159.456 85.168 156.384 80.928C155.184 79.328 151.584 78.384 149.312 78.656C147.296 78.912 143.984 81.232 143.936 82.736C143.504 95.936 143.68 109.152 143.68 122.736H155.2V106.256L156.528 106.032L164.976 122.928L173.84 104ZM252.48 257.984C247.152 257.984 242.64 257.632 238.192 258.064C230.736 258.8 224.4 265.264 224.384 272.016C224.288 293.6 224.128 315.216 224.56 336.768C224.56 340.256 226.56 345.168 229.248 346.864C236.336 351.328 244.304 354.384 252.208 358.064C253.632 344.976 253.808 344.736 243.792 340.16C238.688 337.808 236.912 334.592 237.056 328.96C237.456 314.848 237.216 300.72 237.248 286.592C237.28 272.464 237.248 272.432 251.024 270.992C251.456 270.992 251.856 270.4 252.48 269.904V257.984ZM371.6 122.832C371.6 119.632 372.384 116.432 371.456 113.952C368.976 107.36 371.344 100.944 371.28 94.464C371.28 89.312 373.008 82.624 366.656 80.48C355.568 76.736 344.048 74.272 332.24 71.168V122.752H343.28C343.552 118.192 343.808 114.064 344.032 110.08C357.936 107.552 357.936 107.552 360.816 122.88L371.6 122.832ZM339.2 280.288C339.456 275.952 339.632 273.152 339.84 269.584H367.584V258.176C357.888 258.176 348.56 257.504 339.424 258.512C335.872 258.912 330.4 262.704 329.824 265.664C328.464 273.36 329.376 281.456 329.376 291.264H357.648L358.352 294.224C350.096 299.792 342.016 305.664 333.504 310.8C328.128 314 326.528 317.824 328.592 323.6C329.26 323.531 329.916 323.375 330.544 323.136C340.256 317.104 349.744 310.592 359.728 305.168C366.992 301.248 369.84 296.304 369.328 288.032C368.944 282.336 367.728 279.824 361.6 280.224C354.544 280.64 347.408 280.288 339.2 280.288ZM278.256 64.736C278.128 58.496 280.192 53.536 273.632 49.904C255.776 39.888 255.744 39.232 239.424 50.528C236.304 52.704 235.68 58.528 233.904 62.576L236.032 63.76L250.784 56.88V122.656H263.584V56.752L278.256 64.736ZM262.848 356.496C270.448 353.072 276.912 350.256 283.296 347.28C289.68 344.304 290.416 341.376 286.656 334.56L275.2 338.208V258.496H262.8L262.848 356.496ZM305.44 290.416V271.216L322.192 270.432V258.112C315.056 258.112 308.464 257.968 301.888 258.112C297.216 258.24 294.64 260.528 294.656 265.632C294.656 288.528 294.656 311.424 294.544 334.32C294.544 339.952 297.488 340.72 301.76 338.816C306.352 336.736 310.576 333.84 315.2 331.856C321.216 329.312 321.904 325.456 319.456 319.616L305.2 324.944V301.216L318 300.24L317.568 291.328L305.44 290.416ZM179.664 257.808C191.088 279.952 196.528 301.568 193.872 324.624C192.912 333.008 197.936 335.28 205.792 337.312C201.92 308.944 205.392 282.656 222.16 259.12C204.56 254.128 207.152 271.248 199.136 276.528C197.44 271.728 195.536 267.456 194.336 262.928C192.304 255.264 186.64 258.64 179.664 257.808ZM172.336 258.064C163.472 258.064 154.928 257.408 146.592 258.448C143.872 258.784 139.968 263.328 139.6 266.32C137.792 281.424 137.536 296.304 154.848 304.064C158.4 305.664 161.248 308.864 164.448 311.2C169.584 315.104 174.752 318.992 180.176 323.088C182.576 314.832 180.48 309.696 174.064 305.792C169.264 302.912 165.488 298.448 160.688 295.712C152.688 291.136 150.784 284.272 152.432 276.16C152.844 274.882 153.553 273.719 154.502 272.768C155.45 271.817 156.611 271.104 157.888 270.688C162.464 269.84 167.312 270.432 172.288 270.432L172.336 258.064Z" fill="black"/>
<path d="M489.297 147.472V233.6H23.1846V147.472H489.297ZM447.697 157.232V223.904H456.081V193.312C459.041 200.351 461.25 207.682 462.673 215.184C465.009 225.52 465.457 225.792 476.769 223.44V156.8H467.009V184.528C466.458 183.487 465.962 182.419 465.521 181.328C464.337 176.144 463.201 170.96 462.017 165.776C459.665 155.2 459.489 155.088 447.745 157.232H447.697ZM441.601 190.4C441.601 182.688 441.601 174.976 441.601 167.264C441.489 159.088 436.801 155.024 427.601 154.8C418.785 154.592 413.585 158.384 413.409 166.16C413.025 182.373 412.923 198.592 413.104 214.816C413.201 222.544 419.041 226.768 428.065 226.624C436.545 226.48 441.377 222.192 441.537 214.32C441.697 206.448 441.601 198.4 441.601 190.4ZM240.961 156.08V224.672C245.761 224.672 250.017 224.8 254.225 224.672C262.977 224.384 266.337 221.472 266.561 212.672C266.945 197.808 266.929 182.928 266.689 168.048C266.561 160.32 262.433 156.496 254.721 156.128C250.273 155.904 245.825 156.08 240.961 156.08ZM37.5206 156.624V224H47.7766V196.8C54.9446 196.096 55.1046 196.096 55.2006 201.488C55.3446 209.088 55.2006 216.688 55.2006 224.752L65.3446 224.096V156.8H55.4406C55.4406 163.904 55.2806 170.528 55.4406 177.136C55.6326 182.64 53.3926 184.192 47.6326 182.384V156.624H37.5206ZM114.145 224.352V197.552C120.001 195.616 122.385 197.552 122.369 202.896C122.369 209.936 122.369 216.992 122.369 224.032H132.897C132.897 215.088 134.145 206.432 132.497 198.256C131.281 192.32 130.689 187.296 132.241 181.344C133.478 176.147 133.434 170.728 132.113 165.552C131.281 162.176 127.809 157.648 124.785 157.008C118.545 155.696 111.841 156.608 105.281 156.608V224.352H114.145ZM301.345 223.28C298.913 202.096 296.545 181.248 293.905 160.448C293.681 158.688 290.961 156.368 289.009 155.92C285.809 155.152 282.289 155.712 278.465 155.712C275.681 178.816 272.993 201.12 270.289 223.664H279.345L281.921 207.664C290.033 205.712 289.505 211.328 289.521 215.552C289.601 223.408 292.801 226.208 301.313 223.28H301.345ZM78.5766 224.608C78.9643 220.15 79.5945 215.717 80.4646 211.328C80.7881 210.462 81.3216 209.69 82.0169 209.082C82.7122 208.473 83.5478 208.046 84.4486 207.84C85.6326 207.84 87.6486 209.984 88.0326 211.504C89.0726 215.552 89.4406 219.76 90.0806 223.952H100.721C97.9686 200.96 95.2966 178.688 92.7206 156.656C78.1766 155.36 78.1766 155.36 76.1926 168.608C76.1926 168.864 76.0806 169.12 76.0486 169.392C73.9206 187.472 71.7926 205.568 69.6486 224.128L78.5766 224.608ZM349.137 224.288C353.937 224.288 358.401 224.096 362.817 224.288C370.577 224.72 374.417 220.64 374.577 213.472C374.913 197.792 374.865 182.112 374.689 166.432C374.689 160.288 371.009 156.4 364.929 155.792C359.67 155.49 354.399 155.452 349.137 155.68V224.288ZM408.129 178.832C408.129 173.92 408.353 169.68 408.129 165.472C407.681 158.864 402.721 155.184 394.529 155.008C386.785 154.832 380.945 158.72 380.273 164.864C378.929 177.104 378.577 188.864 392.081 195.776C398.481 198.976 398.945 205.552 397.889 211.872C397.633 213.472 395.457 214.64 394.161 216C393.009 214.496 391.073 213.104 390.833 211.472C390.519 207.683 390.465 203.876 390.673 200.08L380.785 200.528C380.785 205.888 380.673 210.4 380.785 214.928C380.993 222.592 384.673 225.824 393.217 226.128C402.433 226.352 407.377 222.656 408.209 215.472C409.681 202.816 408.033 191.616 395.537 184.8C389.025 181.264 389.809 175.2 390.497 169.36C390.657 168.048 392.945 165.808 393.697 166C394.612 166.229 395.465 166.658 396.196 167.255C396.926 167.853 397.515 168.604 397.921 169.456C398.464 172.588 398.683 175.767 398.577 178.944L408.129 178.832ZM307.521 223.632C316.017 226.16 320.433 225.04 320.785 215.632C321.137 206.224 323.361 197.2 324.625 187.968C326.049 177.568 327.345 167.168 328.785 156.064L319.041 156.64C317.441 168.16 316.033 178.896 314.577 189.616H312.977C311.377 178.688 309.777 167.76 308.177 156.672H298.657C301.681 179.392 304.577 201.504 307.489 223.648L307.521 223.632ZM163.793 156.544V224.336H184.001V215.136L174.625 213.872V195.344L183.601 193.744V184.48L174.737 183.776V167.44L183.089 166.208V156.608L163.793 156.544ZM206.033 224.144C210.017 201.264 213.889 178.976 217.793 156.544C212.753 154.48 209.489 156.16 208.193 162.368C207.281 166.944 205.729 171.392 204.465 175.904C202.27 171.442 200.765 166.673 200.001 161.76C198.737 154.112 193.601 156.624 189.697 156.96L200.737 224.16L206.033 224.144ZM139.777 156.544V224.272H159.921V214.896L149.825 214.16V156.56L139.777 156.544ZM332.801 224.096H341.921V156.192L332.801 156.608V224.096ZM226.049 186.144C223.921 186.144 221.585 185.584 219.761 186.336C218.321 186.912 216.385 189.376 216.657 190.528C218.257 197.232 223.873 193.6 227.681 193.968C229.809 194.176 232.177 192.016 234.433 190.928C233.217 189.328 232.065 187.728 230.769 186.128C230.545 185.872 229.745 186.128 229.169 186.128L226.049 186.144Z" fill="black"/>
<path d="M220.592 72.912C220.592 84.448 220.864 95.984 220.224 107.472C220.224 108.752 214.816 110.528 211.92 110.544C209.872 110.544 206.16 108.112 206.048 106.56C205.456 98.112 204.528 89.328 206.272 81.216C207.136 77.216 213.536 74.4 217.472 71.056L220.592 72.912Z" fill="black"/>
<path d="M308.912 110.496C304.464 110.496 301.232 110.896 298.192 110.32C296.688 110.032 294.432 107.952 294.4 106.64C294.096 95.328 294.224 84 294.224 72.528C307.888 74.832 308.896 75.968 308.912 88V110.496Z" fill="black"/>
<path d="M344.08 96.96V86.24C349.536 88.352 358.8 84.544 358.48 92.64C358.16 100.736 349.68 94.784 344.08 96.96Z" fill="black"/>
<path d="M423.409 189.664C423.409 183.552 423.136 177.424 423.568 171.344C423.696 169.568 425.825 167.92 427.025 166.224C428.625 167.824 431.441 169.504 431.489 171.2C431.825 184 431.744 196.704 431.376 209.456C431.376 211.136 428.833 212.752 427.473 214.384C426.097 212.784 423.664 211.184 423.552 209.584C423.088 202.96 423.36 196.304 423.36 189.664H423.409Z" fill="black"/>
<path d="M251.328 214.224V167.456L253.488 166.384C254.688 168.288 256.688 170.096 256.944 172.128C259.504 192.656 257.312 211.296 251.328 214.224Z" fill="black"/>
<path d="M113.92 186.176C113.92 179.6 113.712 174.384 114.064 169.216C114.16 168.048 116.112 166.432 117.456 166.112C118.8 165.792 121.136 167.2 121.168 167.904C121.5 173.12 121.382 178.356 120.816 183.552C120.704 184.512 117.072 185.04 113.92 186.176Z" fill="black"/>
<path d="M365.121 190.16C365.121 196.016 365.393 201.888 364.993 207.76C364.865 209.68 363.073 211.504 362.049 213.376C361.009 211.632 359.105 209.92 359.057 208.16C358.769 196.192 358.769 184.16 359.057 172.224C359.057 170.368 360.769 168.544 361.681 166.704C362.849 168.672 364.881 170.592 365.025 172.64C365.409 178.432 365.121 184.304 365.121 190.16Z" fill="black"/>
</svg>
