<svg width="424" height="333" viewBox="0 0 424 333" fill="none" xmlns="http://www.w3.org/2000/svg">
<path d="M105.869 276.12C97.2188 276.12 89.6388 276.24 82.0688 276.01C80.6488 276.01 79.0688 274.71 77.9188 273.64C57.2088 254.57 36.4088 235.64 15.9988 216.21C10.9533 211.39 6.67096 205.829 3.29876 199.72C-2.49124 189.2 -0.621238 179.12 8.60876 171.47C13.9133 167.24 19.8136 163.816 26.1188 161.31C127.839 119.35 229.605 77.51 331.419 35.79C360.419 23.87 389.549 12.06 419.119 0C414.259 24.86 407.119 47.88 381.119 58.06C358.119 67.06 334.839 75.57 311.499 83.78C243.619 107.64 175.685 131.36 107.699 154.94C84.1654 163.147 60.6554 171.39 37.1688 179.67C34.0276 180.755 31.0396 182.24 28.2787 184.09C20.7487 189.25 20.2787 196.19 26.9587 202.44C41.9587 216.44 56.9588 230.3 72.0388 244.23C82.2988 253.75 92.5454 263.283 102.779 272.83C103.579 273.6 104.289 274.46 105.869 276.12Z" fill="black"/>
<path d="M391.528 72.43C386.528 82.49 382.218 91.5 377.528 100.26C370.668 112.95 358.808 118.55 345.528 122.07C287.942 137.33 230.352 152.623 172.758 167.95C157.512 171.997 142.245 175.997 126.958 179.95C124.128 180.69 121.638 181.3 121.178 185.03C121.028 186.26 119.038 187.85 117.598 188.24C95.2117 194.38 72.7817 200.38 50.3084 206.24C48.2084 206.78 45.7184 206.24 43.4984 205.85C37.4984 204.69 32.9184 200.63 32.4984 196.37C32.0984 192.37 35.6383 188.31 42.0283 186.19C60.7483 179.95 79.5183 173.84 98.2783 167.72C192.358 137.053 286.445 106.363 380.538 75.65C383.658 74.71 386.848 73.83 391.528 72.43Z" fill="black"/>
<path d="M354.878 134C344.168 157.73 327.878 172.06 301.628 176.2C263.908 182.14 226.568 190.45 189.058 197.73C179.158 199.65 169.248 201.49 158.948 203.44C159.098 205.44 159.208 207.21 159.358 209.32L124.978 216.44C106.908 220.18 88.8583 224.05 70.7283 227.52C68.0787 227.856 65.3983 227.204 63.1983 225.69C58.1983 222.12 53.7283 217.9 48.2783 213.3L354.878 134Z" fill="black"/>
<path d="M314.569 189.63C303.739 209.34 287.759 219.63 266.759 222.3C247.266 224.733 227.749 226.963 208.209 228.99C202.619 229.57 205.639 233.69 204.299 236.66L172.209 240.93L97.6789 250.76C94.0989 251.24 91.0689 250.83 88.1589 248.04C83.2589 243.33 77.8289 239.17 71.5889 233.91L314.569 189.63Z" fill="black"/>
<path d="M264.389 275.12C247.129 275.12 229.869 275.01 212.609 275.12C182.609 275.35 152.699 275.8 122.739 275.91C119.874 275.762 117.13 274.712 114.899 272.91C109.339 268.45 104.219 263.46 98.0586 257.91C104.729 256.91 110.479 256.08 116.239 255.32C138.745 252.34 161.262 249.387 183.789 246.46C193.019 245.27 202.259 244.16 211.519 243.28C213.46 243.164 215.389 243.646 217.049 244.66C232.909 254.41 248.679 264.31 264.469 274.17L264.389 275.12Z" fill="black"/>
<path d="M233.159 315.74C233.429 310.13 233.849 304.51 233.819 298.9C233.819 297.9 232.149 296.38 230.969 296.03C229.309 295.54 227.389 295.91 225.129 295.91V286.66H255.769C256.079 289.45 256.399 292.32 256.769 295.73H245.469V332.97C235.859 332.97 227.249 333.09 218.659 332.85C217.349 332.85 215.859 331.31 214.849 330.13C208.649 322.95 202.569 315.66 196.439 308.42C195.439 307.21 194.339 306.03 193.289 304.83L191.919 305.17C191.919 310.38 191.799 315.59 192.039 320.78C192.039 321.62 193.559 322.78 194.599 323.11C196.301 323.519 198.039 323.761 199.789 323.83C199.609 326.9 199.439 329.67 199.279 332.33H170.349V323.26C170.749 322.99 170.869 322.83 171.009 322.82C179.819 322.28 179.819 322.28 179.829 313.26C179.829 309.26 179.599 305.26 179.829 301.26C180.059 297.26 178.749 295.32 174.519 295.85C172.794 295.951 171.064 295.951 169.339 295.85V286.94C181.539 286.94 193.489 286.83 205.439 287.07C206.879 287.07 208.569 288.72 209.669 290.01C216.039 297.49 222.259 305.09 228.539 312.64C229.539 313.86 230.619 315.03 231.669 316.22L233.159 315.74Z" fill="black"/>
<path d="M52.8182 332.6V323.89C61.6182 322.57 61.6181 322.57 60.6381 313.01H32.2482C30.7382 321.85 30.7382 321.85 40.5582 323.84V332.43H4.55818V324.12C13.4282 322.37 13.4382 322.37 13.3382 312.81C13.2881 307.81 13.2382 302.81 13.1582 297.81C13.0626 297.25 12.9221 296.698 12.7382 296.16L3.17818 295.71C3.17818 293.78 2.77817 291.89 3.29817 290.29C3.72817 288.96 5.20817 287.02 6.29817 287C17.5882 286.76 28.8881 286.85 40.5781 286.85V295.59L32.9782 296.12V305.12C41.2182 305.12 49.4882 305.25 57.7282 304.92C58.5482 304.92 59.8681 302 59.8382 300.46C59.7591 299.612 59.5028 298.79 59.0859 298.048C58.669 297.305 58.1009 296.659 57.4182 296.15C56.2382 295.37 54.2382 295.82 52.3082 295.71V286.97H88.3682V295.52L80.0582 296.3C80.0582 304.69 79.9782 312.96 80.1782 321.23C80.1782 321.95 81.8782 323.01 82.9282 323.23C84.701 323.434 86.4895 323.465 88.2681 323.32V332.59L52.8182 332.6Z" fill="black"/>
<path d="M260.269 332.74V323.84C260.709 323.56 260.949 323.3 261.269 323.24C269.889 321.5 269.899 321.5 269.849 312.52C269.849 308.85 269.509 305.17 269.849 301.52C270.189 297.3 269.019 295.1 264.409 295.84C263.387 295.886 262.363 295.842 261.349 295.71C261.169 292.99 260.999 290.28 260.789 287.13C262.649 286.92 264.069 286.62 265.489 286.61C281.799 286.49 298.119 286.26 314.429 286.38C329.429 286.49 341.099 298.99 338.669 311.88C336.569 323.06 327.899 331.88 315.509 332.49C297.209 333.4 278.909 332.74 260.269 332.74ZM290.409 323.49C297.009 323.06 303.479 323.08 309.799 322.1C315.469 321.22 319.859 315.16 320.039 309.48C320.209 304.01 316.849 298.48 310.949 297.28C304.459 295.93 297.669 296.02 290.409 295.43V323.49Z" fill="black"/>
<path d="M423.568 322.64V332.64H383.358V323.36L392.358 322.69C390.828 318.6 388.988 316.04 384.498 316.22C379.835 316.5 375.157 316.463 370.498 316.11C365.658 315.64 363.168 317.85 361.318 322.51L368.608 323.38V332.62H337.238C337.418 329.62 337.578 326.71 337.788 323.01C347.728 326.37 350.128 318.93 353.588 313.01C356.738 307.63 359.878 302.24 363.508 296.01H352.418C352.678 292.65 352.908 289.77 353.098 287.29C365.948 287.29 378.388 287.19 390.828 287.43C392.178 287.43 393.878 289.18 394.748 290.54C399.835 298.54 404.812 306.607 409.678 314.74C412.778 319.86 415.128 325.88 423.568 322.64ZM383.568 307.96L376.978 296.88L369.738 307.96H383.568Z" fill="black"/>
<path d="M125.449 332.98C116.901 332.56 108.648 329.723 101.649 324.8C89.6486 316.3 89.7186 303.28 101.649 294.74C117.099 283.74 143.229 283.74 158.649 294.74C170.719 303.38 170.499 316.37 158.149 325.1C151.149 330.12 140.679 333 125.449 332.98ZM130.089 294.83C121.359 294.83 113.959 301.63 113.889 309.67C113.819 317.98 121.359 324.93 130.329 324.82C139.299 324.71 146.279 317.94 146.199 309.67C146.119 301.4 138.979 294.81 130.089 294.83Z" fill="black"/>
<path d="M383.548 307.96H369.698L376.938 296.88L383.548 307.96Z" fill="white"/>
</svg>
