<svg width="512" height="284" viewBox="0 0 512 284" fill="none" xmlns="http://www.w3.org/2000/svg">
<path d="M258.139 283.05C200.613 281.708 146.425 273.832 95.3136 251.05C65.7252 237.865 38.4412 221.153 18.9729 194.38C-8.9407 156.013 -5.79299 113.537 26.6937 78.7103C53.1225 50.381 86.2863 33.2883 122.313 21.1964C174.517 3.66428 228.349 -2.55986 283.214 0.93231C329.123 3.8187 373.891 12.4422 416.166 31.3047C447.239 45.1665 475.402 63.0074 495.666 91.3962C517.415 121.864 517.451 160.788 495.737 191.244C475.616 219.478 447.726 237.378 416.807 251.121C371.943 271.089 324.431 279.807 275.612 282.111C269.091 282.444 262.581 282.812 258.139 283.05ZM256.001 267.383C291.778 267.537 327.151 263.712 361.788 254.661C399.643 244.755 435.527 230.489 465.222 203.882C482.707 188.215 495.405 169.661 496.783 145.382C498.339 118.063 485.19 97.1096 465.899 79.4824C437.226 53.2911 402.351 39.0374 365.553 29.0597C323.98 17.7874 281.515 14.0458 238.528 15.685C195.921 17.3004 154.336 24.2966 114.366 39.56C86.9396 50.0365 61.4847 63.8033 40.6386 84.9701C8.74582 117.362 6.73838 157.427 35.7685 192.135C54.9161 215.071 80.2878 229.313 107.441 240.443C155.001 259.947 204.889 267.216 256.001 267.383Z" fill="black"/>
<path d="M336.582 52.5784C334.408 62.8411 332.353 72.4505 330.322 82.0599C326.604 99.6633 322.768 117.243 319.311 134.906C318.385 139.657 316.199 141.082 311.674 140.572C307.148 140.061 302.48 142.187 300.983 134.846C297.42 117.029 292.977 99.3782 288.844 81.668C288.333 79.4824 287.573 77.3681 286.92 75.2181H285.399C284.877 76.9761 284.211 78.7222 283.843 80.5039C279.603 98.5943 275.267 116.673 271.288 134.823C270.361 139.039 268.829 141.154 264.292 140.536C261.916 140.215 259.54 140.797 257.165 140.334C255.787 140.049 253.815 138.707 253.601 137.531C247.579 109.534 241.723 81.5016 235.784 52.7803H250.133C253.958 72.2367 257.806 91.8475 261.655 111.47L263.306 111.66C263.947 109.783 264.743 107.93 265.194 106.006C269.055 89.6619 272.975 73.3176 276.586 56.9139C277.381 53.2911 278.878 52.1627 282.525 52.0795C295.294 51.9014 295.294 51.7707 297.966 64.2427C301.134 78.7182 304.301 93.1977 307.469 107.681C307.832 109.618 308.762 111.404 310.141 112.812C310.746 111.146 311.261 109.449 311.685 107.729C314.726 92.1999 317.731 76.6712 320.701 61.1425C322.685 50.7017 321.129 52.3409 331.843 52.1746C333.066 52.1983 334.242 52.3884 336.582 52.5784Z" fill="black"/>
<path d="M238.018 139.8C237.642 140.039 237.244 140.242 236.83 140.405C223.574 141.166 223.158 141.284 219.428 128.598C217.48 121.982 214.594 119.096 207.455 119.88C201.195 120.569 194.805 120.177 188.45 119.963C184.887 119.844 182.867 121.151 182.095 124.714C181.715 126.448 181.05 128.123 180.527 129.822C176.798 141.961 176.097 142.365 162.615 139.752C163.72 136.189 164.73 132.625 165.929 129.062C173.864 105.638 181.893 82.2619 189.745 58.8144C191.194 54.4908 192.738 51.4143 198.273 52.1151C203.179 52.7328 207.776 51.2005 210.151 58.4343C218.609 84.3762 227.969 110.009 237.02 135.773C237.412 137.02 237.649 138.386 238.018 139.8ZM211.589 106.006C207.788 94.4607 204.272 83.7585 200.756 73.0563L198.523 73.2701C195.161 83.9604 191.8 94.6507 188.26 106.006H211.589Z" fill="black"/>
<path d="M409.026 139.693C408.655 139.943 408.257 140.15 407.839 140.31C394.191 141.498 393.823 141.617 390.117 128.432C388.311 121.994 385.436 119.298 378.618 119.939C372.157 120.557 365.553 119.726 359.091 120.272C356.977 120.438 354.827 122.648 353.152 124.429C352.166 125.463 352.059 127.339 351.584 128.848C347.652 141.415 347.652 141.415 333.767 140.156C333.842 138.87 334.037 137.593 334.349 136.343C343.233 110.211 352.427 84.0792 360.908 57.7811C362.963 51.4144 366.99 52.4478 371.42 52.234C375.851 52.0202 378.904 52.4715 380.697 57.8286C389.214 83.2953 398.324 108.56 407.197 133.908C407.898 135.702 408.385 137.578 409.026 139.693ZM371.824 73.1751L369.449 73.2345L359.008 105.994H382.336L371.824 73.1751Z" fill="black"/>
<path d="M256.547 158.852C268.554 158.937 280.037 163.776 288.484 172.309C296.93 180.842 301.651 192.374 301.613 204.381C301.494 229.123 280.791 249.696 256.108 249.601C231.105 249.506 210.33 228.494 210.674 203.645C210.893 191.646 215.83 180.216 224.416 171.832C233.003 163.448 244.547 158.784 256.547 158.852ZM290.566 204.262C290.566 197.442 288.542 190.775 284.749 185.106C280.956 179.438 275.565 175.023 269.261 172.421C262.956 169.819 256.021 169.147 249.334 170.491C242.647 171.835 236.51 175.133 231.699 179.968C226.889 184.804 223.623 190.958 222.314 197.652C221.005 204.346 221.712 211.277 224.347 217.568C226.981 223.859 231.424 229.227 237.112 232.99C242.8 236.754 249.478 238.744 256.298 238.709C265.408 238.677 274.133 235.032 280.558 228.574C286.983 222.116 290.582 213.372 290.566 204.262Z" fill="black"/>
<path d="M222.149 159.149C218.585 164.565 214.012 166.145 208.299 166.561C161.127 169.998 113.974 173.561 66.842 177.251C51.5549 178.439 43.8578 175.196 39.1778 165.242C36.719 160.016 37.3367 158.805 42.9313 158.805C101.918 158.805 160.913 158.805 219.915 158.805C220.666 158.877 221.411 158.992 222.149 159.149Z" fill="black"/>
<path d="M290.079 158.793H295.923C352.938 158.793 409.953 158.793 466.968 158.793C469.344 158.793 471.814 159.672 474.238 160.135C473.442 162.677 473.05 165.492 471.755 167.713C469.965 170.952 467.268 173.598 463.995 175.327C460.723 177.055 457.017 177.79 453.332 177.441C434.327 176.254 415.441 174.757 396.495 173.343C366.099 171.087 335.715 168.699 305.319 166.573C299.32 166.193 293.939 165.302 290.079 158.793Z" fill="black"/>
<path d="M115.293 112.765C116.172 116.162 116.706 119.06 117.668 121.804C119.284 126.247 122.693 128.218 127.396 127.921C132.1 127.624 135.236 125.023 135.913 120.355C136.572 115.664 136.917 110.934 136.946 106.196C137.053 88.6048 136.946 71.0252 136.946 52.816H151.01C151.01 64.1477 151.176 75.1825 151.01 86.2173C150.785 98.4518 151.01 110.781 149.561 122.885C147.886 136.462 136.982 143.244 122.087 141.688C110.886 140.5 102.369 130.071 102.832 117.682C102.947 116.921 103.244 116.199 103.7 115.578C104.155 114.958 104.754 114.457 105.446 114.119C108.694 113.448 111.984 112.995 115.293 112.765Z" fill="black"/>
<path d="M304.737 175.078L448.391 192.075C445.516 200.164 436.513 205.783 427.01 204.809C416.617 203.74 406.319 201.637 396.032 199.689C368.463 194.498 340.93 188.999 313.325 183.986C308.265 183.072 305.64 180.827 304.737 175.078Z" fill="black"/>
<path d="M63.5869 192.111L207.479 175.101C206.742 180.625 204.39 182.977 199.235 183.927C163.292 190.543 127.432 197.539 91.5242 204.322C79.0641 206.673 68.35 202.255 63.5869 192.111Z" fill="black"/>
<path d="M106.907 217.114L200.744 195.045C201.302 199.155 201.35 201.922 197.014 203.359C176.287 210.415 155.655 217.756 134.939 224.894C125.745 228.054 117.039 226.498 108.902 221.331C108.178 220.747 107.528 220.077 106.966 219.336L106.907 217.114Z" fill="black"/>
<path d="M405.202 219.965C397.41 226.154 388.407 228.434 378.845 225.275C357.464 218.231 336.19 210.688 315 203.003C312.969 202.267 311.805 199.131 310.249 197.064L311.698 195.057L405.452 217.079C405.392 218.076 405.309 219.015 405.202 219.965Z" fill="black"/>
<path d="M151.141 233.625L200.803 213.883C204.367 219.49 203.001 222.709 197.608 225.441C191.811 228.375 186.514 232.271 180.978 235.68C170.977 241.821 161.166 239.683 151.414 235.68L151.141 233.625Z" fill="black"/>
<path d="M360.92 235.549C351.632 239.611 342.117 241.702 332.413 236.274C325.291 232.389 318.42 228.061 311.84 223.315C309.999 221.961 310.058 218.029 309.239 215.273L311.341 213.895L361.051 233.554L360.92 235.549Z" fill="black"/>
<path d="M320.867 244.458L291.172 247.891C296.256 241.833 300.366 236.927 305.046 231.368L321.176 242.45L320.867 244.458Z" fill="black"/>
<path d="M207.158 231.404C211.707 236.808 215.829 241.714 221.02 247.867L191.324 244.458L190.98 242.593L207.158 231.404Z" fill="black"/>
<path d="M280.292 203.502C280.152 209.818 277.544 215.829 273.027 220.247C268.511 224.664 262.444 227.138 256.126 227.138C249.808 227.138 243.741 224.664 239.224 220.247C234.707 215.829 232.1 209.818 231.96 203.502C231.888 200.283 232.46 197.083 233.643 194.088C234.825 191.094 236.594 188.366 238.845 186.064C241.096 183.763 243.784 181.934 246.752 180.686C249.719 179.437 252.906 178.794 256.126 178.794C259.345 178.794 262.532 179.437 265.499 180.686C268.467 181.934 271.155 183.763 273.406 186.064C275.657 188.366 277.426 191.094 278.608 194.088C279.791 197.083 280.363 200.283 280.292 203.502ZM256.12 190.21C252.624 190.187 249.258 191.527 246.735 193.947C244.213 196.367 242.735 199.676 242.614 203.169C242.622 204.949 242.98 206.71 243.669 208.351C244.357 209.993 245.362 211.482 246.626 212.735C247.89 213.988 249.388 214.98 251.036 215.654C252.683 216.328 254.447 216.671 256.227 216.663C258.006 216.655 259.767 216.297 261.409 215.609C263.05 214.92 264.54 213.915 265.793 212.651C267.046 211.387 268.037 209.889 268.711 208.242C269.385 206.594 269.728 204.83 269.72 203.051C269.593 199.553 268.095 196.246 265.551 193.844C263.006 191.441 259.618 190.136 256.12 190.21Z" fill="black"/>
</svg>
