<svg width="512" height="239" viewBox="0 0 512 239" fill="none" xmlns="http://www.w3.org/2000/svg">
<path d="M70.5366 102.683H44.1724C44.1724 83.8998 44.3349 65.5923 44.1724 47.2964C44.0214 32.8083 43.3365 18.3318 43.1855 3.84367C43.1855 2.52023 45.3449 -0.0105403 46.4942 0.00106876C63.1184 0.0823322 79.8122 -0.358812 96.3319 1.16198C108.591 2.26484 118.145 9.1374 121.524 21.977C124.902 34.8167 119.399 49.4325 108.463 57.5008C106.78 58.7313 104.957 59.8922 103.297 61.0532C116.45 87.4057 145.253 105.353 170.514 99.2818C184.851 95.7991 194.034 87.0575 197.331 72.6738C199.653 62.4695 199.27 52.2535 194.8 42.5831C191.19 34.7586 185.246 29.9525 176.284 29.9989C172.169 30.0561 168.188 31.4661 164.955 34.0111C161.721 36.5562 159.416 40.0948 158.394 44.0807C156.781 50.1817 156.386 56.5409 157.233 62.7945C158.673 72.5345 165.789 77.2014 175.506 76.5048C176.411 76.4352 177.34 76.5861 179.151 78.0372C176.632 79.9643 174.356 82.4138 171.547 83.714C155.12 91.3412 135.176 79.3607 133.376 60.9603C131.647 43.3029 140.028 28.9076 156.362 21.9654C183.063 10.6233 219.458 22.8129 222.534 58.6385C224.066 76.1914 212.759 96.5073 194.997 106.363C165.278 122.86 123.602 116.881 97.5973 91.8985C90.8176 85.3742 85.3149 77.5264 79.0228 70.503C77.5368 68.8428 75.0757 68.065 73.0557 66.8809C72.2083 68.9705 70.6758 71.0486 70.6178 73.1614C70.3856 82.7505 70.5366 92.3976 70.5366 102.683ZM70.5366 33.0869V42.8966C70.5366 51.9865 71.0125 52.4392 79.9979 51.5221C91.607 50.3612 98.2939 42.1304 97.5973 30.0105C96.982 19.4114 91.0498 14.4776 78.8719 14.4776C77.9083 14.4776 76.9447 14.5472 75.9812 14.4776C72.0805 14.1525 70.316 15.7662 70.4901 19.8061C70.6875 24.2176 70.5366 28.6522 70.5366 33.0869Z" fill="black"/>
<path d="M371.571 218.855V136.791H397.204V177.968C397.204 185.7 397.018 193.443 397.367 201.186C397.436 202.823 399.189 205.4 400.64 205.83C411.031 208.686 421.537 211.298 431.985 213.573C439.484 215.198 447.077 217.056 454.715 217.253C468.205 217.509 478.444 209.731 482.728 196.972C486.349 186.651 486.329 175.401 482.67 165.094C478.143 152.324 464.467 145.022 451.871 148.667C450.513 149.073 449.097 152.08 449.073 153.902C448.83 167.624 448.969 181.346 448.923 195.08C448.923 202.045 448.307 202.545 441.644 201.175C423.58 197.471 423.719 197.471 423.545 179.35C423.429 166.231 422.814 153.101 422.698 139.983C422.698 138.822 424.718 136.5 425.774 136.5C441.783 136.802 458.07 135.699 473.731 138.312C499.19 142.56 512.842 161.913 511.96 188.428C511.147 212.807 492.851 233.773 469.563 237.534C456.457 239.659 444.302 236.71 432.171 232.229C421.142 228.154 410.032 224.103 398.678 221.177C392.061 219.447 384.887 219.796 377.968 219.238C375.785 219.064 373.533 218.936 371.571 218.855Z" fill="black"/>
<path d="M115.917 218.147C102.462 222.593 89.0764 226.761 75.8769 231.439C50.5691 240.402 25.1801 240.135 0 233.459V136.779C1.59044 136.64 3.78451 136.292 5.97863 136.292C21.2562 136.292 36.5454 136.593 51.8113 136.106C57.9757 135.908 60.1814 138.346 60.3091 143.884C60.3091 146.728 60.3091 149.572 60.3091 151.604C51.2192 151.604 42.3963 151.755 33.6082 151.534C29.4289 151.43 27.5831 152.695 27.8037 157.141C28.0939 162.354 27.9894 167.59 27.8849 172.802C27.8849 176.018 29.2084 177.446 32.3776 177.295C38.3679 177.086 44.3931 177.295 50.3485 176.691C54.5742 176.296 55.6887 177.852 55.7583 181.776C55.9441 192.607 56.095 192.595 45.1244 191.504C27.9314 189.786 27.9314 189.786 27.9198 206.596C27.9198 215.129 27.9198 215.152 36.5453 216.568C51.1263 218.96 65.4287 217.242 79.6266 213.736C85.8142 212.203 92.0367 210.706 98.3172 209.707C107.941 208.186 111.273 210.079 115.917 218.147Z" fill="black"/>
<path d="M95.4963 174.927C95.4963 180.255 95.3221 185.595 95.5543 190.924C95.7284 194.813 94.1728 196.508 90.3534 196.891C86.534 197.274 82.4593 198.156 77.27 199.027V136.442C82.8075 136.442 89.1112 136.175 95.3801 136.617C97.0751 136.744 98.8629 138.799 100.198 140.355C110.542 152.602 120.781 164.954 131.055 177.26C132.773 179.303 134.538 181.288 137.196 184.318V136.849H156.514V218.693C147.308 219.656 138.218 220.608 130.881 211.425C122.325 200.733 112.736 190.866 103.599 180.638L97.5743 173.916L95.4963 174.927Z" fill="black"/>
<path d="M325.681 20.0847C332.101 20.0847 339.24 19.6668 346.264 20.3634C348.191 20.5491 350.536 23.8461 351.407 26.1679C359.533 47.6447 367.392 69.2375 375.356 90.784C376.749 94.5453 378.316 98.2486 380.058 102.637H351.848C351.488 99.1541 351.244 95.5437 350.687 92.0029C350.106 87.9978 347.97 86.0475 343.582 86.2796C337.605 86.6725 331.609 86.6531 325.635 86.2216C319.749 85.7224 316.974 88.0791 316.487 93.7211C316.254 96.5653 315.964 99.4095 315.662 102.718H298.887C308 75.4484 319.226 49.2351 325.681 20.0847ZM334.376 45.1255H332.252L323.58 71.8264H343.768C340.448 62.3766 337.418 53.7511 334.376 45.1255Z" fill="black"/>
<path d="M351.79 149.445C343.907 149.445 336.616 149.584 329.338 149.445C325.518 149.352 323.684 150.396 323.823 154.634C324.427 172.906 320.561 170.411 339.159 169.935C343.385 169.818 345.347 170.805 344.963 175.275C344.731 178.107 344.963 180.986 344.963 184.016C339.948 184.016 335.572 184.016 331.207 184.016C323.928 183.935 323.928 183.912 323.905 191.435C324.062 193.754 324.062 196.081 323.905 198.4C323.069 204.205 326.122 205.957 331.184 205.934H353.763C353.496 208.86 353.368 212.633 352.695 216.29C352.467 216.96 352.074 217.562 351.553 218.04C351.032 218.519 350.398 218.859 349.712 219.029C332.565 219.203 315.407 219.157 298.353 219.157V136.268H342.467C351.081 136.268 351.105 136.268 351.882 144.72C351.917 146.438 351.79 148.179 351.79 149.445Z" fill="black"/>
<path d="M178.57 136.698C180.509 136.559 182.552 136.292 184.607 136.28C197.748 136.28 210.902 136.582 224.078 136.129C230.254 135.92 232.564 138.149 232.204 144.012C232.192 145.85 232.293 147.688 232.506 149.514C224.635 149.514 217.194 149.665 209.764 149.445C205.759 149.329 204.18 150.745 204.412 154.808C204.668 159.448 204.668 164.099 204.412 168.739C204.226 172.64 205.956 173.812 209.578 173.673C214.547 173.487 219.515 173.673 224.426 173.673C224.693 174.126 225.03 174.439 225.065 174.776C226.4 187.917 226.388 187.917 213.328 187.023C204.459 186.431 204.459 186.431 204.459 195.567V218.786H178.57V136.698Z" fill="black"/>
<path d="M268.866 54.7843C272.523 44.1504 276.133 33.4816 279.929 22.8825C280.188 22.2445 280.589 21.6741 281.102 21.2153C281.615 20.7564 282.227 20.4213 282.89 20.2357C287.858 19.9571 292.85 20.108 298.898 20.108C297.738 22.987 297.041 24.9141 296.135 26.7368C291.178 36.7902 286.848 47.25 280.986 56.7578C273.208 69.3536 274.926 82.6576 275.843 96.1009C275.982 98.1441 276.435 100.176 276.818 102.672H250.256C250.256 92.7575 250.512 83.3193 250.129 73.916C249.972 70.11 249.015 66.3798 247.319 62.9686C240.133 48.9101 232.541 35.1069 224.577 20.1776C232.703 20.1776 239.936 19.9338 247.168 20.3866C248.608 20.4679 250.268 22.9986 251.174 24.7516C255.434 32.9824 259.462 41.3526 263.607 49.653C264.443 51.3247 265.418 52.9152 266.323 54.5521L268.866 54.7843Z" fill="black"/>
<path d="M397.332 20.4214H422.976C422.976 39.9363 422.976 59.01 422.976 78.0837C422.976 87.0343 423.209 87.3709 432.426 87.6379C439.67 87.8237 446.938 87.6379 454.483 87.6379C454.652 88.0018 454.739 88.3979 454.739 88.7989C452.649 105.319 455.772 102.915 439.647 103.043C425.577 103.148 411.507 103.043 397.425 103.043L397.332 20.4214Z" fill="black"/>
<path d="M275.832 219.157C268.936 219.157 262.017 219.157 255.11 219.157C253.217 219.157 251.313 218.971 249.491 218.878V136.767H275.832V219.157Z" fill="black"/>
</svg>
