<svg width="512" height="94" viewBox="0 0 512 94" fill="none" xmlns="http://www.w3.org/2000/svg">
<path d="M469.393 13.1866C468.826 25.7827 482.29 29.2545 487.62 38.5569C483.592 43.2303 476.938 43.6198 473.154 39.3914C469.371 35.1631 459.802 34.462 455.651 37.8781C452.458 40.4707 452.213 43.8089 454.694 46.6575C456.92 49.239 460.024 51.1084 462.795 53.2115C477.516 64.3388 492.271 75.4661 506.97 86.7269C508.758 88.3522 510.438 90.0917 512 91.9345C505.468 90.5769 501.251 89.7646 496.889 85.1134C486.685 74.2087 472.409 71.3935 457.81 70.737C450.021 70.3809 442.232 71.0374 435.299 76.2227C432.095 71.616 428.078 72.2392 423.226 73.4632C408.937 77.2337 393.771 75.7735 380.464 69.3461C378.053 68.3614 375.366 68.2941 372.909 69.1569C360.858 73.7302 348.551 74.8429 335.81 73.5077C332.983 73.4092 330.206 74.2722 327.932 75.9557C313.6 86.471 297.888 92.4797 279.907 91.6118C276.101 91.4226 272.329 90.5769 267.589 89.9093C275.511 87.0162 275.489 87.1275 282.577 88.7965C284.418 89.0378 286.288 88.9015 288.074 88.396C300.615 85.8367 310.329 79.0268 318.329 69.1124C320.076 66.8869 323.281 65.9856 325.584 64.1719C329.423 61.123 333.44 58.1631 336.712 54.569C340.551 50.3518 343.388 45.1999 347.216 40.9715C353.892 33.5496 362.171 32.2143 371.518 35.8084C377.968 38.4762 384.621 40.6232 391.413 42.2289C401.695 44.3876 411.242 41.4833 419.799 35.6415C425.919 31.4687 431.694 26.8064 437.747 22.5336C444.769 17.593 452.413 15.0449 461.248 16.0575C463.685 16.2911 466.333 14.3216 469.393 13.1866Z" fill="black"/>
<path d="M101.102 92.7912C99.8446 72.4617 98.4871 53.0556 97.5524 33.6274C97.3298 28.9094 96.6622 25.5824 90.7759 26.0497C92.0333 21.532 93.1682 17.4595 94.3588 13.2088H134.528C134.028 16.2243 133.494 19.0507 133.104 21.8992C132.715 24.7478 131.769 26.6617 128.23 26.5393C126.951 26.5393 124.503 28.2307 124.492 29.1876C124.236 41.8838 124.325 54.5801 124.325 67.2652L125.716 67.7437L149.361 26.7507L141.572 25.8383C141.466 25.5042 141.429 25.1524 141.461 24.8034C145.4 12.9751 145.411 12.964 158.018 12.9752C165.629 12.9752 173.233 12.9752 180.829 12.9752C181.356 13.0845 181.868 13.2563 182.353 13.487C178.67 19.5291 175.132 25.5156 171.415 31.4019C159.242 50.6521 146.935 69.8356 134.851 89.1414C133.182 91.8231 131.413 92.9025 128.241 92.8246C119.395 92.6577 110.527 92.7912 101.102 92.7912Z" fill="black"/>
<path d="M247.07 13.1531C244.744 21.3762 242.786 28.2417 240.672 35.6748H229.622C227.675 32.9152 226.151 28.9984 224.682 28.9984C220.131 29.0763 215.001 29.6549 211.24 31.9249C207.691 34.0724 209.783 38.1116 212.687 40.2481C216.582 43.0844 220.672 45.6426 224.927 47.9036C242.653 57.373 238.168 74.9541 226.874 83.7335C219.221 89.7214 209.878 93.1509 200.169 93.5367C189.208 94.0151 178.181 92.8468 166.319 92.3572C168.3 84.5681 169.735 78.3924 171.549 72.3281C171.85 71.6385 172.309 71.0293 172.889 70.55C173.469 70.0706 174.153 69.7344 174.887 69.5685C178.893 69.2236 182.943 69.4461 186.259 69.4461C187.684 72.3614 188.852 77.0126 190.165 77.046C195.106 77.1907 200.469 76.7233 204.964 74.8206C208.837 73.1626 208.903 68.5559 206.311 65.2177C204.269 62.8528 201.847 60.8447 199.145 59.2758C196.04 57.284 192.468 56.0377 189.397 53.9903C180.551 48.0817 178.359 38.3008 184.056 29.3211C190.888 18.5276 201.415 12.9862 213.699 12.2296C224.815 11.5174 236.032 12.7637 247.07 13.1531Z" fill="black"/>
<path d="M3.64978 92.7913C4.76251 88.4517 5.38561 84.7685 6.82103 81.4415C7.3774 80.1618 9.94783 78.86 11.4389 79.0269C16.6687 79.6277 18.449 77.2353 19.4728 72.4506C22.1099 60.0103 25.2924 47.6812 28.2077 35.2966C28.5018 33.603 28.6987 31.8941 28.7974 30.178C23.7456 28.8539 19.5729 28.3421 17.4921 34.4398C17.0693 35.7083 14.9217 37.0325 13.4641 37.166C9.24682 37.5221 4.98503 37.2884 0 37.2884C2.22546 28.9541 4.29516 21.1761 6.42047 13.2201H85.5243C83.922 20.8423 82.4866 28.2196 80.7063 35.4746C80.4023 36.1476 79.9399 36.737 79.3585 37.1924C78.7772 37.6477 78.0943 37.9556 77.3681 38.0895C73.162 38.4122 68.9225 38.223 64.3603 38.223V30.2671C56.0148 28.1863 55.5141 28.4088 53.5891 36.3092C50.2509 50.0959 46.9906 63.9049 43.4966 78.5373L55.3138 79.0936C54.0119 83.3776 52.9547 87.3612 51.5082 91.2001C51.2189 91.9902 49.5164 92.68 48.4482 92.68C33.8381 92.8247 19.2057 92.7913 3.64978 92.7913Z" fill="black"/>
<path d="M467.168 9.18074C465.21 9.87063 462.951 11.5731 461.36 11.0946C450.154 7.75645 440.551 11.3506 431.405 17.2703C425.029 21.3985 419.009 26.1165 412.422 29.8664C407.592 32.6148 402.096 34.206 396.554 35.5746C403.353 32.7372 408.883 28.5422 412.678 22.2219C412.8 22.0216 411.086 20.7086 409.718 19.4401L420.289 12.2964C422.514 9.11396 423.427 6.55469 425.185 5.61999C437.024 -0.933978 449.286 -2.04669 461.804 3.82852C462.777 4.35749 463.717 4.94458 464.62 5.58661C465.566 6.17636 466.523 6.75499 467.48 7.33361L467.168 9.18074Z" fill="black"/>
<path d="M289.632 23.9244C297.031 18.9282 304.576 19.952 310.774 24.7144C320.288 31.9472 329.824 33.6163 340.817 29.0207C343.844 27.7633 347.627 28.3197 351.199 29.0207C342.609 33.1712 334.208 37.8001 325.317 41.1828C322.535 42.2955 318.151 40.6042 315.091 39.0353C311.753 37.3217 308.826 34.4508 306.1 31.7246C304.531 30.1557 304.142 27.0845 302.428 26.161C299.98 24.7701 296.865 24.5809 293.927 24.0802C292.502 23.9112 291.065 23.8591 289.632 23.9244Z" fill="black"/>
</svg>
