<svg width="512" height="517" viewBox="0 0 512 517" fill="none" xmlns="http://www.w3.org/2000/svg">
<path d="M379.194 148.075C379.266 164.831 375.815 181.415 369.065 196.752C367.332 200.725 367.861 203.167 370.866 205.97C374.115 209.08 377.156 212.399 379.971 215.907C380.905 217.033 381.839 219.667 381.333 220.173C380.698 220.778 379.946 221.246 379.123 221.55C378.301 221.854 377.425 221.987 376.549 221.94C371.92 221.219 367.342 220.204 362.841 218.901C359.048 217.832 356.775 218.901 354.355 222.098C337.641 244.202 314.015 260.082 287.235 267.21C260.455 274.338 232.06 272.304 206.569 261.433C186.776 253.019 169.588 239.475 156.778 222.199C154.37 218.969 152.096 217.933 148.292 219.036C144.156 220.26 139.935 221.178 135.665 221.783C133.898 222.019 131.951 220.972 130.094 220.522C130.611 218.868 130.724 216.909 131.714 215.626C135.496 210.775 141.933 206.622 142.868 201.31C143.802 195.998 139.154 189.887 137.319 184C114.742 111.745 164.6 34.9653 239.793 26.2091C244.622 25.6464 247.188 24.1945 248.156 19.2762C249.099 15.0796 250.471 10.9913 252.252 7.07608C252.627 6.30631 253.164 5.62697 253.827 5.08486C254.489 4.54276 255.261 4.15077 256.09 3.936C257.035 3.78969 258.87 5.64672 259.377 6.96352C261.096 11.321 262.551 15.7786 263.732 20.3116C264.677 24.082 266.512 25.5676 270.564 26.1641C319.207 33.2433 353.151 59.4668 371.62 105.116C377.157 118.79 379.329 133.287 379.194 148.075ZM257.216 6.98605L255.021 7.07608C254.094 8.57489 253.27 10.1354 252.556 11.7468C250.947 16.1474 249.27 20.5367 248.111 25.0611C247.266 28.325 245.68 29.4505 242.337 29.8106C187.189 35.7869 144.758 75.8424 135.237 130.968C134.843 133.219 135.98 136.933 137.668 138.07C146.188 143.776 154.809 149.482 164.004 153.928C171.308 157.462 179.49 159.161 187.391 161.705C186.266 166.724 185.557 171.519 184.172 176.122C182.417 181.941 176.508 186.747 170.453 185.621C163.981 184.428 160.83 187.591 157.33 191.609C154.246 195.143 150.87 198.361 147.707 201.873C142.868 207.163 138.096 212.52 132.254 219.003C147.55 215.491 161.247 212.452 174.853 209.053C176.35 208.682 177.69 206.409 178.511 204.72C182.462 196.684 190.137 192.903 198.601 195.975C207.492 199.194 215.483 198.057 223.249 193.083C225.961 191.35 228.876 189.898 232.658 187.748V251.191C244.149 253.352 244.486 253.048 244.498 242.547C244.498 224.742 245.083 206.904 244.385 189.121C244.115 181.941 246.929 178.553 252.736 176.01C257.384 173.984 266.658 179.667 266.658 184.743V244.945V251.698C268.313 251.878 269.213 252.035 270.113 252.069C278.701 252.407 278.701 252.395 278.667 243.74C278.607 226.671 278.566 209.605 278.543 192.543C278.638 191.18 278.811 189.823 279.061 188.48C280.411 189.01 281.723 189.63 282.989 190.337C292.781 196.943 302.82 200.016 314.795 195.683C322.054 193.06 328.908 197.731 332.678 204.912C333.962 207.185 336.044 208.901 338.52 209.729C347.366 212.16 356.37 214.028 365.328 216.054C369.369 216.977 373.432 217.776 377.484 218.631C368.48 207.286 358.936 196.977 349.257 186.848C348.334 185.88 346.252 185.565 344.755 185.722C334.333 186.656 327.974 182.346 326.151 172.284C325.562 168.566 324.115 165.037 321.922 161.977C319.73 158.918 316.854 156.412 313.523 154.659C309.854 152.6 306.207 150.518 301.627 147.906L357.81 115.38L351.98 105.634C350.225 106.534 349.043 107.074 347.929 107.705C330.844 117.474 313.523 126.838 296.798 137.237C290.71 140.996 286.613 139.848 281.875 135.954C277.62 132.442 278.026 122.628 282.741 119.893C300.254 109.734 317.781 99.5862 335.323 89.4494C337.045 88.4477 338.7 87.3448 340.827 86.073L335.076 76.4052L300.13 95.1893C300.749 92.1618 300.951 90.6874 301.334 89.3706C305.505 74.9115 306.552 59.7306 304.407 44.8357C303.866 41.2229 302.673 38.8257 299.128 37.8578C289.573 35.2579 280.119 32.1629 270.417 30.3171C265.916 29.4617 264.092 27.8861 262.967 23.7443C261.391 18.0044 259.14 12.5346 257.216 6.98605Z" fill="black"/>
<path d="M250.136 317.841V435.24H229.112V365.899L227.413 365.629C226.715 368.477 225.871 371.256 225.353 374.183C221.977 393.169 218.51 412.156 215.382 431.188C214.774 434.823 213.378 436.05 209.934 435.69C208.063 435.509 206.178 435.509 204.307 435.69C201.189 435.971 200.086 434.485 199.591 431.559C196.215 411.796 192.838 392.044 189.349 372.303C188.944 370.052 188.404 367.734 187.931 365.449L186.457 365.618V435.206H165.005V317.92H197.239L206.94 371.943L208.392 371.853C211.532 353.913 214.661 335.973 217.824 317.83L250.136 317.841Z" fill="black"/>
<path d="M354.276 317.774H377.191C377.304 319.912 377.484 321.882 377.495 323.863C377.495 335.86 377.619 347.858 377.495 359.878C377.495 363.783 378.868 365.01 382.751 365.089C399.914 365.393 399.914 365.505 399.914 348.274V318.044H422.919V435.307H399.824V416.095C399.824 411.402 399.937 406.72 399.824 402.027C399.667 396.861 399.284 391.684 399.003 386.518C392.858 386.315 386.701 385.876 380.579 386.135C379.453 386.135 377.675 389.118 377.641 390.75C377.405 403.49 377.506 416.242 377.506 429.016V435.363H354.265L354.276 317.774Z" fill="black"/>
<path d="M511.482 435.633C504.729 435.633 498.236 435.847 491.73 435.453C490.481 435.386 488.613 433.124 488.354 431.627C487.105 425.009 486.216 418.312 485.428 411.616C485.079 408.645 483.874 407.519 480.813 407.35C465.878 406.517 465.912 406.439 463.774 421.081C463.087 425.695 462.243 430.299 461.41 435.262H438.349C439.891 426.393 441.365 417.66 442.93 408.937C448.085 380.238 453.374 351.538 458.338 322.816C459.08 318.539 460.735 317.312 464.865 317.47C472.35 317.774 479.868 317.369 487.375 317.718C488.962 317.796 491.584 319.62 491.877 320.993C498.742 358.539 505.382 396.129 512 433.731C511.966 434.058 511.752 434.44 511.482 435.633ZM475.872 346.721H474.184C472.372 359.664 470.571 372.607 468.703 386.011H481.59C479.632 372.629 477.752 359.687 475.872 346.744V346.721Z" fill="black"/>
<path d="M99.0752 435.341C97.5896 435.465 96.4866 435.634 95.3949 435.634C89.2273 435.634 83.0147 435.634 76.093 435.634L97.2294 317.571C107.257 317.571 116.79 317.403 126.3 317.774C127.516 317.774 129.339 320.531 129.677 322.276C135.777 355.41 141.697 388.577 147.684 421.734C148.472 426.112 149.271 430.49 150.16 435.318H126.874C125.636 427.575 124.072 419.911 123.318 412.167C122.913 408.026 121.067 407.418 117.6 407.395C103.194 407.272 103.239 407.193 101.405 421.52C100.82 426.089 99.8743 430.648 99.0752 435.341ZM113.886 346.969H112.086C110.319 359.979 108.54 372.99 106.762 386.135H119.412C117.533 372.753 115.71 359.844 113.886 346.969Z" fill="black"/>
<path d="M288.233 435.42H265.251C272.285 396.028 279.241 357.109 286.298 317.594C296.359 317.594 306.083 317.481 315.785 317.763C316.82 317.763 318.441 320.014 318.711 321.443C323.686 348.522 328.492 375.634 333.342 402.736C335.256 413.383 337.191 424.019 339.285 435.633C331.8 435.633 324.958 435.769 318.126 435.487C317.169 435.487 315.706 433.439 315.481 432.111C314.266 425.482 313.106 418.808 312.476 412.111C312.093 408.082 310.225 407.328 306.669 407.294C292.229 407.17 292.285 407.08 290.529 421.531C289.967 426.168 289.021 430.715 288.233 435.42ZM295.65 386.101H308.661L302.831 346.969H301.199C299.387 359.777 297.564 372.596 295.65 386.101Z" fill="black"/>
<path d="M111.129 104.148C111.129 106.849 111.523 109.629 111.062 112.24C108.068 128.897 106.053 145.543 108 162.538C111.737 195.086 124.387 223.583 146.582 247.612C200.717 306.249 289.787 311.708 350.821 260.341C436.627 188.142 413.577 51.2283 308.773 10.5988C303.146 8.42661 297.44 6.67087 291.891 4.50996C289.82 3.72213 287.986 2.33779 285.026 0.63833C316.19 -6.1145 377.596 41.9432 396.785 86.4894C426.307 154.997 404.247 232.958 343.607 274.443C282.73 316.086 200.48 309.479 148.664 258.529C123.082 233.386 107.325 203.1 103.059 167.366C99.9419 141.615 103.251 114.367 111.129 104.148Z" fill="black"/>
<path d="M39.1214 368.353C40.8321 362.35 42.5391 356.318 44.2423 350.255C46.9322 340.711 49.4645 331.122 52.402 321.634C52.9085 320.025 55.0581 317.887 56.5663 317.796C63.0827 317.369 69.633 317.605 76.8248 317.605C71.6588 333.429 66.6955 348.679 61.7097 363.907C58.5021 373.687 55.1257 383.4 52.0756 393.169C51.2832 396.042 50.9042 399.013 50.9502 401.993C50.8151 412.989 50.8938 423.996 50.8938 435.633C43.1956 435.633 36.1164 435.813 29.071 435.453C27.9455 435.386 25.9984 432.989 25.9309 431.593C25.5595 424.666 25.5369 417.724 25.8633 410.794C26.4036 401.25 24.344 392.37 21.2377 383.4C14.0684 362.703 7.47311 341.758 0.675256 320.993C0.386243 319.881 0.160811 318.754 0 317.616C7.158 317.616 14.0346 317.414 20.8775 317.819C22.0818 317.886 23.6912 320.363 24.1751 322.006C28.2606 335.827 32.121 349.715 36.0826 363.569C36.5441 365.213 37.2081 366.788 37.8158 368.398L39.1214 368.353Z" fill="black"/>
<path d="M213.66 464.187L220.953 462.712L226.422 479.966C235.235 473.866 235.899 459.19 249.889 460.619C239.759 475.633 229.833 490.5 219.85 505.357L221.347 507.821L509.152 478.176C509.22 478.773 509.276 479.381 509.344 479.988L205.027 513.336L215.922 497.062L215.078 495.632C207.379 496.409 199.67 497.129 191.972 497.962C158.804 501.552 125.569 504.996 92.4799 508.868C80.2235 510.309 69.5203 507.124 59.4586 500.551C53.9663 496.972 48.4064 493.483 42.9029 489.926C39.6052 487.81 37.1292 488.069 35.1709 491.885C32.7849 496.544 29.9487 500.978 27.4502 505.593C22.0366 515.576 17.1971 517.973 4.3667 516.578L40.5394 462.769C28.0692 463.084 17.4447 468.52 6.48259 465.717L6.32501 464.198C18.4464 462.318 30.5114 459.955 42.689 458.672C56.0709 457.265 69.5541 456.624 83.0147 456.151C86.9447 456.207 90.8243 457.045 94.427 458.616C100.651 461.069 101.878 466.438 96.9143 470.996C92.8808 474.592 88.3277 477.56 83.4086 479.797C76.9146 482.836 69.9817 484.94 62.4636 487.675C73.0768 495.903 84.0614 502.678 97.0719 503.027C111.41 503.421 125.839 502.205 140.166 500.945C164.6 498.784 189 496.094 213.401 493.517C221.189 492.695 222.404 490.635 219.94 483.162C217.914 477.04 215.866 470.895 213.66 464.187ZM37.7482 487.507C53.2459 484.355 66.6728 480.979 78.4228 472.875C80.0997 471.75 81.9793 470.366 82.7671 468.644C83.4536 467.147 83.4536 464.412 82.497 463.264C79.0193 459.032 55.4857 457.929 52.5482 462.228C47.3823 469.848 43.1842 478.098 37.7482 487.507Z" fill="black"/>
<path d="M372.059 484.828L377.9 470.489C366.938 468.61 362.492 471.255 358.294 481.744C355.717 488.159 355.717 488.159 347.568 487.371C349.819 482.644 352.138 478.233 354.186 473.719C356.854 467.844 358.947 461.666 362.132 456.095C363.167 454.283 366.825 453.967 369.29 452.966L370.19 454.294C368.604 458.402 367.028 462.498 365.441 466.674C376.369 468.925 380.331 466.933 384.574 457.107C386.577 452.606 387.95 451.683 394.107 451.48C393.94 452.503 393.68 453.509 393.33 454.485C389.335 463.129 385.171 471.716 381.299 480.371C379.566 484.344 377.315 486.527 372.059 484.828Z" fill="black"/>
<path d="M130.667 486.809C125.321 495.295 107.978 498.986 100.797 493.01C98.9514 491.468 97.8597 487.169 98.5462 484.738C101.472 474.372 121.258 465.785 131.185 470.366C132.107 470.873 132.898 471.59 133.494 472.457C134.09 473.325 134.474 474.32 134.618 475.363C134.458 476.406 134.048 477.395 133.423 478.246C132.798 479.097 131.976 479.783 131.027 480.247C126.435 481.677 121.573 482.251 116.801 483.095C115.518 483.331 114.01 482.96 112.93 483.511C111.039 484.479 107.966 485.92 107.944 487.214C107.876 490.849 111.163 491.592 114.078 490.995C119.469 489.904 124.781 488.328 130.667 486.809ZM125.726 473.652C119.874 472.084 115.207 474.136 111.726 479.808C119.93 481.755 124.916 479.561 125.726 473.652Z" fill="black"/>
<path d="M250.451 496.938C249.104 496.909 247.759 496.808 246.422 496.634C240.221 495.666 238.296 491.873 241.02 486.167C245.679 476.432 260.457 469.443 270.912 472.031C276.09 473.314 277.879 476.691 276 481.643C272.432 491.029 263.394 496.657 250.451 496.938ZM249.832 489.408C249.832 493.404 253.366 495.644 256.72 492.785C260.752 489.12 264.102 484.768 266.613 479.932C268.099 477.253 266.005 474.98 262.483 475.43C256.889 476.038 249.832 483.86 249.832 489.408Z" fill="black"/>
<path d="M316.922 468.666C311.418 478.244 308.672 489.251 296.393 491.592C292.376 492.369 288.269 492.581 284.193 492.222C283.188 491.95 282.265 491.435 281.506 490.723C280.746 490.01 280.173 489.122 279.837 488.137C278.712 482.746 287.716 471.097 293.343 469.87C294.249 469.794 295.16 469.794 296.067 469.87C293.726 474.451 291.407 478.48 289.629 482.734C288.954 484.355 289.516 486.505 289.516 488.362C291.767 488.238 295.031 489.037 296.269 487.833C299.465 484.458 302.236 480.705 304.519 476.657C307.141 472.144 309.19 467.147 316.922 468.666Z" fill="black"/>
<path d="M172.974 466.685C165.433 474.789 158.23 483.263 150.183 490.827C146.199 494.563 142.305 492.357 141.303 486.775C140.74 483.646 140.256 480.495 139.907 477.332C139.041 469.364 139.074 469.364 147.876 467.451C148.776 472.628 149.676 477.805 150.667 483.556C159.153 478.795 161.685 467.428 171.736 465.447L172.974 466.685Z" fill="black"/>
<path d="M186.254 471.232C188.331 471.865 190.341 472.702 192.253 473.731C194.144 474.991 196.755 476.792 196.913 478.514C197.07 480.236 194.662 482.577 192.793 483.646C186.277 487.383 170.644 489.048 162.518 486.291C164.217 485.868 165.938 485.537 167.673 485.301C172.861 484.839 178.106 484.738 183.249 484.006C184.679 483.804 185.872 481.902 187.166 480.776C186.167 479.564 185.034 478.469 183.789 477.512C182.563 476.747 180.874 476.769 179.58 476.072C178.11 475.157 176.707 474.137 175.382 473.022C176.508 471.604 177.307 469.803 178.759 468.812C183.474 465.436 196.305 463.444 203.215 465.346L186.187 468.722L186.254 471.232Z" fill="black"/>
<path d="M412.204 475.768C407.522 482.363 399.43 485.019 393.071 482.521C388.569 480.754 387.185 477.422 389.807 473.112C391.94 469.345 395.035 466.213 398.777 464.037C402.519 461.862 406.773 460.721 411.101 460.732C412.981 460.732 414.905 462.87 416.807 464.029C415.389 466.168 414.421 469.409 412.463 470.219C408.569 471.817 404.067 471.829 399.959 473.022C398.383 473.483 397.235 475.374 395.885 476.612C397.551 477.467 399.34 479.189 400.848 478.975C404.484 478.469 407.939 477.04 412.204 475.768ZM410.831 464.885L409.379 462.634L399.711 468.756L400.724 470.332C405.024 469.96 409.503 469.904 410.831 464.885Z" fill="black"/>
<path d="M447.195 457.096C445.642 464.974 438.191 469.296 442.243 478.007L432.733 476.657L432.868 475.419C430.617 476.657 428.366 478.311 425.958 478.987C424.022 479.527 420.735 479.617 419.891 478.514C418.766 476.972 418.293 473.472 419.295 471.964C421.546 468.655 424.314 465.042 427.758 463.399C433.588 460.641 439.981 459.336 447.195 457.096ZM439.722 464.04C439.317 463.5 438.901 462.971 438.484 462.442C436.125 462.618 433.837 463.334 431.798 464.534C429.759 465.734 428.023 467.387 426.723 469.364C426.014 470.489 426.588 472.346 426.565 473.866C427.95 473.731 429.818 474.113 430.64 473.371C433.847 470.456 436.728 467.18 439.722 464.018V464.04Z" fill="black"/>
<path d="M346.499 466.73C345.036 467.349 343.562 468.565 342.132 468.52C332.386 468.193 328.345 474.609 325.329 482.318C323.517 486.955 320.58 489.904 315.2 489.33C314.677 489.085 314.176 488.795 313.703 488.463C317.462 481.643 321.244 474.755 325.093 467.89C325.276 467.679 325.5 467.507 325.752 467.385C326.003 467.264 326.277 467.194 326.556 467.18C333.117 466.561 339.69 465.987 346.252 465.402L346.499 466.73Z" fill="black"/>
<path d="M477.549 473.674C479.654 469.049 481.702 464.513 483.942 459.561L477.819 457.929L493.576 450.388L493.486 451.885L502.49 454.339C501.713 454.789 501.15 455.374 500.554 455.464C491.741 455.915 489.04 462.6 486.575 469.33C484.989 473.618 482.265 475.025 477.549 473.674Z" fill="black"/>
<path d="M446.79 476.679C449.874 470.613 452.586 465.121 455.49 459.73C455.782 459.17 456.184 458.674 456.671 458.272C457.158 457.87 457.721 457.57 458.326 457.389C462.828 456.725 467.33 456.387 471.764 455.993C472.482 455.901 473.211 455.954 473.909 456.147C474.607 456.34 475.259 456.671 475.827 457.119C474.072 457.895 472.327 459.37 470.583 459.37C462.254 459.37 458.709 464.794 456.548 471.547C455.074 476.15 452.226 477.614 446.79 476.679Z" fill="black"/>
<path d="M37.7485 487.506C43.1846 478.098 47.3826 469.848 52.5485 462.251C55.4635 457.952 79.0196 459.055 82.4973 463.286C83.454 464.412 83.454 467.169 82.7674 468.666C81.9796 470.388 80.1001 471.75 78.4231 472.898C66.6845 480.979 53.2463 484.355 37.7485 487.506Z" fill="white"/>
<path d="M277.721 167.523C277.519 162.661 279.657 160.253 283.416 158.193C287.175 156.134 290.327 154.322 294.581 157.529C298.835 160.737 303.889 163.157 308.469 166.026C314.097 169.628 315.526 175.03 312.442 180.523C311.79 181.722 310.907 182.781 309.844 183.638C308.781 184.495 307.559 185.134 306.248 185.516C304.938 185.899 303.564 186.019 302.207 185.869C300.85 185.719 299.536 185.302 298.34 184.642C292.438 181.797 286.754 178.521 281.334 174.839C279.398 173.455 278.881 170.022 277.721 167.523Z" fill="black"/>
<path d="M231.881 167.861C233.671 173.004 230.756 175.357 226.648 177.371C222.315 179.51 218.263 182.245 213.952 184.462C208.235 187.399 202.259 185.835 199.242 180.849C195.979 175.469 197.453 169.594 203.204 165.914C207.121 163.382 211.409 161.412 215.123 158.598C219.49 155.346 223.091 155.582 227.683 158.463C231.611 160.928 233.378 163.438 231.881 167.861Z" fill="black"/>
<path d="M246.186 153.106L260.637 144.305C254.604 137.282 250.271 145.734 244.588 144.991C245.398 139.015 251.025 136.989 254.267 136.888C258.251 136.764 262.629 140.062 266.287 142.65C268.054 143.911 265.274 154.524 263.417 155.818C256.056 160.962 254.334 160.737 246.186 153.106Z" fill="black"/>
<path d="M170.385 90.2147C175.27 88.5602 230.035 119.995 231.645 125.656L170.385 90.2147Z" fill="black"/>
<path d="M209.383 149.493C206.592 149.178 204.712 149.493 203.418 148.751C187.346 139.604 171.331 130.357 155.372 121.008C154.536 120.317 153.804 119.51 153.199 118.61C156.992 117.665 201.932 142.324 209.383 149.493Z" fill="black"/>
<path d="M266.095 92.3081C256.99 84.7111 253.603 84.7674 245.477 92.6232C245.702 87.2772 249.157 83.6982 254.582 83.1805C260.536 82.6065 264.824 86.0054 266.095 92.3081Z" fill="black"/>
</svg>
